<svg width="250" height="380" viewBox="0 0 250 380" fill="none" xmlns="http://www.w3.org/2000/svg">
<g clip-path="url(#clip0_1_21)">
<rect x="0.5" y="0.5" width="249" height="379" rx="17.5" fill="#EDF0F7" stroke="#E8EAED"/>
<rect x="18" y="18" width="214" height="344" rx="14" fill="#509916"/>
<path d="M200.785 233.742C177.928 273.331 148.515 303.851 119.667 321.296C90.6454 338.847 63.3219 342.594 43.5074 331.154C23.6929 319.714 13.2765 294.178 13.9649 260.269C14.6492 226.563 26.3737 185.831 49.2302 146.242C72.0866 106.654 101.5 76.1337 130.347 58.6885C159.369 41.1377 186.693 37.3902 206.507 48.8301C226.322 60.27 236.738 85.8066 236.05 119.716C235.366 153.421 223.641 194.154 200.785 233.742Z" stroke="#F7F1F5" stroke-width="10"/>
<path d="M198.144 297V296H197.144H185.856H184.856V297V307.664H177.576H176.576V308.664V316.224V317.224H177.576H184.856V349.256V350.256H185.856H199.384H199.929L200.224 349.798L222.32 315.542L222.48 315.295V315V308.664V307.664H221.48H198.144V297ZM198.144 329.558H198.144V329.544V317.224H210.272L201.635 330.437L201.625 330.452L201.616 330.468L198.05 336.378L198.144 329.558Z" fill="black" stroke="black" stroke-width="2"/>
<path d="M196.144 299V298H195.144H185.856H184.856V299V309.664H177.576H176.576V310.664V318.224V319.224H177.576H184.856V349.256V350.256H185.856H198.384H198.925L199.221 349.803L220.317 317.547L220.48 317.298V317V310.664V309.664H219.48H196.144V299ZM196.144 331.558H196.144V331.544V319.224H208.272L199.635 332.437L199.625 332.452L199.616 332.468L196.05 338.378L196.144 331.558Z" fill="#ECF1F7" stroke="black" stroke-width="2"/>
<path d="M51.856 83V84H52.856H64.144H65.144V83V72.336H72.424H73.424V71.336V63.776V62.776H72.424H65.144V30.744V29.744H64.144H50.5H49.9535L49.6584 30.204L27.6783 64.46L27.52 64.7068V65V71.336V72.336H28.52H51.856V83ZM51.8561 50.4423L51.856 50.4423V50.456V62.776H39.7283L48.365 49.5631L48.3749 49.548L48.3843 49.5325L51.9495 43.6217L51.8561 50.4423Z" fill="black" stroke="black" stroke-width="2"/>
<path d="M53.856 81V82H54.856H64.144H65.144V81V70.336H72.424H73.424V69.336V61.776V60.776H72.424H65.144V30.744V29.744H64.144H51.616H51.0751L50.7791 30.1966L29.6831 62.4527L29.52 62.702V63V69.336V70.336H30.52H53.856V81ZM53.8561 48.4423L53.856 48.4423V48.456V60.776H41.7283L50.365 47.5631L50.3749 47.548L50.3843 47.5325L53.9495 41.6217L53.8561 48.4423Z" fill="#ECF1F7" stroke="black" stroke-width="2"/>
<path d="M128.41 236V239H131.41H157.34H160.34V236V211.46H176.89H179.89V208.46V190.61V187.61H176.89H156.419L158.339 113.418L158.419 110.34H155.34H125.76H124.127L123.24 111.712L71.4305 191.872L70.95 192.615V193.5V208.46V211.46H73.95H128.41V236ZM128.41 159.119L128.41 159.139V159.16V187.61H101.595L121.341 157.401L121.371 157.356L121.399 157.309L128.599 145.373L128.41 159.119Z" fill="black" stroke="black" stroke-width="6"/>
<path d="M132.41 232V235H135.41H157.34H160.34V232V207.46H176.89H179.89V204.46V186.61V183.61H176.89H160.34V113.34V110.34H157.34H127.76H126.137L125.249 111.698L75.4393 187.858L74.95 188.606V189.5V204.46V207.46H77.95H132.41V232ZM132.41 155.119L132.41 155.139V155.16V183.61H105.595L125.341 153.401L125.371 153.356L125.399 153.309L132.599 141.373L132.41 155.119Z" fill="#ECF1F7" stroke="black" stroke-width="6"/>
</g>
<defs>
<clipPath id="clip0_1_21">
<rect width="250" height="380" fill="white"/>
</clipPath>
</defs>
</svg>
