<svg width="250" height="380" viewBox="0 0 250 380" fill="none" xmlns="http://www.w3.org/2000/svg">
<g clip-path="url(#clip0_1_31)">
<rect x="0.5" y="0.5" width="249" height="379" rx="17.5" fill="#EDF0F7" stroke="#E8EAED"/>
<rect x="18" y="18" width="214" height="344" rx="14" fill="#E10007"/>
<path d="M200.785 233.742C177.928 273.331 148.515 303.851 119.667 321.296C90.6454 338.847 63.3219 342.594 43.5074 331.154C23.6929 319.714 13.2765 294.178 13.9649 260.269C14.6492 226.563 26.3737 185.831 49.2302 146.242C72.0866 106.654 101.5 76.1337 130.347 58.6885C159.369 41.1377 186.693 37.3902 206.507 48.8301C226.322 60.27 236.738 85.8066 236.05 119.716C235.366 153.421 223.641 194.154 200.785 233.742Z" stroke="#F7F1F5" stroke-width="10"/>
<path d="M210.4 297.11L210.39 297.105L210.38 297.101C207.632 295.828 204.459 295.208 200.888 295.208C196.963 295.208 193.465 295.979 190.421 297.552C187.371 299.127 184.996 301.399 183.315 304.353C181.631 307.314 180.808 310.779 180.808 314.712C180.808 318.253 181.531 321.376 183.017 324.045C184.443 326.74 186.44 328.844 189 330.331C191.524 331.874 194.418 332.632 197.648 332.632C199.803 332.632 201.883 332.195 203.88 331.325L203.88 331.325L203.888 331.321C204.928 330.856 205.897 330.301 206.794 329.657L205.296 338.696H182.544H181.544V339.696V349.256V350.256H182.544H213.56H214.428L214.55 349.397L218.87 319.029L219.032 317.888H217.88H208.528H207.993L207.696 318.333C207.381 318.805 207.147 319.209 206.942 319.562C206.419 320.464 206.083 321.042 205.072 321.62L205.063 321.625L205.053 321.631C203.53 322.545 201.884 323 200.096 323C197.652 323 195.772 322.205 194.352 320.659L194.352 320.659L194.343 320.649C192.916 319.138 192.168 317.143 192.168 314.568C192.168 312.483 192.553 310.722 193.286 309.255L193.292 309.245L193.297 309.234C193.987 307.767 194.961 306.676 196.218 305.922C197.474 305.168 199.017 304.768 200.888 304.768C203.091 304.768 204.843 305.357 206.217 306.475C206.757 306.955 207.287 307.999 207.708 309.365C208.118 310.691 208.369 312.134 208.46 313.197L208.537 314.112H209.456H218.456H219.521L219.454 313.049C219.355 311.487 219.096 309.519 218.676 307.645C218.261 305.796 217.667 303.933 216.851 302.654L216.844 302.643L216.837 302.633C215.245 300.271 213.091 298.43 210.4 297.11Z" fill="black" stroke="black" stroke-width="2"/>
<path d="M208.4 299.11L208.39 299.105L208.38 299.101C205.632 297.828 202.459 297.208 198.888 297.208C194.963 297.208 191.465 297.979 188.421 299.552C185.371 301.127 182.996 303.399 181.315 306.353C179.631 309.314 178.808 312.779 178.808 316.712C178.808 320.253 179.531 323.376 181.017 326.045C182.443 328.74 184.44 330.844 187 332.331C189.524 333.874 192.418 334.632 195.648 334.632C197.803 334.632 199.883 334.195 201.88 333.325L201.88 333.325L201.888 333.321C202.928 332.856 203.897 332.301 204.794 331.657L203.296 340.696H182.544H181.544V341.696V349.256V350.256H182.544H211.56H212.419L212.549 349.407L216.869 321.039L217.044 319.888H215.88H207.528H206.993L206.696 320.333C205.832 321.63 204.633 322.728 203.072 323.62L203.063 323.625L203.053 323.631C201.53 324.545 199.884 325 198.096 325C195.652 325 193.772 324.205 192.352 322.659L192.352 322.659L192.343 322.649C190.916 321.138 190.168 319.143 190.168 316.568C190.168 314.483 190.553 312.722 191.286 311.255L191.292 311.245L191.297 311.234C191.987 309.767 192.961 308.676 194.218 307.922C195.474 307.168 197.017 306.768 198.888 306.768C201.092 306.768 202.844 307.357 204.218 308.475C205.529 309.629 206.287 311.174 206.46 313.197L206.537 314.112H207.456H216.456H217.521L217.454 313.049C217.253 309.878 216.393 307.071 214.851 304.654L214.844 304.643L214.837 304.633C213.245 302.271 211.091 300.43 208.4 299.11Z" fill="#ECF1F7" stroke="black" stroke-width="2"/>
<path d="M39.5996 82.8898L39.6097 82.8947L39.6199 82.8995C42.3682 84.1719 45.5408 84.792 49.112 84.792C53.0366 84.792 56.5349 84.0213 59.579 82.4484C62.6288 80.8727 65.0042 78.6009 66.6852 75.6465C68.3695 72.6862 69.192 69.2214 69.192 65.288C69.192 61.7467 68.4689 58.6239 66.9829 55.9549C65.557 53.2599 63.5604 51.1565 61 49.669C58.4758 48.1262 55.5824 47.368 52.352 47.368C50.1967 47.368 48.1168 47.8051 46.1204 48.6753L46.1204 48.6753L46.1116 48.6792C45.0716 49.1444 44.1026 49.6992 43.206 50.3434L44.7039 41.304H67.456H68.456V40.304V30.744V29.744H67.456H36.44H35.5722L35.45 30.6032L31.13 60.9712L30.9677 62.112H32.12H41.472H42.0072L42.3041 61.6667C42.6188 61.1946 42.8528 60.7915 43.058 60.4381C43.5815 59.5364 43.9173 58.9579 44.9281 58.3802L44.9374 58.375L44.9465 58.3695C46.4704 57.4552 48.1164 57 49.904 57C52.3477 57 54.2278 57.7955 55.6477 59.3406L55.6476 59.3407L55.657 59.3506C57.084 60.8616 57.832 62.8566 57.832 65.432C57.832 67.517 57.4471 69.2778 56.7136 70.7448L56.7083 70.7554L56.7032 70.7662C56.0131 72.2327 55.0387 73.3242 53.7815 74.0785C52.5255 74.8321 50.9833 75.232 49.112 75.232C46.9085 75.232 45.1565 74.6434 43.7831 73.5253C43.2434 73.045 42.7131 72.0014 42.2915 70.6351C41.8823 69.3089 41.6308 67.8658 41.5404 66.8032L41.4625 65.888H40.544H31.544H30.4785L30.546 66.9514C30.6451 68.5127 30.9041 70.4808 31.3242 72.3547C31.7387 74.2037 32.3327 76.0671 33.1491 77.346L33.1558 77.3565L33.1627 77.3669C34.7548 79.7292 36.909 81.5699 39.5996 82.8898Z" fill="black" stroke="black" stroke-width="2"/>
<path d="M41.5996 80.8898L41.6097 80.8947L41.6199 80.8995C44.3682 82.1719 47.5408 82.792 51.112 82.792C55.0366 82.792 58.5349 82.0213 61.579 80.4484C64.6288 78.8727 67.0042 76.6009 68.6852 73.6465C70.3695 70.6862 71.192 67.2214 71.192 63.288C71.192 59.7467 70.4689 56.6239 68.9829 53.9549C67.557 51.2599 65.5604 49.1565 63 47.669C60.4758 46.1262 57.5824 45.368 54.352 45.368C52.1967 45.368 50.1168 45.8051 48.1204 46.6753L48.1204 46.6753L48.1116 46.6792C47.0716 47.1444 46.1026 47.6992 45.206 48.3434L46.7039 39.304H67.456H68.456V38.304V30.744V29.744H67.456H38.44H37.5808L37.4514 30.5935L33.1314 58.9615L32.9562 60.112H34.12H42.472H43.0072L43.3041 59.6667C44.1682 58.3704 45.3669 57.2724 46.9281 56.3802L46.9374 56.375L46.9465 56.3695C48.4704 55.4552 50.1164 55 51.904 55C54.3477 55 56.2278 55.7955 57.6477 57.3406L57.6476 57.3407L57.657 57.3506C59.084 58.8616 59.832 60.8566 59.832 63.432C59.832 65.517 59.4471 67.2778 58.7136 68.7448L58.7083 68.7554L58.7032 68.7662C58.0131 70.2327 57.0387 71.3242 55.7815 72.0785C54.5255 72.8321 52.9833 73.232 51.112 73.232C48.908 73.232 47.1557 72.6431 45.7821 71.5245C44.4706 70.3714 43.7125 68.8256 43.5404 66.8032L43.4625 65.888H42.544H33.544H32.4785L32.546 66.9514C32.7473 70.1215 33.6066 72.9295 35.1491 75.346L35.1558 75.3565L35.1627 75.3669C36.7548 77.7292 38.909 79.5699 41.5996 80.8898Z" fill="#ECF1F7" stroke="black" stroke-width="2"/>
<path d="M104.829 236.313L104.859 236.328L104.89 236.342C111.479 239.393 119.064 240.87 127.57 240.87C136.921 240.87 145.285 239.033 152.577 235.265C159.886 231.489 165.587 226.038 169.618 218.954C173.658 211.851 175.62 203.558 175.62 194.18C175.62 185.733 173.895 178.251 170.327 171.839C166.907 165.379 162.114 160.326 155.966 156.753C149.896 153.045 142.948 151.23 135.22 151.23C130.042 151.23 125.044 152.281 120.251 154.37L120.238 154.376L120.225 154.382C118.206 155.285 116.297 156.329 114.501 157.515L117.704 138.19H170.16H173.16V135.19V113.34V110.34H170.16H97.65H95.0503L94.6805 112.913L84.4805 183.893L83.9881 187.32H87.45H109.17H110.776L111.666 185.984C112.233 185.134 112.704 184.379 113.129 183.699C114.625 181.301 115.539 179.836 118.008 178.425L118.036 178.409L118.064 178.392C121.562 176.294 125.335 175.25 129.44 175.25C135.054 175.25 139.314 177.069 142.531 180.57L142.545 180.585L142.559 180.6C145.797 184.029 147.52 188.572 147.52 194.52C147.52 199.364 146.626 203.42 144.947 206.778L144.931 206.81L144.916 206.843C144.324 208.099 143.367 209.042 141.992 209.961C141.293 210.429 140.525 210.865 139.662 211.34C139.506 211.425 139.346 211.513 139.182 211.602C138.473 211.989 137.699 212.412 136.957 212.858C136.098 213.373 135.344 213.86 134.651 214.308C132.149 215.924 130.452 217.02 127.57 217.02C122.494 217.02 118.51 215.669 115.402 213.142C114.231 212.096 113.033 209.905 112.062 206.932C111.119 204.043 110.538 200.877 110.329 198.426L110.096 195.68H107.34H86.09H82.8935L83.0961 198.87C83.3327 202.597 83.9506 207.106 84.9539 211.394C85.9436 215.623 87.3684 219.903 89.3413 222.994L89.3614 223.026L89.3822 223.057C93.2077 228.733 98.3824 233.151 104.829 236.313Z" fill="black" stroke="black" stroke-width="6"/>
<path d="M108.829 232.313L108.859 232.328L108.89 232.342C115.479 235.393 123.064 236.87 131.57 236.87C140.921 236.87 149.285 235.033 156.577 231.265C163.886 227.489 169.587 222.038 173.618 214.954C177.658 207.851 179.62 199.558 179.62 190.18C179.62 181.733 177.895 174.251 174.327 167.839C170.907 161.379 166.114 156.326 159.966 152.753C153.896 149.045 146.948 147.23 139.22 147.23C134.042 147.23 129.044 148.281 124.251 150.37L124.238 150.376L124.225 150.382C122.206 151.285 120.297 152.329 118.501 153.515L121.704 134.19H170.16H173.16V131.19V113.34V110.34H170.16H101.65H99.0723L98.6842 112.888L88.4842 179.868L87.9586 183.32H91.45H111.17H112.776L113.666 181.984C115.645 179.015 118.398 176.488 122.008 174.425L122.036 174.409L122.064 174.392C125.562 172.294 129.335 171.25 133.44 171.25C139.054 171.25 143.314 173.069 146.531 176.57L146.545 176.585L146.559 176.6C149.797 180.029 151.52 184.572 151.52 190.52C151.52 195.364 150.626 199.42 148.947 202.778L148.931 202.81L148.916 202.843C147.336 206.2 145.118 208.677 142.267 210.388C139.418 212.096 135.896 213.02 131.57 213.02C126.492 213.02 122.507 211.668 119.398 209.14C116.445 206.539 114.723 203.051 114.329 198.426L114.096 195.68H111.34H90.09H86.8935L87.0961 198.87C87.5772 206.449 89.6339 213.186 93.3413 218.994L93.3614 219.026L93.3822 219.057C97.2077 224.733 102.382 229.151 108.829 232.313Z" fill="#ECF1F7" stroke="black" stroke-width="6"/>
</g>
<defs>
<clipPath id="clip0_1_31">
<rect width="250" height="380" fill="white"/>
</clipPath>
</defs>
</svg>
