<svg width="62" height="93" viewBox="0 0 62 93" fill="none" xmlns="http://www.w3.org/2000/svg">
<rect width="61.18" height="93" rx="4" fill="white"/>
<rect x="4" y="4" width="53" height="85" rx="3.56989" fill="#FFF533"/>
<path d="M50.1712 12.2457C55.1568 15.1241 57.7467 21.4823 57.61 29.7998C57.4739 38.0786 54.6218 48.0558 49.0349 57.7326C43.448 67.4094 36.2335 74.868 29.1319 79.1253C21.9971 83.4025 15.1958 84.3386 10.2102 81.4601C5.22468 78.5817 2.63473 72.2236 2.77147 63.9061C2.90758 55.6273 5.75963 45.65 11.3465 35.9732C16.9334 26.2964 24.1479 18.8379 31.2495 14.5806C38.3844 10.3034 45.1856 9.36731 50.1712 12.2457Z" fill="#FFF533" stroke="white" stroke-width="2"/>
<path d="M23.627 59C24.4473 54.6406 25.8008 50.7793 27.6875 47.416C29.5859 44.0527 31.7949 41.3281 34.3145 39.2422H20.252V33.6875H40.7656V38.3809C39.3242 40.1855 38.0762 41.873 37.0215 43.4434C35.9785 45.002 35.0879 46.5605 34.3496 48.1191C33.6113 49.6777 32.9727 51.3359 32.4336 53.0938C31.9062 54.8516 31.4316 56.8203 31.0098 59H23.627Z" fill="black"/>
<path d="M26.0625 57.1C26.8333 53.225 28.0312 49.7354 29.6562 46.6313C31.2917 43.5271 33.25 40.7927 35.5312 38.4281H23.0312V34.6H39.9688V37.8656C38.7812 39.4594 37.7188 41.001 36.7812 42.4906C35.8438 43.9802 35.0208 45.4802 34.3125 46.9906C33.6042 48.4906 32.9948 50.0688 32.4844 51.725C31.974 53.3708 31.5417 55.1625 31.1875 57.1H26.0625Z" fill="white"/>
<path d="M7.54232 15.3C7.81576 13.8469 8.26693 12.5598 8.89583 11.4387C9.52865 10.3176 10.265 9.40938 11.1048 8.71407H6.41732V6.8625H13.2552V8.42696C12.7747 9.02852 12.3587 9.59102 12.0072 10.1145C11.6595 10.634 11.3626 11.1535 11.1165 11.673C10.8704 12.1926 10.6576 12.7453 10.4779 13.3313C10.3021 13.9172 10.1439 14.5734 10.0033 15.3H7.54232Z" fill="black"/>
<path d="M8.35421 15C8.61115 13.7083 9.01046 12.5451 9.55212 11.5104C10.0973 10.4757 10.75 9.56424 11.5105 8.77604H7.34379V7.5H12.9896V8.58854C12.5938 9.11979 12.2396 9.63368 11.9271 10.1302C11.6146 10.6267 11.3403 11.1267 11.1042 11.6302C10.8681 12.1302 10.665 12.6562 10.4948 13.2083C10.3247 13.7569 10.1806 14.3542 10.0625 15H8.35421Z" fill="white"/>
<path d="M53.4577 77.3333C53.1842 78.7865 52.7331 80.0736 52.1042 81.1947C51.4714 82.3158 50.735 83.224 49.8952 83.9193H54.5827V85.7708H47.7448V84.2064C48.2253 83.6048 48.6413 83.0423 48.9928 82.5189C49.3405 81.9994 49.6374 81.4798 49.8835 80.9603C50.1296 80.4408 50.3424 79.888 50.5221 79.3021C50.6979 78.7162 50.8561 78.0599 50.9967 77.3333H53.4577Z" fill="black"/>
<path d="M52.6458 77.6333C52.3888 78.925 51.9895 80.0882 51.4479 81.1229C50.9027 82.1576 50.25 83.0691 49.4895 83.8573H53.6562V85.1333H48.0104V84.0448C48.4062 83.5135 48.7604 82.9997 49.0729 82.5031C49.3854 82.0066 49.6597 81.5066 49.8958 81.0031C50.1319 80.5031 50.335 79.9771 50.5052 79.425C50.6753 78.8764 50.8194 78.2792 50.9375 77.6333H52.6458Z" fill="white"/>
</svg>
