<svg width="250" height="380" viewBox="0 0 250 380" fill="none" xmlns="http://www.w3.org/2000/svg">
<g clip-path="url(#clip0_1_20)">
<rect x="0.5" y="0.5" width="249" height="379" rx="17.5" fill="#EDF0F7" stroke="#E8EAED"/>
<rect x="18" y="18" width="214" height="344" rx="14" fill="#0074D3"/>
<path d="M200.785 233.742C177.928 273.331 148.515 303.851 119.667 321.296C90.6454 338.847 63.3219 342.594 43.5074 331.154C23.6929 319.714 13.2765 294.178 13.9649 260.269C14.6492 226.563 26.3737 185.831 49.2302 146.242C72.0866 106.654 101.5 76.1337 130.347 58.6885C159.369 41.1377 186.693 37.3902 206.507 48.8301C226.322 60.27 236.738 85.8066 236.05 119.716C235.366 153.421 223.641 194.154 200.785 233.742Z" stroke="#F7F1F5" stroke-width="10"/>
<path d="M210.185 297.255L210.176 297.25L210.167 297.246C207.143 295.835 203.829 295.136 200.24 295.136C196.336 295.136 192.897 295.803 189.954 297.173C187.025 298.537 184.737 300.427 183.133 302.857L183.133 302.857L183.128 302.865C181.527 305.345 180.736 308.177 180.736 311.328C180.736 313.539 181.225 315.572 182.217 317.406C183.153 319.272 184.48 320.808 186.19 322.002C187.136 322.71 188.178 323.28 189.31 323.715C188.586 324.138 187.906 324.629 187.272 325.189C185.871 326.384 184.778 327.817 183.999 329.48C183.213 331.155 182.824 332.956 182.824 334.872C182.824 337.739 183.569 340.272 185.091 342.427C186.554 344.566 188.627 346.21 191.264 347.377C193.867 348.55 196.892 349.12 200.312 349.12C203.612 349.12 207.445 348.762 210.388 347.368C213.4 345.941 215.068 343.557 216.696 341.115C218.451 338.483 219.377 335.27 219.527 331.528L219.569 330.488H218.528H207.456H206.473L206.456 331.471C206.443 332.259 206.513 332.989 206.591 333.641C206.616 333.851 206.642 334.046 206.665 334.232C206.719 334.649 206.766 335.016 206.793 335.376C206.865 336.374 206.737 336.926 206.251 337.384L206.245 337.389L206.24 337.394C204.828 338.765 202.935 339.488 200.456 339.488C198.48 339.488 196.976 338.965 195.851 338.001L195.844 337.995L195.838 337.99C194.704 337.051 194.112 335.765 194.112 334.008C194.112 332.909 194.414 331.867 195.04 330.866L195.04 330.866L195.046 330.856C195.231 330.552 195.432 330.418 195.801 330.272C195.89 330.237 196.012 330.195 196.156 330.146C196.546 330.012 197.097 329.823 197.604 329.56C197.979 329.365 198.437 329.333 199.162 329.41C199.341 329.429 199.546 329.457 199.769 329.488C200.353 329.567 201.061 329.664 201.752 329.664H204.488H205.488V328.664V319.176V318.176H204.488H201.896C199.975 318.176 198.266 317.902 196.757 317.369L196.744 317.365L196.732 317.361C195.253 316.882 194.127 316.139 193.304 315.152L193.297 315.144L193.291 315.136C192.521 314.251 192.096 313.061 192.096 311.472C192.096 309.504 192.811 307.938 194.26 306.693C195.719 305.487 197.68 304.84 200.24 304.84C202.012 304.84 203.544 305.215 204.865 305.937C206.134 306.658 207.128 307.67 207.856 308.995C208.174 309.598 208.462 310.77 208.665 312.149C208.862 313.495 208.96 314.894 208.96 315.848V316.848H209.96H218.96H219.947L219.96 315.861C219.985 313.896 219.786 311.576 219.366 309.402C218.949 307.249 218.296 305.14 217.356 303.663C215.576 300.867 213.18 298.727 210.185 297.255Z" fill="black" stroke="black" stroke-width="2"/>
<path d="M208.185 299.255L208.176 299.25L208.167 299.246C205.143 297.835 201.829 297.136 198.24 297.136C194.484 297.136 191.095 297.189 188.078 298.593C185.076 299.991 182.688 302.5 181.133 304.857L181.133 304.857L181.128 304.865C179.527 307.345 178.736 310.177 178.736 313.328C178.736 315.539 179.225 317.572 180.217 319.406C181.153 321.272 182.48 322.808 184.19 324.002C185.136 324.71 186.178 325.28 187.31 325.715C186.586 326.138 185.906 326.629 185.272 327.189C183.871 328.384 182.778 329.817 181.999 331.48C181.213 333.155 180.824 334.956 180.824 336.872C180.824 339.739 181.569 342.272 183.091 344.427C184.554 346.566 186.627 348.21 189.264 349.377C191.867 350.55 194.892 351.12 198.312 351.12C201.712 351.12 204.86 350.444 207.74 349.08C210.635 347.708 212.96 345.718 214.696 343.115C216.451 340.483 217.377 337.27 217.527 333.528L217.569 332.488H216.528H207.456H206.473L206.456 333.471C206.411 336.162 205.634 338.082 204.251 339.384L204.245 339.389L204.24 339.394C202.828 340.765 200.935 341.488 198.456 341.488C196.48 341.488 194.976 340.965 193.851 340.001L193.844 339.995L193.838 339.99C192.704 339.051 192.112 337.765 192.112 336.008C192.112 334.909 192.414 333.867 193.04 332.866L193.04 332.866L193.046 332.856C193.611 331.928 194.449 331.159 195.604 330.56C196.73 329.976 198.102 329.664 199.752 329.664H202.488H203.488V328.664V321.176V320.176H202.488H199.896C197.975 320.176 196.266 319.902 194.757 319.369L194.744 319.365L194.732 319.361C193.253 318.882 192.127 318.139 191.304 317.152L191.297 317.144L191.291 317.136C190.521 316.251 190.096 315.061 190.096 313.472C190.096 311.504 190.811 309.938 192.26 308.693C193.719 307.487 195.68 306.84 198.24 306.84C200.012 306.84 201.544 307.215 202.865 307.937C204.134 308.658 205.128 309.67 205.856 310.995C206.582 312.364 206.96 313.972 206.96 315.848V316.848H207.96H216.96H217.947L217.96 315.861C218.01 311.916 217.16 308.499 215.356 305.663C213.576 302.867 211.18 300.727 208.185 299.255Z" fill="#ECF1F7" stroke="black" stroke-width="2"/>
<path d="M39.8149 82.7454L39.824 82.7499L39.8331 82.7542C42.8568 84.1652 46.1708 84.864 49.76 84.864C53.6644 84.864 57.1026 84.1968 60.046 82.8266C62.9202 81.4886 65.7061 79.5198 67.3348 77.0506L67.3348 77.0506L67.34 77.0425C68.9912 74.4858 69.264 71.6917 69.264 68.672C69.264 66.461 68.7753 64.4279 67.7829 62.5938C66.8473 60.7285 65.5197 59.1925 63.81 57.9975C62.8638 57.2899 61.8225 56.7199 60.6905 56.2847C61.4142 55.8624 62.0936 55.3712 62.7276 54.8112C64.1285 53.6161 65.2219 52.1834 66.0015 50.5204C66.7867 48.8454 67.176 47.0436 67.176 45.128C67.176 42.261 66.431 39.7279 64.9091 37.5732C63.4464 35.4343 61.3725 33.7897 58.7358 32.6229C56.1328 31.4497 53.1081 30.88 49.688 30.88C49.1491 30.88 48.5951 30.8693 48.0375 30.8586C46.9929 30.8385 45.9355 30.8181 44.9407 30.8672C43.3702 30.9447 41.7915 31.1948 40.2599 31.9203C37.2471 33.3474 34.9311 36.4445 33.304 38.8853C31.5493 41.5173 30.6225 44.7296 30.4728 48.472L30.4312 49.512H31.472H42.544H43.5275L43.5439 48.5287C43.557 47.7414 43.4873 47.0111 43.4088 46.3586C43.3837 46.1495 43.3585 45.9539 43.3346 45.7682C43.2808 45.3514 43.2335 44.9841 43.2074 44.6237C43.1351 43.6256 43.2631 43.0738 43.7494 42.6162L43.755 42.6109L43.7605 42.6056C45.1724 41.2351 47.0654 40.512 49.544 40.512C51.52 40.512 53.0241 41.0349 54.1492 41.9993L54.1558 42.0049L54.1624 42.0104C55.2965 42.9489 55.888 44.235 55.888 45.992C55.888 47.0913 55.5857 48.1329 54.96 49.134L54.9599 49.134L54.9538 49.1441C54.7689 49.4478 54.5681 49.5822 54.1992 49.7277C54.1101 49.7628 53.988 49.8048 53.8435 49.8544C53.4543 49.988 52.9028 50.1773 52.3957 50.4402C52.0208 50.6346 51.5633 50.6671 50.8382 50.5896C50.6594 50.5706 50.4543 50.5426 50.2309 50.5122C49.6472 50.4326 48.9386 50.336 48.248 50.336H45.512H44.512V51.336V60.824V61.824H45.512H48.104C50.0249 61.824 51.7341 62.0984 53.2432 62.631L53.2556 62.6354L53.2682 62.6394C54.7469 63.1178 55.8734 63.8614 56.6958 64.8482L56.7025 64.8563L56.7094 64.8642C57.479 65.7493 57.904 66.9393 57.904 68.528C57.904 70.4958 57.1887 72.0624 55.7396 73.3073C54.2814 74.5126 52.32 75.16 49.76 75.16C47.9884 75.16 46.4557 74.7854 45.135 74.0625C43.8658 73.3419 42.8721 72.3299 42.1445 71.0058C42.016 70.7609 41.8605 70.2431 41.7087 69.4913C41.5627 68.7682 41.4388 67.9293 41.3383 67.1224C41.2382 66.318 41.1628 65.5585 41.1125 64.9983C41.0874 64.7185 41.0685 64.4893 41.0561 64.3302C41.0498 64.2507 41.0452 64.1888 41.0421 64.1471L41.04 64.1176V63.152H40.04H31.04H30.0526L30.0401 64.1393C30.0152 66.1044 30.2135 68.4243 30.6342 70.598C31.0509 72.7508 31.7043 74.8597 32.6443 76.3369C34.4238 79.1331 36.8196 81.2732 39.8149 82.7454ZM41.0376 64.0819C41.0376 64.0823 41.0378 64.0857 41.0381 64.0911C41.0377 64.0841 41.0375 64.0814 41.0376 64.0819Z" fill="black" stroke="black" stroke-width="2"/>
<path d="M41.8149 80.7454L41.824 80.7499L41.8331 80.7542C44.8568 82.1652 48.1708 82.864 51.76 82.864C55.6644 82.864 59.1026 82.1968 62.046 80.8266C64.9745 79.4633 67.2635 77.5734 68.8668 75.1426L68.8668 75.1426L68.872 75.1345C70.4733 72.6551 71.264 69.8234 71.264 66.672C71.264 64.461 70.7753 62.4279 69.7829 60.5938C68.8473 58.7285 67.5197 57.1925 65.81 55.9975C64.8638 55.2899 63.8225 54.7199 62.6905 54.2847C63.4142 53.8624 64.0936 53.3712 64.7276 52.8112C66.1285 51.6161 67.2219 50.1834 68.0015 48.5204C68.7867 46.8454 69.176 45.0436 69.176 43.128C69.176 40.261 68.431 37.7279 66.9091 35.5732C65.4464 33.4343 63.3725 31.7897 60.7358 30.6229C58.1328 29.4497 55.1081 28.88 51.688 28.88C48.2877 28.88 45.14 29.556 42.2599 30.9203C39.3651 32.2915 37.0395 34.282 35.3039 36.8853C33.5493 39.5173 32.6225 42.7296 32.4728 46.472L32.4312 47.512H33.472H42.544H43.5275L43.5439 46.5287C43.5887 43.8377 44.3659 41.9182 45.7494 40.6162L45.755 40.6109L45.7605 40.6056C47.1724 39.2351 49.0654 38.512 51.544 38.512C53.52 38.512 55.0241 39.0348 56.1492 39.9993L56.1558 40.0049L56.1624 40.0104C57.2965 40.9489 57.888 42.235 57.888 43.992C57.888 45.0913 57.5857 46.1329 56.96 47.134L56.9599 47.134L56.9538 47.1441C56.3888 48.0722 55.5508 48.8413 54.3957 49.4402C53.2695 50.0242 51.8981 50.336 50.248 50.336H47.512H46.512V51.336V58.824V59.824H47.512H50.104C52.0249 59.824 53.7341 60.0984 55.2432 60.631L55.2556 60.6354L55.2682 60.6394C56.7469 61.1178 57.8734 61.8614 58.6958 62.8482L58.7025 62.8563L58.7094 62.8642C59.479 63.7493 59.904 64.9393 59.904 66.528C59.904 68.4958 59.1887 70.0624 57.7396 71.3073C56.2814 72.5126 54.32 73.16 51.76 73.16C49.9884 73.16 48.4557 72.7854 47.135 72.0625C45.8656 71.3418 44.8717 70.3295 44.144 69.005C43.4182 67.6362 43.04 66.0279 43.04 64.152V63.152H42.04H33.04H32.0526L32.0401 64.1393C31.9901 68.0842 32.8396 71.5009 34.6443 74.3369C36.4238 77.1331 38.8196 79.2732 41.8149 80.7454Z" fill="#ECF1F7" stroke="black" stroke-width="2"/>
<path d="M103.337 235.972L103.364 235.986L103.391 235.999C110.622 239.373 118.54 241.04 127.1 241.04C136.39 241.04 144.604 239.452 151.656 236.17C158.663 232.908 164.165 228.373 168.024 222.522L168.032 222.51L168.04 222.498C171.893 216.531 173.79 209.723 173.79 202.17C173.79 196.856 172.615 191.952 170.221 187.523C167.966 183.031 164.765 179.328 160.648 176.449C158.701 174.993 156.589 173.781 154.321 172.807C155.66 171.95 156.932 170.989 158.137 169.926C161.511 167.046 164.148 163.591 166.026 159.583C167.922 155.539 168.86 151.192 168.86 146.58C168.86 139.696 167.07 133.584 163.393 128.378C159.864 123.218 154.869 119.266 148.553 116.471C142.309 113.657 135.074 112.3 126.93 112.3C118.814 112.3 111.288 113.914 104.396 117.179C97.4593 120.464 91.8778 125.24 87.7139 131.486C83.4925 137.818 81.2795 145.523 80.9224 154.45L80.7976 157.57H83.92H109.34H112.29L112.34 154.62C112.37 152.774 112.256 151.057 112.142 149.543C112.128 149.348 112.113 149.159 112.099 148.973C111.999 147.667 111.916 146.572 111.912 145.55C111.905 143.311 112.294 142.105 113.346 141.115L113.363 141.099L113.379 141.083C116.573 137.983 120.872 136.32 126.59 136.32C131.138 136.32 134.531 137.521 137.048 139.678L137.067 139.695L137.087 139.711C139.6 141.791 140.93 144.637 140.93 148.62C140.93 151.09 140.253 153.433 138.836 155.7L138.827 155.715L138.817 155.73C137.552 157.809 135.666 159.549 133.029 160.917C130.479 162.239 127.346 162.96 123.53 162.96H117.07H114.07V165.96V183.64V186.64H117.07H123.19C127.665 186.64 131.627 187.279 135.112 188.509L135.149 188.522L135.187 188.534C138.58 189.632 141.132 191.326 142.985 193.551L143.006 193.575L143.026 193.599C144.722 195.549 145.69 198.198 145.69 201.83C145.69 206.292 144.081 209.811 140.807 212.626C137.506 215.353 133.032 216.85 127.1 216.85C123.012 216.85 119.503 215.987 116.491 214.34C113.603 212.699 111.342 210.398 109.681 207.376C108.972 206.032 108.309 203.512 107.837 200.474C107.377 197.517 107.15 194.433 107.15 192.22V189.22H104.15H82.9H79.9377L79.9002 192.182C79.8409 196.869 80.3136 202.216 81.3187 207.221C82.3139 212.176 83.8799 217.045 86.149 220.611C90.4139 227.313 96.1602 232.445 103.337 235.972Z" fill="black" stroke="black" stroke-width="6"/>
<path d="M107.337 231.972L107.364 231.986L107.391 231.999C114.622 235.373 122.54 237.04 131.1 237.04C140.39 237.04 148.604 235.452 155.656 232.17C162.663 228.908 168.165 224.373 172.024 218.522L172.032 218.51L172.04 218.498C175.893 212.531 177.79 205.723 177.79 198.17C177.79 192.856 176.615 187.952 174.221 183.523C171.966 179.031 168.765 175.328 164.648 172.449C162.701 170.993 160.589 169.781 158.321 168.807C159.66 167.95 160.932 166.989 162.137 165.926C165.511 163.046 168.148 159.591 170.026 155.583C171.922 151.539 172.86 147.192 172.86 142.58C172.86 135.696 171.07 129.584 167.393 124.378C163.864 119.218 158.869 115.266 152.553 112.471C146.309 109.657 139.074 108.3 130.93 108.3C122.814 108.3 115.288 109.914 108.396 113.179C101.459 116.464 95.8778 121.24 91.7139 127.486C87.4925 133.818 85.2795 141.523 84.9224 150.45L84.7976 153.57H87.92H109.34H112.29L112.34 150.62C112.443 144.387 114.238 140.039 117.346 137.115L117.363 137.099L117.379 137.083C120.573 133.983 124.872 132.32 130.59 132.32C135.138 132.32 138.531 133.521 141.048 135.678L141.067 135.695L141.087 135.711C143.6 137.791 144.93 140.637 144.93 144.62C144.93 147.09 144.253 149.433 142.836 151.7L142.827 151.715L142.817 151.73C141.552 153.809 139.666 155.549 137.029 156.917C134.479 158.239 131.346 158.96 127.53 158.96H121.07H118.07V161.96V179.64V182.64H121.07H127.19C131.665 182.64 135.627 183.279 139.112 184.509L139.149 184.522L139.187 184.534C142.58 185.632 145.132 187.326 146.985 189.551L147.006 189.575L147.026 189.599C148.722 191.549 149.69 194.198 149.69 197.83C149.69 202.292 148.081 205.811 144.807 208.626C141.506 211.353 137.032 212.85 131.1 212.85C127.012 212.85 123.503 211.987 120.491 210.34C117.603 208.699 115.342 206.398 113.68 203.375C112.024 200.25 111.15 196.56 111.15 192.22V189.22H108.15H86.9H83.9377L83.9002 192.182C83.7811 201.594 85.8082 209.789 90.149 216.611C94.4139 223.313 100.16 228.445 107.337 231.972Z" fill="#ECF1F7" stroke="black" stroke-width="6"/>
</g>
<defs>
<clipPath id="clip0_1_20">
<rect width="250" height="380" fill="white"/>
</clipPath>
</defs>
</svg>
