<svg width="62" height="93" viewBox="0 0 62 93" fill="none" xmlns="http://www.w3.org/2000/svg">
<rect width="61.18" height="93" rx="4" fill="white"/>
<rect x="4" y="4" width="53" height="85" rx="3.56989" fill="#FFF533"/>
<path d="M50.1712 12.2457C55.1568 15.1241 57.7467 21.4823 57.61 29.7998C57.4739 38.0786 54.6218 48.0558 49.0349 57.7326C43.448 67.4094 36.2335 74.868 29.1319 79.1253C21.9971 83.4025 15.1958 84.3386 10.2102 81.4601C5.22468 78.5817 2.63473 72.2236 2.77147 63.9061C2.90758 55.6273 5.75963 45.65 11.3465 35.9732C16.9334 26.2964 24.1479 18.8379 31.2495 14.5806C38.3844 10.3034 45.1856 9.36731 50.1712 12.2457Z" fill="#FFF533" stroke="white" stroke-width="2"/>
<path d="M30.8516 59.4922C27.418 59.4922 24.7695 58.4141 22.9062 56.2578C21.0547 54.0898 20.1289 51.0137 20.1289 47.0293C20.1289 45.4121 20.3047 43.7891 20.6562 42.1602C21.0078 40.5312 21.5938 39.043 22.4141 37.6953C23.2344 36.3359 24.3477 35.2461 25.7539 34.4258C27.1602 33.6055 28.918 33.1953 31.0273 33.1953C32.8789 33.1953 34.4844 33.5117 35.8438 34.1445C37.2148 34.7656 38.3105 35.5801 39.1309 36.5879C39.9629 37.584 40.4961 38.6562 40.7305 39.8047L34.209 41.5273C34.1504 40.5898 33.8457 39.8398 33.2949 39.2773C32.7559 38.7031 32.0176 38.416 31.0801 38.416C30.3066 38.416 29.6738 38.6035 29.1816 38.9785C28.6895 39.3418 28.3027 39.8223 28.0215 40.4199C27.752 41.0176 27.5527 41.6738 27.4238 42.3887C27.3066 43.1035 27.2305 43.8125 27.1953 44.5156C27.1719 45.2188 27.1602 45.8516 27.1602 46.4141L26.1582 46.0449C26.8145 45.002 27.6582 44.1758 28.6895 43.5664C29.7207 42.9453 31.0801 42.6348 32.7676 42.6348C34.6777 42.6348 36.2363 43.0098 37.4434 43.7598C38.6621 44.5098 39.5586 45.4941 40.1328 46.7129C40.707 47.9199 40.9941 49.2266 40.9941 50.6328C40.9941 52.4375 40.5664 54.002 39.7109 55.3262C38.8555 56.6504 37.666 57.6758 36.1426 58.4023C34.6309 59.1289 32.8672 59.4922 30.8516 59.4922ZM30.7988 54.2715C31.7715 54.2715 32.5156 53.9609 33.0312 53.3398C33.5469 52.7188 33.8047 51.9277 33.8047 50.9668C33.8047 49.959 33.5352 49.168 32.9961 48.5938C32.4688 48.0195 31.7363 47.7324 30.7988 47.7324C29.8379 47.7324 29.0938 48.0371 28.5664 48.6465C28.0391 49.2441 27.7754 50.0293 27.7754 51.002C27.7754 51.998 28.0449 52.7949 28.584 53.3926C29.1348 53.9785 29.873 54.2715 30.7988 54.2715Z" fill="black"/>
<path d="M31.8281 57.5063C28.9115 57.5063 26.6771 56.5323 25.125 54.5844C23.5833 52.626 22.8125 49.8969 22.8125 46.3969C22.8125 44.8448 22.974 43.3448 23.2969 41.8969C23.6302 40.4385 24.1562 39.1313 24.875 37.975C25.5938 36.8188 26.5365 35.9021 27.7031 35.225C28.8698 34.5375 30.2969 34.1938 31.9844 34.1938C33.5573 34.1938 34.9219 34.4854 36.0781 35.0688C37.2344 35.6417 38.1562 36.3813 38.8438 37.2875C39.5312 38.1833 39.9531 39.126 40.1094 40.1156L35.6094 41.3031C35.5573 40.2406 35.2135 39.3865 34.5781 38.7406C33.9531 38.0948 33.1042 37.7719 32.0312 37.7719C31.1771 37.7719 30.474 37.9646 29.9219 38.35C29.3698 38.7354 28.9323 39.2458 28.6094 39.8813C28.2865 40.5063 28.0469 41.1938 27.8906 41.9438C27.7344 42.6833 27.6354 43.4229 27.5938 44.1625C27.5521 44.9021 27.5312 45.5635 27.5312 46.1469L26.9219 45.85C27.4427 44.8813 28.1823 44.074 29.1406 43.4281C30.099 42.7719 31.3594 42.4438 32.9219 42.4438C34.4531 42.4438 35.7604 42.7615 36.8438 43.3969C37.9375 44.0219 38.7708 44.8865 39.3438 45.9906C39.9271 47.0844 40.2188 48.3396 40.2188 49.7563C40.2188 51.3396 39.8646 52.7094 39.1562 53.8656C38.4583 55.0219 37.4792 55.9177 36.2188 56.5531C34.9583 57.1885 33.4948 57.5063 31.8281 57.5063ZM31.7969 53.9281C32.9531 53.9281 33.8438 53.5635 34.4688 52.8344C35.0938 52.0948 35.4062 51.1156 35.4062 49.8969C35.4062 48.6573 35.0885 47.6938 34.4531 47.0063C33.8281 46.3083 32.9583 45.9594 31.8438 45.9594C30.6875 45.9594 29.7708 46.324 29.0938 47.0531C28.4271 47.7719 28.0938 48.7406 28.0938 49.9594C28.0938 51.1677 28.4271 52.1313 29.0938 52.85C29.7604 53.5688 30.6615 53.9281 31.7969 53.9281Z" fill="white"/>
<path d="M9.95052 15.4641C8.80599 15.4641 7.92318 15.1047 7.30208 14.3859C6.6849 13.6633 6.3763 12.6379 6.3763 11.3098C6.3763 10.7707 6.4349 10.2297 6.55208 9.68671C6.66927 9.14374 6.86458 8.64764 7.13802 8.19843C7.41146 7.7453 7.78255 7.38202 8.2513 7.10858C8.72005 6.83514 9.30599 6.69843 10.0091 6.69843C10.6263 6.69843 11.1615 6.80389 11.6146 7.01483C12.0716 7.22186 12.4368 7.49335 12.7103 7.82928C12.9876 8.16132 13.1654 8.51874 13.2435 8.90155L11.0697 9.47577C11.0501 9.16327 10.9486 8.91327 10.765 8.72577C10.5853 8.53436 10.3392 8.43866 10.0267 8.43866C9.76888 8.43866 9.55794 8.50116 9.39388 8.62616C9.22982 8.74725 9.10091 8.90741 9.00716 9.10663C8.91732 9.30585 8.85091 9.5246 8.80794 9.76288C8.76888 10.0012 8.74349 10.2375 8.73177 10.4719C8.72396 10.7062 8.72005 10.9172 8.72005 11.1047L8.38607 10.9816C8.60482 10.634 8.88607 10.3586 9.22982 10.1555C9.57357 9.94843 10.0267 9.84491 10.5892 9.84491C11.2259 9.84491 11.7454 9.96991 12.1478 10.2199C12.554 10.4699 12.8529 10.798 13.0443 11.2043C13.2357 11.6066 13.3314 12.0422 13.3314 12.5109C13.3314 13.1125 13.1888 13.634 12.9036 14.0754C12.6185 14.5168 12.222 14.8586 11.7142 15.1008C11.2103 15.343 10.6224 15.4641 9.95052 15.4641ZM9.93294 13.7238C10.2572 13.7238 10.5052 13.6203 10.6771 13.4133C10.849 13.2062 10.9349 12.9426 10.9349 12.6223C10.9349 12.2863 10.8451 12.0226 10.6654 11.8312C10.4896 11.6398 10.2454 11.5441 9.93294 11.5441C9.61263 11.5441 9.36458 11.6457 9.1888 11.8488C9.01302 12.048 8.92513 12.3098 8.92513 12.634C8.92513 12.966 9.01497 13.2316 9.19466 13.4308C9.37826 13.6262 9.62435 13.7238 9.93294 13.7238Z" fill="black"/>
<path d="M10.2761 15.1354C9.30386 15.1354 8.55907 14.8108 8.04171 14.1615C7.52782 13.5087 7.27087 12.599 7.27087 11.4323C7.27087 10.9149 7.32469 10.4149 7.43233 9.93229C7.54344 9.44618 7.71879 9.01042 7.95837 8.625C8.19796 8.23958 8.51219 7.93403 8.90108 7.70833C9.28997 7.47917 9.76567 7.36458 10.3282 7.36458C10.8525 7.36458 11.3073 7.46181 11.6927 7.65625C12.0782 7.84722 12.3855 8.09375 12.6146 8.39583C12.8438 8.69444 12.9844 9.00868 13.0365 9.33854L11.5365 9.73437C11.5191 9.38021 11.4046 9.09549 11.1927 8.88021C10.9844 8.66493 10.7014 8.55729 10.3438 8.55729C10.0591 8.55729 9.82469 8.62153 9.64067 8.75C9.45664 8.87847 9.3108 9.04861 9.20317 9.26042C9.09553 9.46875 9.01567 9.69792 8.96358 9.94792C8.9115 10.1944 8.87851 10.441 8.86462 10.6875C8.85073 10.934 8.84379 11.1545 8.84379 11.349L8.64067 11.25C8.81428 10.9271 9.0608 10.658 9.38025 10.4427C9.69969 10.224 10.1198 10.1146 10.6407 10.1146C11.1511 10.1146 11.5868 10.2205 11.948 10.4323C12.3125 10.6406 12.5903 10.9288 12.7813 11.2969C12.9757 11.6615 13.073 12.0799 13.073 12.5521C13.073 13.0799 12.9549 13.5365 12.7188 13.9219C12.4862 14.3073 12.1598 14.6059 11.7396 14.8177C11.3195 15.0295 10.8316 15.1354 10.2761 15.1354ZM10.2657 13.9427C10.6511 13.9427 10.948 13.8212 11.1563 13.5781C11.3646 13.3316 11.4688 13.0052 11.4688 12.599C11.4688 12.1858 11.3629 11.8646 11.1511 11.6354C10.9427 11.4028 10.6528 11.2865 10.2813 11.2865C9.89587 11.2865 9.59032 11.408 9.36462 11.651C9.1424 11.8906 9.03129 12.2135 9.03129 12.6198C9.03129 13.0226 9.1424 13.3437 9.36462 13.5833C9.58685 13.8229 9.88719 13.9427 10.2657 13.9427Z" fill="white"/>
<path d="M51.0495 77.1693C52.194 77.1693 53.0768 77.5287 53.6979 78.2474C54.3151 78.9701 54.6237 79.9955 54.6237 81.3236C54.6237 81.8626 54.5651 82.4037 54.4479 82.9466C54.3307 83.4896 54.1354 83.9857 53.862 84.4349C53.5885 84.888 53.2174 85.2513 52.7487 85.5247C52.2799 85.7982 51.694 85.9349 50.9909 85.9349C50.3737 85.9349 49.8385 85.8294 49.3854 85.6185C48.9284 85.4115 48.5632 85.14 48.2897 84.804C48.0124 84.472 47.8346 84.1146 47.7565 83.7318L49.9303 83.1576C49.9499 83.4701 50.0514 83.7201 50.235 83.9076C50.4147 84.099 50.6608 84.1947 50.9733 84.1947C51.2311 84.1947 51.4421 84.1322 51.6061 84.0072C51.7702 83.8861 51.8991 83.7259 51.9928 83.5267C52.0827 83.3275 52.1491 83.1087 52.1921 82.8705C52.2311 82.6322 52.2565 82.3958 52.2682 82.1615C52.276 81.9271 52.2799 81.7162 52.2799 81.5287L52.6139 81.6517C52.3952 81.9994 52.1139 82.2747 51.7702 82.4779C51.4264 82.6849 50.9733 82.7884 50.4108 82.7884C49.7741 82.7884 49.2546 82.6634 48.8522 82.4134C48.446 82.1634 48.1471 81.8353 47.9557 81.429C47.7643 81.0267 47.6686 80.5912 47.6686 80.1224C47.6686 79.5208 47.8112 78.9994 48.0964 78.558C48.3815 78.1165 48.778 77.7747 49.2858 77.5326C49.7897 77.2904 50.3776 77.1693 51.0495 77.1693ZM51.0671 78.9095C50.7428 78.9095 50.4948 79.013 50.3229 79.2201C50.151 79.4271 50.0651 79.6908 50.0651 80.0111C50.0651 80.347 50.1549 80.6107 50.3346 80.8021C50.5104 80.9935 50.7546 81.0892 51.0671 81.0892C51.3874 81.0892 51.6354 80.9876 51.8112 80.7845C51.987 80.5853 52.0749 80.3236 52.0749 79.9994C52.0749 79.6673 51.985 79.4017 51.8053 79.2025C51.6217 79.0072 51.3757 78.9095 51.0671 78.9095Z" fill="black"/>
<path d="M50.7239 77.4979C51.6961 77.4979 52.4409 77.8226 52.9583 78.4719C53.4722 79.1247 53.7291 80.0344 53.7291 81.201C53.7291 81.7184 53.6753 82.2184 53.5677 82.701C53.4566 83.1872 53.2812 83.6229 53.0416 84.0083C52.802 84.3937 52.4878 84.6993 52.0989 84.925C51.71 85.1542 51.2343 85.2687 50.6718 85.2687C50.1475 85.2687 49.6927 85.1715 49.3073 84.9771C48.9218 84.7861 48.6145 84.5396 48.3854 84.2375C48.1562 83.9389 48.0156 83.6247 47.9635 83.2948L49.4635 82.899C49.4809 83.2531 49.5954 83.5378 49.8073 83.7531C50.0156 83.9684 50.2986 84.076 50.6562 84.076C50.9409 84.076 51.1753 84.0118 51.3593 83.8833C51.5434 83.7549 51.6892 83.5847 51.7968 83.3729C51.9045 83.1646 51.9843 82.9354 52.0364 82.6854C52.0885 82.4389 52.1215 82.1924 52.1354 81.9458C52.1493 81.6993 52.1562 81.4788 52.1562 81.2844L52.3593 81.3833C52.1857 81.7062 51.9392 81.9753 51.6198 82.1906C51.3003 82.4094 50.8802 82.5187 50.3593 82.5187C49.8489 82.5187 49.4132 82.4128 49.052 82.201C48.6875 81.9927 48.4097 81.7045 48.2187 81.3365C48.0243 80.9719 47.927 80.5535 47.927 80.0812C47.927 79.5535 48.0451 79.0969 48.2812 78.7115C48.5138 78.326 48.8402 78.0274 49.2604 77.8156C49.6805 77.6038 50.1684 77.4979 50.7239 77.4979ZM50.7343 78.6906C50.3489 78.6906 50.052 78.8121 49.8437 79.0552C49.6354 79.3017 49.5312 79.6281 49.5312 80.0344C49.5312 80.4476 49.6371 80.7687 49.8489 80.9979C50.0573 81.2306 50.3472 81.3469 50.7187 81.3469C51.1041 81.3469 51.4097 81.2253 51.6354 80.9823C51.8576 80.7427 51.9687 80.4198 51.9687 80.0135C51.9687 79.6108 51.8576 79.2896 51.6354 79.05C51.4132 78.8104 51.1128 78.6906 50.7343 78.6906Z" fill="white"/>
</svg>
