<svg width="61" height="93" viewBox="0 0 61 93" fill="none" xmlns="http://www.w3.org/2000/svg">
<rect width="61" height="93" rx="4" fill="white"/>
<rect x="4" y="4" width="53" height="85" rx="3.56989" fill="#509916"/>
<path d="M50.1712 12.2458C55.1568 15.1242 57.7467 21.4823 57.61 29.7998C57.4739 38.0786 54.6218 48.0559 49.0349 57.7327C43.448 67.4095 36.2335 74.868 29.1319 79.1253C21.9971 83.4025 15.1958 84.3386 10.2102 81.4602C5.22468 78.5818 2.63473 72.2236 2.77147 63.9061C2.90758 55.6273 5.75963 45.6501 11.3465 35.9733C16.9334 26.2965 24.1479 18.8379 31.2495 14.5806C38.3844 10.3034 45.1856 9.36734 50.1712 12.2458Z" fill="#509916" stroke="white" stroke-width="2"/>
<path d="M30.5 63.6152C28.1123 63.6152 25.9077 63.2417 23.8862 62.4946C21.8647 61.7476 20.2461 60.6489 19.0303 59.1987C17.8145 57.7339 17.2065 55.9395 17.2065 53.8154C17.2065 51.7646 17.873 50.0728 19.2061 48.7397C20.5391 47.4067 22.5166 46.5791 25.1387 46.2568C23.5127 46.1396 22.1724 45.7222 21.1177 45.0044C20.063 44.2866 19.2793 43.4004 18.7666 42.3457C18.2686 41.2764 18.0195 40.1484 18.0195 38.9619C18.0195 37.2188 18.5469 35.7393 19.6016 34.5234C20.6709 33.293 22.1431 32.3555 24.0181 31.7109C25.9077 31.0664 28.0684 30.7441 30.5 30.7441C32.9463 30.7441 35.1069 31.0664 36.9819 31.7109C38.8569 32.3555 40.3218 33.293 41.3765 34.5234C42.4458 35.7393 42.9805 37.2188 42.9805 38.9619C42.9805 40.1484 42.7241 41.2764 42.2114 42.3457C41.7134 43.4004 40.937 44.2866 39.8823 45.0044C38.8423 45.7222 37.502 46.1396 35.8613 46.2568C38.3955 46.5791 40.3511 47.3921 41.728 48.6958C43.105 49.9995 43.7935 51.7061 43.7935 53.8154C43.7935 55.9248 43.1855 57.7119 41.9697 59.1768C40.7539 60.627 39.1353 61.7329 37.1138 62.4946C35.1069 63.2417 32.9023 63.6152 30.5 63.6152ZM30.5 56.8916C31.7744 56.8916 32.7632 56.5547 33.4663 55.8809C34.1841 55.1924 34.543 54.2402 34.543 53.0244C34.543 51.8086 34.1841 50.8564 33.4663 50.168C32.7632 49.4795 31.7744 49.1353 30.5 49.1353C29.2256 49.1353 28.2295 49.4795 27.5117 50.168C26.8086 50.8418 26.457 51.7866 26.457 53.0024C26.457 54.2183 26.8086 55.1704 27.5117 55.8589C28.2295 56.5474 29.2256 56.8916 30.5 56.8916ZM30.5 43.7739C31.6279 43.7739 32.5068 43.4517 33.1367 42.8071C33.7812 42.1626 34.1035 41.269 34.1035 40.1265C34.1035 38.9692 33.7812 38.0684 33.1367 37.4238C32.5068 36.7793 31.6279 36.457 30.5 36.457C29.3721 36.457 28.4858 36.7793 27.8413 37.4238C27.2114 38.0684 26.8965 38.9619 26.8965 40.1045C26.8965 41.2617 27.2114 42.1626 27.8413 42.8071C28.4858 43.4517 29.3721 43.7739 30.5 43.7739Z" fill="black"/>
<path d="M31.5 60.6205C29.4046 60.6205 27.5028 60.2735 25.7944 59.5795C24.0994 58.8721 22.7515 57.8578 21.7505 56.5365C20.7495 55.2152 20.249 53.6403 20.249 51.8119C20.249 49.9567 20.8296 48.3752 21.9907 47.0673C23.1519 45.746 24.8669 44.9185 27.1357 44.5848C25.8145 44.4113 24.7 44.0176 23.7925 43.4037C22.8983 42.7764 22.2243 42.009 21.7705 41.1014C21.3167 40.1939 21.0898 39.2063 21.0898 38.1385C21.0898 36.6438 21.5303 35.3425 22.4111 34.2347C23.3053 33.1136 24.5332 32.2528 26.0947 31.6522C27.6696 31.0516 29.4714 30.7513 31.5 30.7513C33.5553 30.7513 35.3571 31.0516 36.9053 31.6522C38.4668 32.2528 39.688 33.1136 40.5688 34.2347C41.4497 35.3425 41.8901 36.6438 41.8901 38.1385C41.8901 39.2063 41.6632 40.1939 41.2095 41.1014C40.7557 42.009 40.0817 42.7764 39.1875 43.4037C38.2933 44.0176 37.1855 44.4113 35.8643 44.5848C38.0931 44.9185 39.7948 45.7393 40.9692 47.0472C42.1571 48.3418 42.751 49.9301 42.751 51.8119C42.751 53.6403 42.2505 55.2152 41.2495 56.5365C40.2485 57.8578 38.8939 58.8721 37.1855 59.5795C35.4906 60.2735 33.5954 60.6205 31.5 60.6205ZM31.5 55.7958C33.0215 55.7958 34.216 55.4021 35.0835 54.6146C35.951 53.8138 36.3848 52.7061 36.3848 51.2914C36.3848 49.9034 35.951 48.8023 35.0835 47.9882C34.216 47.174 33.0215 46.767 31.5 46.767C29.9785 46.767 28.7773 47.174 27.8965 47.9882C27.029 48.7889 26.5952 49.89 26.5952 51.2914C26.5952 52.6927 27.029 53.7938 27.8965 54.5946C28.7773 55.3954 29.9785 55.7958 31.5 55.7958ZM31.5 42.723C32.8346 42.723 33.8823 42.3894 34.6431 41.722C35.4038 41.0414 35.7842 40.1005 35.7842 38.8993C35.7842 37.6714 35.4038 36.7038 34.6431 35.9965C33.8823 35.2891 32.8346 34.9354 31.5 34.9354C30.1654 34.9354 29.1177 35.2891 28.3569 35.9965C27.5962 36.7038 27.2158 37.6714 27.2158 38.8993C27.2158 40.1005 27.5962 41.0414 28.3569 41.722C29.1177 42.3894 30.1654 42.723 31.5 42.723Z" fill="white"/>
<path d="M9.83333 15.4641C9.19661 15.4641 8.60872 15.3644 8.06966 15.1652C7.5306 14.966 7.09896 14.673 6.77474 14.2863C6.45052 13.8957 6.28841 13.4172 6.28841 12.8508C6.28841 12.3039 6.46615 11.8527 6.82161 11.4973C7.17708 11.1418 7.70443 10.9211 8.40365 10.8351C7.97005 10.8039 7.61263 10.6926 7.33138 10.5012C7.05013 10.3098 6.84115 10.0734 6.70443 9.79218C6.57161 9.50702 6.50521 9.20624 6.50521 8.88983C6.50521 8.42499 6.64583 8.03046 6.92708 7.70624C7.21224 7.37811 7.60482 7.12811 8.10482 6.95624C8.60872 6.78436 9.1849 6.69843 9.83333 6.69843C10.4857 6.69843 11.0618 6.78436 11.5618 6.95624C12.0618 7.12811 12.4525 7.37811 12.7337 7.70624C13.0189 8.03046 13.1615 8.42499 13.1615 8.88983C13.1615 9.20624 13.0931 9.50702 12.9564 9.79218C12.8236 10.0734 12.6165 10.3098 12.3353 10.5012C12.0579 10.6926 11.7005 10.8039 11.263 10.8351C11.9388 10.9211 12.4603 11.1379 12.8275 11.4855C13.1947 11.8332 13.3783 12.2883 13.3783 12.8508C13.3783 13.4133 13.2161 13.8898 12.8919 14.2805C12.5677 14.6672 12.1361 14.9621 11.597 15.1652C11.0618 15.3644 10.474 15.4641 9.83333 15.4641ZM9.83333 13.6711C10.1732 13.6711 10.4368 13.5812 10.6243 13.4016C10.8158 13.218 10.9115 12.9641 10.9115 12.6398C10.9115 12.3156 10.8158 12.0617 10.6243 11.8781C10.4368 11.6945 10.1732 11.6027 9.83333 11.6027C9.49349 11.6027 9.22786 11.6945 9.03646 11.8781C8.84896 12.0578 8.75521 12.3098 8.75521 12.634C8.75521 12.9582 8.84896 13.2121 9.03646 13.3957C9.22786 13.5793 9.49349 13.6711 9.83333 13.6711ZM9.83333 10.173C10.1341 10.173 10.3685 10.0871 10.5365 9.91522C10.7083 9.74335 10.7943 9.50507 10.7943 9.20038C10.7943 8.89178 10.7083 8.65155 10.5365 8.47968C10.3685 8.3078 10.1341 8.22186 9.83333 8.22186C9.53255 8.22186 9.29622 8.3078 9.12435 8.47968C8.95638 8.65155 8.8724 8.88983 8.8724 9.19452C8.8724 9.50311 8.95638 9.74335 9.12435 9.91522C9.29622 10.0871 9.53255 10.173 9.83333 10.173Z" fill="black"/>
<path d="M10.1668 15.1354C9.62169 15.1354 9.1269 15.0451 8.68245 14.8646C8.24148 14.6806 7.89079 14.4167 7.63037 14.0729C7.36995 13.7292 7.23975 13.3194 7.23975 12.8437C7.23975 12.3611 7.39079 11.9497 7.69287 11.6094C7.99495 11.2656 8.44113 11.0503 9.03141 10.9635C8.68766 10.9184 8.39773 10.816 8.16162 10.6562C7.92898 10.4931 7.75363 10.2934 7.63558 10.0573C7.51752 9.82118 7.4585 9.56424 7.4585 9.28646C7.4585 8.89757 7.57308 8.55903 7.80225 8.27083C8.03488 7.97917 8.35433 7.75521 8.76058 7.59896C9.1703 7.44271 9.63905 7.36458 10.1668 7.36458C10.7016 7.36458 11.1703 7.44271 11.5731 7.59896C11.9793 7.75521 12.297 7.97917 12.5262 8.27083C12.7554 8.55903 12.87 8.89757 12.87 9.28646C12.87 9.56424 12.8109 9.82118 12.6929 10.0573C12.5748 10.2934 12.3995 10.4931 12.1668 10.6562C11.9342 10.816 11.646 10.9184 11.3022 10.9635C11.8821 11.0503 12.3248 11.2639 12.6304 11.6042C12.9394 11.941 13.0939 12.3542 13.0939 12.8437C13.0939 13.3194 12.9637 13.7292 12.7033 14.0729C12.4429 14.4167 12.0904 14.6806 11.646 14.8646C11.205 15.0451 10.712 15.1354 10.1668 15.1354ZM10.1668 13.8802C10.5627 13.8802 10.8734 13.7778 11.0991 13.5729C11.3248 13.3646 11.4377 13.0764 11.4377 12.7083C11.4377 12.3472 11.3248 12.0608 11.0991 11.849C10.8734 11.6372 10.5627 11.5312 10.1668 11.5312C9.771 11.5312 9.4585 11.6372 9.22933 11.849C9.00363 12.0573 8.89079 12.3437 8.89079 12.7083C8.89079 13.0729 9.00363 13.3594 9.22933 13.5677C9.4585 13.776 9.771 13.8802 10.1668 13.8802ZM10.1668 10.4792C10.5141 10.4792 10.7866 10.3924 10.9845 10.2187C11.1825 10.0417 11.2814 9.79687 11.2814 9.48437C11.2814 9.16493 11.1825 8.91319 10.9845 8.72917C10.7866 8.54514 10.5141 8.45312 10.1668 8.45312C9.81961 8.45312 9.54704 8.54514 9.34912 8.72917C9.1512 8.91319 9.05225 9.16493 9.05225 9.48437C9.05225 9.79687 9.1512 10.0417 9.34912 10.2187C9.54704 10.3924 9.81961 10.4792 10.1668 10.4792Z" fill="white"/>
<path d="M51.1667 77.1692C51.8034 77.1692 52.3913 77.2689 52.9303 77.4681C53.4694 77.6673 53.901 77.9603 54.2253 78.347C54.5495 78.7376 54.7116 79.2161 54.7116 79.7825C54.7116 80.3294 54.5339 80.7806 54.1784 81.136C53.8229 81.4915 53.2956 81.7122 52.5964 81.7982C53.0299 81.8294 53.3874 81.9407 53.6686 82.1321C53.9499 82.3235 54.1589 82.5599 54.2956 82.8411C54.4284 83.1263 54.4948 83.4271 54.4948 83.7435C54.4948 84.2083 54.3542 84.6028 54.0729 84.9271C53.7878 85.2552 53.3952 85.5052 52.8952 85.6771C52.3913 85.8489 51.8151 85.9349 51.1667 85.9349C50.5143 85.9349 49.9382 85.8489 49.4382 85.6771C48.9382 85.5052 48.5475 85.2552 48.2663 84.9271C47.9811 84.6028 47.8385 84.2083 47.8385 83.7435C47.8385 83.4271 47.9069 83.1263 48.0436 82.8411C48.1764 82.5599 48.3835 82.3235 48.6647 82.1321C48.9421 81.9407 49.2995 81.8294 49.737 81.7982C49.0612 81.7122 48.5397 81.4954 48.1725 81.1478C47.8053 80.8001 47.6217 80.345 47.6217 79.7825C47.6217 79.22 47.7839 78.7435 48.1081 78.3528C48.4323 77.9661 48.8639 77.6712 49.403 77.4681C49.9382 77.2689 50.526 77.1692 51.1667 77.1692ZM51.1667 78.9622C50.8268 78.9622 50.5632 79.0521 50.3757 79.2317C50.1842 79.4153 50.0885 79.6692 50.0885 79.9935C50.0885 80.3177 50.1842 80.5716 50.3757 80.7552C50.5632 80.9388 50.8268 81.0306 51.1667 81.0306C51.5065 81.0306 51.7721 80.9388 51.9635 80.7552C52.151 80.5755 52.2448 80.3235 52.2448 79.9993C52.2448 79.6751 52.151 79.4212 51.9635 79.2376C51.7721 79.054 51.5065 78.9622 51.1667 78.9622ZM51.1667 82.4603C50.8659 82.4603 50.6315 82.5462 50.4635 82.7181C50.2917 82.89 50.2057 83.1282 50.2057 83.4329C50.2057 83.7415 50.2917 83.9818 50.4635 84.1536C50.6315 84.3255 50.8659 84.4114 51.1667 84.4114C51.4674 84.4114 51.7038 84.3255 51.8757 84.1536C52.0436 83.9818 52.1276 83.7435 52.1276 83.4388C52.1276 83.1302 52.0436 82.89 51.8757 82.7181C51.7038 82.5462 51.4674 82.4603 51.1667 82.4603Z" fill="black"/>
<path d="M50.8332 77.4979C51.3783 77.4979 51.8731 77.5882 52.3175 77.7687C52.7585 77.9527 53.1092 78.2166 53.3696 78.5604C53.63 78.9041 53.7603 79.3139 53.7603 79.7896C53.7603 80.2722 53.6092 80.6836 53.3071 81.0239C53.005 81.3677 52.5589 81.583 51.9686 81.6698C52.3123 81.7149 52.6023 81.8173 52.8384 81.9771C53.071 82.1402 53.2464 82.3399 53.3644 82.576C53.4825 82.8121 53.5415 83.0691 53.5415 83.3468C53.5415 83.7357 53.4269 84.0743 53.1978 84.3625C52.9651 84.6541 52.6457 84.8781 52.2394 85.0343C51.8297 85.1906 51.3609 85.2687 50.8332 85.2687C50.2984 85.2687 49.8297 85.1906 49.4269 85.0343C49.0207 84.8781 48.703 84.6541 48.4738 84.3625C48.2446 84.0743 48.13 83.7357 48.13 83.3468C48.13 83.0691 48.1891 82.8121 48.3071 82.576C48.4252 82.3399 48.6005 82.1402 48.8332 81.9771C49.0658 81.8173 49.354 81.7149 49.6978 81.6698C49.1179 81.583 48.6752 81.3694 48.3696 81.0291C48.0606 80.6923 47.9061 80.2791 47.9061 79.7896C47.9061 79.3139 48.0363 78.9041 48.2967 78.5604C48.5571 78.2166 48.9096 77.9527 49.354 77.7687C49.795 77.5882 50.288 77.4979 50.8332 77.4979ZM50.8332 78.7531C50.4373 78.7531 50.1266 78.8555 49.9009 79.0604C49.6752 79.2687 49.5623 79.5569 49.5623 79.925C49.5623 80.2861 49.6752 80.5725 49.9009 80.7843C50.1266 80.9961 50.4373 81.1021 50.8332 81.1021C51.229 81.1021 51.5415 80.9961 51.7707 80.7843C51.9964 80.576 52.1092 80.2896 52.1092 79.925C52.1092 79.5604 51.9964 79.2739 51.7707 79.0656C51.5415 78.8573 51.229 78.7531 50.8332 78.7531ZM50.8332 82.1541C50.4859 82.1541 50.2134 82.2409 50.0155 82.4146C49.8175 82.5916 49.7186 82.8364 49.7186 83.1489C49.7186 83.4684 49.8175 83.7201 50.0155 83.9041C50.2134 84.0882 50.4859 84.1802 50.8332 84.1802C51.1804 84.1802 51.453 84.0882 51.6509 83.9041C51.8488 83.7201 51.9478 83.4684 51.9478 83.1489C51.9478 82.8364 51.8488 82.5916 51.6509 82.4146C51.453 82.2409 51.1804 82.1541 50.8332 82.1541Z" fill="white"/>
</svg>
