<svg width="62" height="93" viewBox="0 0 62 93" fill="none" xmlns="http://www.w3.org/2000/svg">
<rect width="61.18" height="93" rx="4" fill="white"/>
<rect x="4" y="4" width="53" height="85" rx="3.56989" fill="#E10007"/>
<path d="M50.1712 12.2457C55.1568 15.1241 57.7467 21.4823 57.61 29.7998C57.4739 38.0786 54.6218 48.0558 49.0349 57.7326C43.448 67.4094 36.2335 74.868 29.1319 79.1253C21.9971 83.4025 15.1958 84.3386 10.2102 81.4601C5.22468 78.5817 2.63473 72.2236 2.77147 63.9061C2.90758 55.6273 5.75963 45.65 11.3465 35.9732C16.9334 26.2964 24.1479 18.8379 31.2495 14.5806C38.3844 10.3034 45.1856 9.36731 50.1712 12.2457Z" fill="#E10007" stroke="white" stroke-width="2"/>
<path d="M30.4448 63V53.7275L31.104 52.541V37.314L33.3232 37.27L21.3701 52.6289L20.4692 49.6626H43.6064V56.606H15.3496V50.1899L30.4009 31.3594H39.3438V63H30.4448Z" fill="black"/>
<path d="M32.7021 61.1V52.1713L33.0625 51.5707V36.2958L34.584 37.1166L22.8525 51.6307L21.8716 49.6688H42.4517V54.5536H18.5483V49.7689L32.9224 32.2719H38.7881V61.1H32.7021Z" fill="white"/>
<path d="M10.0853 15.3V12.8273L10.2611 12.5109V8.45038L10.8529 8.43866L7.66536 12.5344L7.42513 11.7433H13.5951V13.5949H6.0599V11.884L10.0736 6.86249H12.4583V15.3H10.0853Z" fill="black"/>
<path d="M10.7397 15V12.6771L10.8335 12.5208V8.54687L11.2293 8.76042L8.17725 12.5365L7.92204 12.026H13.2762V13.2969H7.05745V12.0521L10.797 7.5H12.3231V15H10.7397Z" fill="white"/>
<path d="M50.9147 77.3333V79.806L50.7389 80.1224V84.1829L50.1471 84.1946L53.3346 80.0989L53.5749 80.89H47.4049V79.0384H54.9401V80.7493L50.9264 85.7708H48.5417V77.3333H50.9147Z" fill="black"/>
<path d="M50.2603 77.6333V79.9562L50.1665 80.1125V84.0864L49.7707 83.8729L52.8228 80.0968L53.078 80.6073H47.7238V79.3364H53.9425V80.5812L50.203 85.1333H48.6769V77.6333H50.2603Z" fill="white"/>
</svg>
