<svg width="62" height="93" viewBox="0 0 62 93" fill="none" xmlns="http://www.w3.org/2000/svg">
<rect width="61.18" height="93" rx="4" fill="white"/>
<rect x="4" y="4" width="53" height="85" rx="3.56989" fill="#0074D3"/>
<path d="M50.1712 12.2457C55.1568 15.1241 57.7467 21.4823 57.61 29.7998C57.4739 38.0786 54.6218 48.0558 49.0349 57.7326C43.448 67.4094 36.2335 74.868 29.1319 79.1253C21.9971 83.4025 15.1958 84.3386 10.2102 81.4601C5.22468 78.5817 2.63473 72.2236 2.77147 63.9061C2.90758 55.6273 5.75963 45.65 11.3465 35.9732C16.9334 26.2964 24.1479 18.8379 31.2495 14.5806C38.3844 10.3034 45.1856 9.36731 50.1712 12.2457Z" fill="#0074D3" stroke="white" stroke-width="2"/>
<path d="M30.4341 64.5152C28.1636 64.5152 26.0615 64.127 24.1279 63.3507C22.209 62.5597 20.627 61.4024 19.3818 59.879C18.1514 58.3556 17.4336 56.4806 17.2285 54.254L26.5449 52.65C26.5449 54.2027 26.8965 55.4112 27.5996 56.2755C28.3174 57.1251 29.3281 57.5499 30.6318 57.5499C31.5693 57.5499 32.3384 57.3375 32.939 56.9127C33.5396 56.4879 33.9863 55.9239 34.2793 55.2208C34.5723 54.503 34.7188 53.7047 34.7188 52.8258C34.7188 51.6246 34.3965 50.6139 33.752 49.7935C33.1221 48.9732 32.0967 48.5631 30.6758 48.5631C29.9141 48.5631 29.2549 48.7169 28.6982 49.0245C28.1416 49.3175 27.6436 49.8302 27.2041 50.5626L17.8438 49.9254L19.5356 32.2594H42.0137V39.2027H26.7427L26.0176 46.981L25.1606 46.1021C26.0688 44.7252 27.2407 43.7584 28.6763 43.2018C30.1118 42.6305 31.7012 42.3448 33.4443 42.3448C35.9053 42.3448 37.9048 42.8062 39.4429 43.7291C40.9956 44.6519 42.1309 45.8897 42.8486 47.4425C43.5664 48.9952 43.9253 50.7237 43.9253 52.628C43.9253 55.294 43.2954 57.506 42.0356 59.2638C40.7759 61.0216 39.1206 62.3399 37.0698 63.2188C35.019 64.0831 32.8071 64.5152 30.4341 64.5152Z" fill="black"/>
<path d="M31.54 62.5205C29.6449 62.5205 27.8698 62.1735 26.2148 61.4795C24.5599 60.7721 23.1919 59.7378 22.1108 58.3765C21.0298 57.0151 20.4025 55.3402 20.229 53.3516L26.5752 52.0503C26.6419 53.7319 27.0957 55.0933 27.9365 56.1343C28.7773 57.1753 29.9919 57.6958 31.5801 57.6958C32.6344 57.6958 33.5286 57.4556 34.2627 56.9751C34.9967 56.4813 35.564 55.814 35.9644 54.9731C36.3647 54.119 36.5649 53.158 36.5649 52.0903C36.5649 50.5288 36.1312 49.2876 35.2637 48.3667C34.3962 47.4458 33.195 46.9854 31.6602 46.9854C30.5658 46.9854 29.6715 47.2389 28.9775 47.7461C28.2969 48.2533 27.7497 48.9139 27.3359 49.728L21.0298 49.2476L22.3911 33.1719H41.1294V38.0767H27.396L26.6753 46.8252L25.8145 46.3447C26.6019 45.1035 27.6429 44.1559 28.9375 43.502C30.2321 42.8346 31.7269 42.501 33.4219 42.501C35.4505 42.501 37.1655 42.9147 38.5669 43.7422C39.9816 44.5697 41.0493 45.6974 41.77 47.1255C42.4907 48.5402 42.8511 50.1484 42.8511 51.9502C42.8511 54.2191 42.3239 56.141 41.2695 57.7158C40.2152 59.2907 38.8271 60.4852 37.1055 61.2993C35.3838 62.1134 33.5286 62.5205 31.54 62.5205Z" fill="white"/>
<path d="M9.81576 15.4641C9.21029 15.4641 8.64974 15.3605 8.13411 15.1535C7.6224 14.9426 7.20052 14.634 6.86849 14.2277C6.54036 13.8215 6.34896 13.3215 6.29427 12.7277L8.77865 12.3C8.77865 12.7141 8.8724 13.0363 9.0599 13.2668C9.2513 13.4933 9.52083 13.6066 9.86849 13.6066C10.1185 13.6066 10.3236 13.55 10.4837 13.4367C10.6439 13.3234 10.763 13.173 10.8411 12.9855C10.9193 12.7941 10.9583 12.5812 10.9583 12.3469C10.9583 12.0266 10.8724 11.757 10.7005 11.5383C10.5326 11.3195 10.2591 11.2101 9.88021 11.2101C9.67708 11.2101 9.5013 11.2512 9.35286 11.3332C9.20443 11.4113 9.07161 11.548 8.95443 11.7433L6.45833 11.5734L6.90951 6.86249H12.9036V8.71405H8.83138L8.63802 10.7883L8.40951 10.5539C8.65169 10.1867 8.96419 9.92889 9.34701 9.78046C9.72982 9.62811 10.1536 9.55194 10.6185 9.55194C11.2747 9.55194 11.8079 9.67499 12.2181 9.92108C12.6322 10.1672 12.9349 10.4973 13.1263 10.9113C13.3177 11.3254 13.4134 11.7863 13.4134 12.2941C13.4134 13.0051 13.2454 13.5949 12.9095 14.0637C12.5736 14.5324 12.1322 14.884 11.5853 15.1183C11.0384 15.3488 10.4486 15.4641 9.81576 15.4641Z" fill="black"/>
<path d="M10.1772 15.1354C9.68419 15.1354 9.22238 15.0451 8.79183 14.8646C8.36127 14.6806 8.00537 14.4115 7.72412 14.0573C7.44287 13.7031 7.27968 13.2674 7.23454 12.75L8.88558 12.4115C8.90294 12.849 9.021 13.2031 9.23975 13.474C9.4585 13.7448 9.77447 13.8802 10.1877 13.8802C10.462 13.8802 10.6946 13.8177 10.8856 13.6927C11.0766 13.5642 11.2241 13.3906 11.3283 13.1719C11.4325 12.9497 11.4845 12.6997 11.4845 12.4219C11.4845 12.0156 11.3717 11.6927 11.146 11.4531C10.9203 11.2135 10.6078 11.0937 10.2085 11.0937C9.92377 11.0937 9.69113 11.1597 9.51058 11.2917C9.3335 11.4236 9.19113 11.5955 9.0835 11.8073L7.44287 11.6823L7.79704 7.5H12.672V8.77604H9.09912L8.91162 11.0521L8.68766 10.9271C8.89252 10.6042 9.16336 10.3576 9.50016 10.1875C9.83697 10.0139 10.2259 9.92708 10.6668 9.92708C11.1946 9.92708 11.6408 10.0347 12.0054 10.25C12.3734 10.4653 12.6512 10.7587 12.8387 11.1302C13.0262 11.4983 13.12 11.9167 13.12 12.3854C13.12 12.9757 12.9828 13.4757 12.7085 13.8854C12.4342 14.2951 12.0731 14.6059 11.6252 14.8177C11.1772 15.0295 10.6946 15.1354 10.1772 15.1354Z" fill="white"/>
<path d="M51.1842 77.1692C51.7897 77.1692 52.3503 77.2728 52.8659 77.4798C53.3776 77.6907 53.7995 77.9993 54.1315 78.4056C54.4596 78.8118 54.651 79.3118 54.7057 79.9056L52.2214 80.3333C52.2214 79.9192 52.1276 79.597 51.9401 79.3665C51.7487 79.14 51.4792 79.0267 51.1315 79.0267C50.8815 79.0267 50.6764 79.0833 50.5163 79.1966C50.3561 79.3099 50.237 79.4603 50.1589 79.6478C50.0807 79.8392 50.0417 80.0521 50.0417 80.2864C50.0417 80.6067 50.1276 80.8763 50.2995 81.095C50.4674 81.3138 50.7409 81.4232 51.1198 81.4232C51.3229 81.4232 51.4987 81.3821 51.6471 81.3001C51.7956 81.222 51.9284 81.0853 52.0456 80.89L54.5417 81.0599L54.0905 85.7708H48.0964V83.9193H52.1686L52.362 81.845L52.5905 82.0794C52.3483 82.4466 52.0358 82.7044 51.653 82.8528C51.2702 83.0052 50.8464 83.0814 50.3815 83.0814C49.7253 83.0814 49.1921 82.9583 48.7819 82.7122C48.3678 82.4661 48.0651 82.136 47.8737 81.722C47.6823 81.3079 47.5866 80.847 47.5866 80.3392C47.5866 79.6282 47.7546 79.0384 48.0905 78.5696C48.4264 78.1009 48.8678 77.7493 49.4147 77.515C49.9616 77.2845 50.5514 77.1692 51.1842 77.1692Z" fill="black"/>
<path d="M50.8228 77.4979C51.3158 77.4979 51.7776 77.5882 52.2082 77.7687C52.6387 77.9527 52.9946 78.2218 53.2759 78.576C53.5571 78.9302 53.7203 79.3659 53.7655 79.8833L52.1144 80.2218C52.0971 79.7843 51.979 79.4302 51.7603 79.1593C51.5415 78.8885 51.2255 78.7531 50.8123 78.7531C50.538 78.7531 50.3054 78.8156 50.1144 78.9406C49.9234 79.0691 49.7759 79.2427 49.6717 79.4614C49.5675 79.6836 49.5155 79.9336 49.5155 80.2114C49.5155 80.6177 49.6283 80.9406 49.854 81.1802C50.0797 81.4198 50.3922 81.5396 50.7915 81.5396C51.0762 81.5396 51.3089 81.4736 51.4894 81.3416C51.6665 81.2097 51.8089 81.0378 51.9165 80.826L53.5571 80.951L53.203 85.1333H48.328V83.8573H51.9009L52.0884 81.5812L52.3123 81.7062C52.1075 82.0291 51.8366 82.2757 51.4998 82.4458C51.163 82.6194 50.7741 82.7062 50.3332 82.7062C49.8054 82.7062 49.3592 82.5986 48.9946 82.3833C48.6266 82.168 48.3488 81.8746 48.1613 81.5031C47.9738 81.135 47.88 80.7166 47.88 80.2479C47.88 79.6576 48.0172 79.1576 48.2915 78.7479C48.5658 78.3382 48.9269 78.0274 49.3748 77.8156C49.8228 77.6038 50.3054 77.4979 50.8228 77.4979Z" fill="white"/>
</svg>
