<svg width="61" height="93" viewBox="0 0 61 93" fill="none" xmlns="http://www.w3.org/2000/svg">
<g clip-path="url(#clip0_2025_59)">
<mask id="mask0_2025_59" style="mask-type:luminance" maskUnits="userSpaceOnUse" x="0" y="0" width="61" height="93">
<path d="M61 0H0V93H61V0Z" fill="white"/>
</mask>
<g mask="url(#mask0_2025_59)">
<path d="M56.6081 0.122314H4.39207C2.03381 0.122314 0.12207 2.03983 0.12207 4.40521V88.5947C0.12207 90.9601 2.03381 92.8776 4.39207 92.8776H56.6081C58.9663 92.8776 60.8781 90.9601 60.8781 88.5947V4.40521C60.8781 2.03983 58.9663 0.122314 56.6081 0.122314Z" fill="#EDF0F7" stroke="#E8EAED" stroke-width="0.252421"/>
<path d="M50.7521 4.40527H10.2481C7.01391 4.40527 4.39209 7.03501 4.39209 10.279V82.7211C4.39209 85.965 7.01391 88.5947 10.2481 88.5947H50.7521C53.9863 88.5947 56.6081 85.965 56.6081 82.7211V10.279C56.6081 7.03501 53.9863 4.40527 50.7521 4.40527Z" fill="black"/>
<path d="M15.906 84.1052C19.1603 84.1995 22.7683 83.2814 26.5141 81.406C30.2602 79.5309 34.0671 76.7369 37.7076 73.1912C41.3478 69.6454 44.747 65.4208 47.7015 60.7701C50.6561 56.1191 53.1057 51.1372 54.9035 46.1226L30.1848 46.8039L15.906 84.1052Z" fill="#509916"/>
<path d="M15.8201 84.1026C9.4999 83.8848 4.90443 79.851 3.01958 72.8663C1.13473 65.8815 2.11065 56.5024 5.73798 46.7411L30.1848 46.804L15.8201 84.1026Z" fill="#E4D501"/>
<path d="M5.68481 46.8847C7.52694 41.8933 10.008 36.9508 12.9812 32.3493C15.9543 27.748 19.3591 23.5815 22.9938 20.0964C26.6285 16.6114 30.4193 13.8788 34.1418 12.0603C37.8642 10.2418 41.4427 9.37455 44.665 9.50979L30.1848 46.8039L5.68481 46.8847Z" fill="#E10007"/>
<path d="M44.6191 9.50793C50.8621 9.7512 55.4125 13.7296 57.3132 20.6063C59.214 27.483 58.3168 36.722 54.8108 46.3801L30.1848 46.8039L44.6191 9.50793Z" fill="#0074D3"/>
<path d="M48.3575 57.3277C42.779 67.0193 35.6351 74.5109 28.6506 78.8136C21.6194 83.145 15.0371 84.0955 10.2987 81.3515C5.56043 78.6078 3.0901 72.4147 3.31432 64.1414C3.53704 55.9231 6.43356 45.9719 12.0121 36.2803C17.5906 26.589 24.7344 19.0973 31.7189 14.7946C38.75 10.4633 45.3324 9.51255 50.0707 12.2565C54.8092 15.0004 57.2794 21.1934 57.0552 29.4666C56.8324 37.6851 53.9359 47.6363 48.3575 57.3277Z" stroke="#F7F1F5" stroke-width="2.52421"/>
<path d="M10.609 23.8164C11.3417 23.8376 12.154 23.6309 12.9974 23.2087C13.8407 22.7865 14.6978 22.1575 15.5174 21.3592C16.337 20.5609 17.1023 19.6098 17.7675 18.5627C18.4327 17.5156 18.9842 16.394 19.3889 15.265L13.8238 15.4184L10.609 23.8164Z" fill="#509916"/>
<path d="M10.5898 23.8158C9.16685 23.7668 8.13222 22.8586 7.70788 21.286C7.28351 19.7135 7.50323 17.6019 8.3199 15.4042L13.8239 15.4184L10.5898 23.8158Z" fill="#E4D501"/>
<path d="M8.30786 15.4365C8.72259 14.3128 9.28118 13.2 9.95057 12.1641C10.6199 11.1281 11.3865 10.1901 12.2048 9.40544C13.0231 8.62081 13.8766 8.00559 14.7147 7.59617C15.5527 7.18677 16.3584 6.9915 17.0839 7.02194L13.8238 15.4184L8.30786 15.4365Z" fill="#E10007"/>
<path d="M17.0735 7.02155C18.479 7.07632 19.5035 7.97203 19.9314 9.52024C20.3593 11.0685 20.1574 13.1485 19.368 15.3229L13.8237 15.4184L17.0735 7.02155Z" fill="#0074D3"/>
<path d="M17.7305 17.6807C16.4887 19.838 14.9036 21.496 13.3668 22.4427C11.8114 23.4008 10.4202 23.571 9.45337 23.0112C8.48655 22.4513 7.93789 21.1577 7.98747 19.3276C8.03649 17.5193 8.67545 15.3133 9.91719 13.1561C11.1589 10.9989 12.7441 9.34084 14.2809 8.39412C15.8363 7.43598 17.2275 7.26579 18.1943 7.82567C19.1611 8.38556 19.7098 9.67909 19.6602 11.5093C19.6112 13.3175 18.9722 15.5235 17.7305 17.6807Z" stroke="#F7F1F5" stroke-width="1.00968"/>
<path d="M49.9787 69.6728C49.246 69.6518 48.4337 69.8584 47.5904 70.2808C46.7469 70.7029 45.89 71.3319 45.0704 72.1303C44.2508 72.9283 43.4854 73.8796 42.8202 74.9266C42.1551 75.9738 41.6036 77.0955 41.1989 78.2244L46.764 78.071L49.9787 69.6728Z" fill="#509916"/>
<path d="M49.9978 69.6736C51.4208 69.7226 52.4553 70.6308 52.8797 72.2035C53.304 73.7759 53.0844 75.8875 52.2677 78.0853L46.7638 78.0711L49.9978 69.6736Z" fill="#E4D501"/>
<path d="M52.2797 78.0529C51.8649 79.1765 51.3064 80.2893 50.6371 81.3253C49.9676 82.3613 49.2012 83.2993 48.3828 84.084C47.5644 84.8686 46.7109 85.4839 45.873 85.8933C45.0349 86.3028 44.2292 86.4978 43.5038 86.4675L46.7639 78.071L52.2797 78.0529Z" fill="#E10007"/>
<path d="M43.5141 86.468C42.1087 86.4131 41.0841 85.5174 40.6562 83.9692C40.2282 82.421 40.4302 80.341 41.2196 78.1665L46.764 78.071L43.5141 86.468Z" fill="#0074D3"/>
<path d="M42.8571 75.8087C44.0988 73.6516 45.6841 71.9935 47.2208 71.0469C48.776 70.0887 50.1673 69.9184 51.134 70.4783C52.101 71.0383 52.6495 72.3317 52.6 74.1619C52.551 75.9702 51.9122 78.176 50.6704 80.3334C49.4285 82.4905 47.8435 84.1486 46.3065 85.0952C44.7513 86.0534 43.36 86.2237 42.3932 85.6638C41.4265 85.1038 40.8778 83.8104 40.9273 81.9802C40.9763 80.1719 41.6154 77.9661 42.8571 75.8087Z" stroke="#F7F1F5" stroke-width="1.00968"/>
</g>
<g filter="url(#filter0_d_2025_59)">
<mask id="path-19-outside-1_2025_59" maskUnits="userSpaceOnUse" x="6.23503" y="29.0359" width="51.1752" height="30.8544" fill="black">
<rect fill="white" x="6.23503" y="29.0359" width="51.1752" height="30.8544"/>
<path d="M16.2201 57.0591L8.20141 46.0091L11.0502 44.9723L16.2112 52.7995L16.3136 52.7622L15.4467 43.3721L17.8859 42.4843L23.2583 50.255L23.3667 50.2155L22.2825 40.884L25.1313 39.8472L26.0914 53.4663L23.5498 54.3913L18.2657 47.1818L18.1693 47.2169L18.7617 56.134L16.2201 57.0591Z"/>
<path d="M29.1349 38.39L33.6243 50.7245L31.0164 51.6737L26.527 39.3392L29.1349 38.39Z"/>
<path d="M35.7699 49.9436L31.2805 37.6091L33.8883 36.6599L37.5951 46.8443L42.8831 44.9196L43.6656 47.0697L35.7699 49.9436Z"/>
<path d="M49.7651 44.8497L45.3926 46.4412L40.9032 34.1066L45.3119 32.502C46.5526 32.0505 47.7105 31.9087 48.7856 32.0766C49.8593 32.2406 50.8043 32.6946 51.6208 33.4387C52.4413 34.1814 53.0846 35.1931 53.5508 36.4739C54.0185 37.7588 54.1774 38.9514 54.0277 40.0517C53.882 41.1505 53.4473 42.1113 52.7237 42.934C52.004 43.7552 51.0179 44.3938 49.7651 44.8497ZM47.1872 43.2576L48.8435 42.6547C49.6144 42.3741 50.2131 42.0016 50.6397 41.5371C51.0689 41.0672 51.3108 40.4949 51.3653 39.8203C51.4224 39.1402 51.2837 38.3404 50.949 37.4209C50.6173 36.5095 50.2117 35.8136 49.7322 35.3334C49.2568 34.8516 48.7064 34.57 48.081 34.4884C47.4557 34.4068 46.7575 34.5063 45.9866 34.7869L44.3243 35.3919L47.1872 43.2576Z"/>
</mask>
<path d="M16.2201 57.0591L8.20141 46.0091L11.0502 44.9723L16.2112 52.7995L16.3136 52.7622L15.4467 43.3721L17.8859 42.4843L23.2583 50.255L23.3667 50.2155L22.2825 40.884L25.1313 39.8472L26.0914 53.4663L23.5498 54.3913L18.2657 47.1818L18.1693 47.2169L18.7617 56.134L16.2201 57.0591Z" fill="#E10007"/>
<path d="M29.1349 38.39L33.6243 50.7245L31.0164 51.6737L26.527 39.3392L29.1349 38.39Z" fill="#0074D3"/>
<path d="M35.7699 49.9436L31.2805 37.6091L33.8883 36.6599L37.5951 46.8443L42.8831 44.9196L43.6656 47.0697L35.7699 49.9436Z" fill="#E4D501"/>
<path d="M49.7651 44.8497L45.3926 46.4412L40.9032 34.1066L45.3119 32.502C46.5526 32.0505 47.7105 31.9087 48.7856 32.0766C49.8593 32.2406 50.8043 32.6946 51.6208 33.4387C52.4413 34.1814 53.0846 35.1931 53.5508 36.4739C54.0185 37.7588 54.1774 38.9514 54.0277 40.0517C53.882 41.1505 53.4473 42.1113 52.7237 42.934C52.004 43.7552 51.0179 44.3938 49.7651 44.8497ZM47.1872 43.2576L48.8435 42.6547C49.6144 42.3741 50.2131 42.0016 50.6397 41.5371C51.0689 41.0672 51.3108 40.4949 51.3653 39.8203C51.4224 39.1402 51.2837 38.3404 50.949 37.4209C50.6173 36.5095 50.2117 35.8136 49.7322 35.3334C49.2568 34.8516 48.7064 34.57 48.081 34.4884C47.4557 34.4068 46.7575 34.5063 45.9866 34.7869L44.3243 35.3919L47.1872 43.2576Z" fill="#509916"/>
<path d="M16.2201 57.0591L15.6723 57.4566L15.9721 57.8696L16.4516 57.6951L16.2201 57.0591ZM8.20141 46.0091L7.96993 45.3731L7.12642 45.6801L7.65363 46.4066L8.20141 46.0091ZM11.0502 44.9723L11.6152 44.5997L11.321 44.1535L10.8187 44.3363L11.0502 44.9723ZM16.2112 52.7995L15.6462 53.1721L15.9404 53.6183L16.4427 53.4355L16.2112 52.7995ZM16.3136 52.7622L16.5451 53.3982L17.0355 53.2197L16.9875 52.7L16.3136 52.7622ZM15.4467 43.3721L15.2153 42.7361L14.7248 42.9146L14.7728 43.4343L15.4467 43.3721ZM17.8859 42.4843L18.4427 42.0994L18.1455 41.6695L17.6545 41.8483L17.8859 42.4843ZM23.2583 50.255L22.7016 50.6399L22.9988 51.0697L23.4898 50.891L23.2583 50.255ZM23.3667 50.2155L23.5982 50.8515L24.1008 50.6686L24.039 50.1374L23.3667 50.2155ZM22.2825 40.884L22.051 40.248L21.5485 40.4309L21.6102 40.9621L22.2825 40.884ZM25.1313 39.8472L25.8064 39.7996L25.7433 38.9042L24.8998 39.2112L25.1313 39.8472ZM26.0914 53.4663L26.3228 54.1023L26.8024 53.9277L26.7665 53.4187L26.0914 53.4663ZM23.5498 54.3913L23.0039 54.7914L23.3041 55.201L23.7812 55.0273L23.5498 54.3913ZM18.2657 47.1818L18.8116 46.7817L18.5114 46.3721L18.0342 46.5458L18.2657 47.1818ZM18.1693 47.2169L17.9379 46.5809L17.4603 46.7547L17.494 47.2618L18.1693 47.2169ZM18.7617 56.134L18.9932 56.77L19.4707 56.5962L19.437 56.0892L18.7617 56.134ZM16.7679 56.6616L8.74919 45.6116L7.65363 46.4066L15.6723 57.4566L16.7679 56.6616ZM8.4329 46.6451L11.2816 45.6083L10.8187 44.3363L7.96993 45.3731L8.4329 46.6451ZM10.4851 45.3449L15.6462 53.1721L16.7762 52.4269L11.6152 44.5997L10.4851 45.3449ZM16.4427 53.4355L16.5451 53.3982L16.0821 52.1262L15.9797 52.1635L16.4427 53.4355ZM16.9875 52.7L16.1207 43.3098L14.7728 43.4343L15.6396 52.8244L16.9875 52.7ZM15.6782 44.0081L18.1174 43.1203L17.6545 41.8483L15.2153 42.7361L15.6782 44.0081ZM17.3292 42.8692L22.7016 50.6399L23.815 49.8701L18.4427 42.0994L17.3292 42.8692ZM23.4898 50.891L23.5982 50.8515L23.1353 49.5795L23.0268 49.619L23.4898 50.891ZM24.039 50.1374L22.9548 40.8059L21.6102 40.9621L22.6944 50.2937L24.039 50.1374ZM22.514 41.52L25.3627 40.4832L24.8998 39.2112L22.051 40.248L22.514 41.52ZM24.4561 39.8948L25.4162 53.5139L26.7665 53.4187L25.8064 39.7996L24.4561 39.8948ZM25.8599 52.8303L23.3183 53.7553L23.7812 55.0273L26.3228 54.1023L25.8599 52.8303ZM24.0957 53.9912L18.8116 46.7817L17.7198 47.5819L23.0039 54.7914L24.0957 53.9912ZM18.0342 46.5458L17.9379 46.5809L18.4008 47.8529L18.4972 47.8178L18.0342 46.5458ZM17.494 47.2618L18.0864 56.1789L19.437 56.0892L18.8447 47.172L17.494 47.2618ZM18.5302 55.498L15.9886 56.4231L16.4516 57.6951L18.9932 56.77L18.5302 55.498ZM29.1349 38.39L29.7709 38.1585L29.5394 37.5225L28.9034 37.754L29.1349 38.39ZM33.6243 50.7245L33.8557 51.3605L34.4917 51.129L34.2603 50.493L33.6243 50.7245ZM31.0164 51.6737L30.3804 51.9052L30.6119 52.5412L31.2479 52.3097L31.0164 51.6737ZM26.527 39.3392L26.2955 38.7032L25.6595 38.9346L25.891 39.5706L26.527 39.3392ZM28.4989 38.6215L32.9883 50.956L34.2603 50.493L29.7709 38.1585L28.4989 38.6215ZM33.3928 50.0885L30.7849 51.0377L31.2479 52.3097L33.8557 51.3605L33.3928 50.0885ZM31.6524 51.4422L27.163 39.1077L25.891 39.5706L30.3804 51.9052L31.6524 51.4422ZM26.7585 39.9752L29.3663 39.026L28.9034 37.754L26.2955 38.7032L26.7585 39.9752ZM35.7699 49.9436L35.1339 50.1751L35.3653 50.8111L36.0013 50.5796L35.7699 49.9436ZM31.2805 37.6091L31.049 36.9731L30.413 37.2045L30.6445 37.8405L31.2805 37.6091ZM33.8883 36.6599L34.5243 36.4284L34.2928 35.7924L33.6568 36.0239L33.8883 36.6599ZM37.5951 46.8443L36.9591 47.0758L37.1906 47.7118L37.8266 47.4803L37.5951 46.8443ZM42.8831 44.9196L43.5191 44.6881L43.2876 44.0522L42.6516 44.2836L42.8831 44.9196ZM43.6656 47.0697L43.8971 47.7057L44.5331 47.4743L44.3016 46.8383L43.6656 47.0697ZM36.4059 49.7121L31.9165 37.3776L30.6445 37.8405L35.1339 50.1751L36.4059 49.7121ZM31.5119 38.2451L34.1198 37.2959L33.6568 36.0239L31.049 36.9731L31.5119 38.2451ZM33.2523 36.8914L36.9591 47.0758L38.2311 46.6128L34.5243 36.4284L33.2523 36.8914ZM37.8266 47.4803L43.1145 45.5556L42.6516 44.2836L37.3636 46.2083L37.8266 47.4803ZM42.2471 45.1511L43.0296 47.3012L44.3016 46.8383L43.5191 44.6881L42.2471 45.1511ZM43.4341 46.4337L35.5384 49.3076L36.0013 50.5796L43.8971 47.7057L43.4341 46.4337ZM45.3926 46.4412L44.7566 46.6726L44.9881 47.3086L45.6241 47.0772L45.3926 46.4412ZM40.9032 34.1066L40.6718 33.4706L40.0358 33.7021L40.2673 34.3381L40.9032 34.1066ZM48.7856 32.0766L48.6811 32.7453L48.6834 32.7457L48.7856 32.0766ZM51.6208 33.4387L51.1649 33.939L51.1666 33.9405L51.6208 33.4387ZM54.0277 40.0517L53.3571 39.9604L53.3568 39.9627L54.0277 40.0517ZM52.7237 42.934L52.2155 42.4869L52.2147 42.4879L52.7237 42.934ZM47.1872 43.2576L46.5512 43.489L46.7827 44.125L47.4187 43.8936L47.1872 43.2576ZM50.6397 41.5371L51.1382 41.995L51.1395 41.9935L50.6397 41.5371ZM51.3653 39.8203L50.6909 39.7636L50.6907 39.7657L51.3653 39.8203ZM49.7322 35.3334L49.2505 35.8088L49.2532 35.8115L49.7322 35.3334ZM48.081 34.4884L48.1686 33.8172L48.1686 33.8172L48.081 34.4884ZM44.3243 35.3919L44.0929 34.7559L43.4569 34.9874L43.6884 35.6234L44.3243 35.3919ZM49.5337 44.2137L45.1612 45.8052L45.6241 47.0772L49.9966 45.4857L49.5337 44.2137ZM46.0286 46.2097L41.5392 33.8752L40.2673 34.3381L44.7566 46.6726L46.0286 46.2097ZM41.1347 34.7426L45.5434 33.138L45.0804 31.866L40.6718 33.4706L41.1347 34.7426ZM45.5434 33.138C46.6994 32.7173 47.7407 32.5984 48.6811 32.7453L48.8901 31.4079C47.6802 31.2189 46.4057 31.3837 45.0804 31.866L45.5434 33.138ZM48.6834 32.7457C49.6227 32.8891 50.4453 33.2832 51.1649 33.939L52.0767 32.9385C51.1633 32.1061 50.0958 31.592 48.8878 31.4076L48.6834 32.7457ZM51.1666 33.9405C51.8886 34.594 52.4777 35.5045 52.9148 36.7054L54.1868 36.2424C53.6915 34.8817 52.994 33.7687 52.075 32.9369L51.1666 33.9405ZM52.9148 36.7054C53.3535 37.9106 53.4889 38.9913 53.3571 39.9604L54.6984 40.1429C54.8659 38.9115 54.6835 37.6069 54.1868 36.2424L52.9148 36.7054ZM53.3568 39.9627C53.2285 40.9304 52.8496 41.7661 52.2155 42.4869L53.2319 43.381C54.0451 42.4564 54.5356 41.3707 54.6987 40.1406L53.3568 39.9627ZM52.2147 42.4879C51.585 43.2065 50.7028 43.7882 49.5337 44.2137L49.9966 45.4857C51.3329 44.9993 52.4231 44.3039 53.2327 43.38L52.2147 42.4879ZM47.4187 43.8936L49.0749 43.2907L48.612 42.0187L46.9557 42.6216L47.4187 43.8936ZM49.0749 43.2907C49.9182 42.9838 50.6194 42.5598 51.1382 41.995L50.1413 41.0793C49.8068 41.4435 49.3106 41.7645 48.612 42.0187L49.0749 43.2907ZM51.1395 41.9935C51.6766 41.4054 51.9741 40.6889 52.0399 39.8748L50.6907 39.7657C50.6474 40.3009 50.4612 40.7289 50.14 41.0807L51.1395 41.9935ZM52.0398 39.8769C52.1078 39.0663 51.9397 38.164 51.585 37.1894L50.313 37.6524C50.6276 38.5168 50.737 39.2141 50.6909 39.7636L52.0398 39.8769ZM51.585 37.1894C51.233 36.2222 50.7836 35.4285 50.2112 34.8552L49.2532 35.8115C49.6397 36.1987 50.0016 36.7967 50.313 37.6524L51.585 37.1894ZM50.2139 34.8579C49.6409 34.2773 48.9547 33.9198 48.1686 33.8172L47.9935 35.1595C48.458 35.2201 48.8727 35.426 49.2505 35.8088L50.2139 34.8579ZM48.1686 33.8172C47.4081 33.718 46.5984 33.844 45.7551 34.1509L46.2181 35.4229C46.9167 35.1686 47.5032 35.0955 47.9935 35.1595L48.1686 33.8172ZM45.7551 34.1509L44.0929 34.7559L44.5558 36.0279L46.2181 35.4229L45.7551 34.1509ZM43.6884 35.6234L46.5512 43.489L47.8232 43.0261L44.9603 35.1604L43.6884 35.6234Z" fill="white" mask="url(#path-19-outside-1_2025_59)"/>
</g>
</g>
<defs>
<filter id="filter0_d_2025_59" x="2.22646" y="30.4315" width="57.4326" height="36.3381" filterUnits="userSpaceOnUse" color-interpolation-filters="sRGB">
<feFlood flood-opacity="0" result="BackgroundImageFix"/>
<feColorMatrix in="SourceAlpha" type="matrix" values="0 0 0 0 0 0 0 0 0 0 0 0 0 0 0 0 0 0 127 0" result="hardAlpha"/>
<feOffset dy="4"/>
<feGaussianBlur stdDeviation="2.45"/>
<feComposite in2="hardAlpha" operator="out"/>
<feColorMatrix type="matrix" values="0 0 0 0 0 0 0 0 0 0 0 0 0 0 0 0 0 0 1 0"/>
<feBlend mode="normal" in2="BackgroundImageFix" result="effect1_dropShadow_2025_59"/>
<feBlend mode="normal" in="SourceGraphic" in2="effect1_dropShadow_2025_59" result="shape"/>
</filter>
<clipPath id="clip0_2025_59">
<rect width="61" height="93" fill="white"/>
</clipPath>
</defs>
</svg>
