<svg width="62" height="93" viewBox="0 0 62 93" fill="none" xmlns="http://www.w3.org/2000/svg">
<rect width="61.18" height="93" rx="4" fill="white"/>
<rect x="4" y="4" width="53" height="85" rx="3.56989" fill="#FFF533"/>
<path d="M50.1712 12.2458C55.1568 15.1242 57.7467 21.4823 57.61 29.7998C57.4739 38.0786 54.6218 48.0559 49.0349 57.7327C43.448 67.4095 36.2335 74.868 29.1319 79.1253C21.9971 83.4025 15.1958 84.3386 10.2102 81.4602C5.22468 78.5818 2.63473 72.2236 2.77147 63.9061C2.90758 55.6273 5.75963 45.6501 11.3465 35.9733C16.9334 26.2965 24.1479 18.8379 31.2495 14.5806C38.3844 10.3034 45.1856 9.36734 50.1712 12.2458Z" fill="#FFF533" stroke="white" stroke-width="2"/>
<path d="M21.9087 63.9C22.9341 58.4508 24.626 53.6241 26.9844 49.42C29.3574 45.2159 32.1187 41.8102 35.2681 39.2028H17.6899V32.2594H43.332V38.1261C41.5303 40.382 39.9702 42.4913 38.6519 44.4542C37.3481 46.4025 36.2349 48.3507 35.312 50.299C34.3892 52.2472 33.5908 54.3199 32.917 56.5172C32.2578 58.7145 31.6646 61.1754 31.1372 63.9H21.9087Z" fill="black"/>
<path d="M24.5332 61C25.5208 56.0352 27.0557 51.5641 29.1377 47.5869C31.2331 43.6097 33.7422 40.1063 36.665 37.0767H20.6494V32.1719H42.3506V36.356C40.8291 38.3979 39.4678 40.3732 38.2666 42.2817C37.0654 44.1903 36.0111 46.1121 35.1035 48.0474C34.196 49.9692 33.4152 51.9912 32.7612 54.1133C32.1073 56.222 31.5534 58.5176 31.0996 61H24.5332Z" fill="white"/>
<path d="M7.54232 15.3C7.81576 13.8469 8.26693 12.5598 8.89583 11.4387C9.52865 10.3176 10.265 9.40936 11.1048 8.71405H6.41732V6.86249H13.2552V8.42694C12.7747 9.0285 12.3587 9.591 12.0072 10.1144C11.6595 10.634 11.3626 11.1535 11.1165 11.673C10.8704 12.1926 10.6576 12.7453 10.4779 13.3312C10.3021 13.9172 10.1439 14.5734 10.0033 15.3H7.54232Z" fill="black"/>
<path d="M8.35433 15C8.61127 13.7083 9.01058 12.5451 9.55225 11.5104C10.0974 10.4757 10.7502 9.56424 11.5106 8.77604H7.34391V7.5H12.9897V8.58854C12.5939 9.11979 12.2397 9.63368 11.9272 10.1302C11.6147 10.6267 11.3404 11.1267 11.1043 11.6302C10.8682 12.1302 10.6651 12.6562 10.495 13.2083C10.3248 13.7569 10.1807 14.3542 10.0627 15H8.35433Z" fill="white"/>
<path d="M53.4577 77.3333C53.1842 78.7864 52.7331 80.0735 52.1042 81.1946C51.4714 82.3157 50.735 83.2239 49.8952 83.9193H54.5827V85.7708H47.7448V84.2064C48.2253 83.6048 48.6413 83.0423 48.9928 82.5189C49.3405 81.9993 49.6374 81.4798 49.8835 80.9603C50.1296 80.4407 50.3424 79.888 50.5221 79.3021C50.6979 78.7161 50.8561 78.0599 50.9967 77.3333H53.4577Z" fill="black"/>
<path d="M52.6457 77.6333C52.3887 78.925 51.9894 80.0882 51.4478 81.1229C50.9026 82.1576 50.2498 83.0691 49.4894 83.8573H53.6561V85.1333H48.0103V84.0448C48.4061 83.5135 48.7603 82.9996 49.0728 82.5031C49.3853 82.0066 49.6596 81.5066 49.8957 81.0031C50.1318 80.5031 50.3349 79.9771 50.505 79.425C50.6752 78.8764 50.8193 78.2791 50.9373 77.6333H52.6457Z" fill="white"/>
</svg>
