<svg width="61" height="93" viewBox="0 0 61 93" fill="none" xmlns="http://www.w3.org/2000/svg">
<rect width="61" height="93" rx="3.30945" fill="white"/>
<rect x="3.99976" y="4" width="53" height="85" rx="2.95359" fill="#509916"/>
<path d="M50.2575 12.0963C55.322 15.0202 57.9198 21.4573 57.7826 29.8027C57.6459 38.116 54.7832 48.1217 49.1844 57.819C43.5857 67.5163 36.3519 74.9984 29.2207 79.2734C22.062 83.5649 15.1884 84.5337 10.1239 81.6097C5.05942 78.6857 2.46166 72.2486 2.59886 63.9033C2.73553 55.59 5.59827 45.5843 11.197 35.887C16.7958 26.1896 24.0296 18.7076 31.1608 14.4326C38.3195 10.1411 45.193 9.17226 50.2575 12.0963Z" fill="#509916" stroke="white" stroke-width="1.65472"/>
<path d="M18.9597 43.9591C18.9597 43.5824 19.2651 43.277 19.6417 43.277H31.4669C31.8436 43.277 32.1489 43.5824 32.1489 43.9591V64.0275C32.1489 64.4041 31.8436 64.7095 31.4669 64.7095H19.6417C19.2651 64.7095 18.9597 64.4041 18.9597 64.0275V43.9591Z" fill="black"/>
<path d="M25.5542 33.2428C25.5542 32.8661 25.8595 32.5608 26.2362 32.5608H38.0614C38.438 32.5608 38.7434 32.8661 38.7434 33.2428V53.3112C38.7434 53.6879 38.438 53.9932 38.0614 53.9932H26.2362C25.8595 53.9932 25.5542 53.6879 25.5542 53.3112V33.2428Z" fill="black"/>
<path d="M28.0907 30.7131H39.9159C40.1748 30.7131 40.3848 30.9231 40.3848 31.182V51.2504C40.3848 51.5094 40.1748 51.7193 39.9159 51.7193H28.0907C27.8317 51.7193 27.6218 51.5094 27.6218 51.2504V31.182C27.6218 30.9231 27.8317 30.7131 28.0907 30.7131Z" fill="white" stroke="black" stroke-width="0.426259"/>
<path d="M8.89086 15.5328V9.59178H10.6892V15.5328H8.89086ZM6.81952 13.4615V11.6631H12.7606V13.4615H6.81952ZM14.1234 16.6568V15.0511L17.1903 12.5141C17.3936 12.3455 17.5676 12.1876 17.7121 12.0404C17.8593 11.8906 17.9717 11.7367 18.0493 11.5788C18.1296 11.4209 18.1697 11.2456 18.1697 11.053C18.1697 10.8415 18.1242 10.6609 18.0332 10.511C17.9449 10.3612 17.8218 10.2461 17.6639 10.1658C17.506 10.0828 17.3241 10.0414 17.118 10.0414C16.9119 10.0414 16.73 10.0828 16.5721 10.1658C16.4168 10.2488 16.2964 10.3705 16.2108 10.5311C16.1251 10.6917 16.0823 10.887 16.0823 11.1172H13.9628C13.9628 10.5391 14.0926 10.0414 14.3522 9.62389C14.6118 9.20641 14.9784 8.88527 15.4521 8.66048C15.9258 8.43568 16.4811 8.32328 17.118 8.32328C17.7763 8.32328 18.3463 8.42899 18.8281 8.64041C19.3124 8.84915 19.6858 9.14352 19.948 9.52353C20.213 9.90355 20.3454 10.3491 20.3454 10.8603C20.3454 11.1761 20.2799 11.4905 20.1487 11.8036C20.0176 12.114 19.7821 12.4579 19.4422 12.8353C19.1024 13.2126 18.6193 13.6622 17.9931 14.184L17.2224 14.8263V14.8745H20.4337V16.6568H14.1234Z" fill="black"/>
<path d="M9.495 14.9806V9.4249H10.7555V14.9806H9.495ZM7.34739 12.833V11.5725H12.9031V12.833H7.34739ZM14.3733 16.2972V15.2214L17.2274 12.4235C17.5004 12.1479 17.7278 11.903 17.9098 11.6889C18.0918 11.4748 18.2283 11.2674 18.3193 11.0667C18.4102 10.866 18.4557 10.6519 18.4557 10.4244C18.4557 10.1649 18.3969 9.94273 18.2791 9.75808C18.1614 9.57075 17.9995 9.42624 17.7934 9.32455C17.5873 9.22285 17.3532 9.172 17.0909 9.172C16.8206 9.172 16.5838 9.2282 16.3804 9.3406C16.177 9.45032 16.0191 9.60688 15.9067 9.81027C15.797 10.0137 15.7421 10.2558 15.7421 10.5368H14.3251C14.3251 10.015 14.4442 9.56138 14.6824 9.17602C14.9205 8.79065 15.2484 8.49226 15.6659 8.28085C16.086 8.06943 16.5677 7.96373 17.111 7.96373C17.6623 7.96373 18.1466 8.06676 18.5641 8.27282C18.9816 8.47888 19.3054 8.76122 19.5356 9.11982C19.7684 9.47842 19.8848 9.88787 19.8848 10.3482C19.8848 10.6559 19.8259 10.9583 19.7082 11.2554C19.5904 11.5524 19.383 11.8816 19.086 12.2429C18.7916 12.6042 18.3781 13.0417 17.8456 13.5555L16.4286 14.9966V15.0528H20.0092V16.2972H14.3733Z" fill="white"/>
<path d="M51.2849 77.151V83.092H49.4866V77.151H51.2849ZM53.3563 79.2223V81.0207H47.4152V79.2223H53.3563ZM46.0524 76.027V77.6327L42.9855 80.1696C42.7821 80.3382 42.6082 80.4961 42.4637 80.6433C42.3165 80.7932 42.2041 80.9471 42.1265 81.105C42.0462 81.2629 42.0061 81.4381 42.0061 81.6308C42.0061 81.8422 42.0516 82.0229 42.1425 82.1727C42.2309 82.3226 42.354 82.4377 42.5118 82.518C42.6697 82.6009 42.8517 82.6424 43.0578 82.6424C43.2638 82.6424 43.4458 82.6009 43.6037 82.518C43.7589 82.435 43.8794 82.3132 43.965 82.1527C44.0506 81.9921 44.0935 81.7967 44.0935 81.5666H46.213C46.213 82.1446 46.0832 82.6424 45.8236 83.0599C45.564 83.4774 45.1974 83.7985 44.7237 84.0233C44.25 84.2481 43.6947 84.3605 43.0578 84.3605C42.3995 84.3605 41.8294 84.2548 41.3477 84.0434C40.8633 83.8346 40.49 83.5403 40.2278 83.1602C39.9628 82.7802 39.8304 82.3347 39.8304 81.8235C39.8304 81.5077 39.8959 81.1933 40.027 80.8802C40.1582 80.5697 40.3937 80.2258 40.7336 79.8485C41.0734 79.4712 41.5565 79.0216 42.1827 78.4997L42.9534 77.8575V77.8093H39.742V76.027H46.0524Z" fill="black"/>
<path d="M50.6808 77.7032V83.2589H49.4203V77.7032H50.6808ZM52.8284 79.8508V81.1113H47.2727V79.8508H52.8284ZM45.8025 76.3865V77.4623L42.9484 80.2603C42.6754 80.5359 42.448 80.7808 42.266 80.9949C42.084 81.2089 41.9475 81.4164 41.8565 81.6171C41.7655 81.8178 41.72 82.0319 41.72 82.2593C41.72 82.5189 41.7789 82.741 41.8967 82.9257C42.0144 83.113 42.1763 83.2575 42.3824 83.3592C42.5885 83.4609 42.8226 83.5118 43.0849 83.5118C43.3552 83.5118 43.592 83.4556 43.7954 83.3432C43.9988 83.2335 44.1567 83.0769 44.2691 82.8735C44.3788 82.6701 44.4337 82.4279 44.4337 82.1469H45.8507C45.8507 82.6688 45.7316 83.1224 45.4934 83.5078C45.2552 83.8931 44.9274 84.1915 44.5099 84.4029C44.0898 84.6143 43.6081 84.7201 43.0648 84.7201C42.5135 84.7201 42.0291 84.617 41.6117 84.411C41.1942 84.2049 40.8704 83.9226 40.6402 83.564C40.4074 83.2054 40.291 82.7959 40.291 82.3356C40.291 82.0278 40.3499 81.7254 40.4676 81.4284C40.5854 81.1313 40.7928 80.8022 41.0898 80.4409C41.3842 80.0796 41.7977 79.6421 42.3302 79.1282L43.7472 77.6871V77.6309H40.1665V76.3865H45.8025Z" fill="white"/>
<path d="M33.3214 41.0031H21.4962C21.0018 41.0031 20.6011 41.4038 20.6011 41.8982V61.9666C20.6011 62.461 21.0019 62.8617 21.4962 62.8617H33.3214C33.8158 62.8617 34.2165 62.461 34.2165 61.9666V41.8982C34.2165 41.4038 33.8158 41.0031 33.3214 41.0031Z" fill="white" stroke="black" stroke-width="0.426259"/>
</svg>
