<svg width="61" height="93" viewBox="0 0 61 93" fill="none" xmlns="http://www.w3.org/2000/svg">
<rect width="61" height="93" rx="3.30945" fill="white"/>
<rect x="3.99976" y="4" width="53" height="85" rx="2.9536" fill="black"/>
<path d="M50.2575 12.0962C55.322 15.0202 57.9198 21.4573 57.7826 29.8026C57.6459 38.1159 54.7832 48.1216 49.1844 57.8189C43.5857 67.5162 36.3519 74.9983 29.2207 79.2733C22.062 83.5648 15.1884 84.5336 10.1239 81.6096C5.05942 78.6856 2.46166 72.2486 2.59886 63.9032C2.73553 55.5899 5.59827 45.5842 11.197 35.8869C16.7958 26.1896 24.0296 18.7075 31.1608 14.4325C38.3195 10.141 45.193 9.1722 50.2575 12.0962Z" fill="white" stroke="white" stroke-width="1.65472"/>
<path d="M8.51001 15.5328V9.59178H10.3084V15.5328H8.51001ZM6.43867 13.4615V11.6631H12.3797V13.4615H6.43867ZM13.7947 15.3722V13.6381L17.1024 8.43568H18.676V10.7479H17.7768L15.9945 13.5739V13.6381H20.8758V15.3722H13.7947ZM17.7929 16.6568V14.8424L17.8411 14.0877V8.43568H19.9285V16.6568H17.7929Z" fill="black"/>
<path d="M9.09747 14.9806V9.4249H10.3579V14.9806H9.09747ZM6.94986 12.833V11.5725H12.5055V12.833H6.94986ZM14.1142 14.7718V13.5876L17.6026 8.07612H18.5901V9.76209H17.988L15.6396 13.4833V13.5475H20.5089V14.7718H14.1142ZM18.0361 16.2972V14.4106L18.0522 13.8807V8.07612H19.4572V16.2972H18.0361Z" fill="white"/>
<path d="M51.6658 77.151V83.0921H49.8674V77.151H51.6658ZM53.7371 79.2224V81.0207H47.7961V79.2224H53.7371ZM46.3811 77.3116V79.0457L43.0733 84.2482H41.4998V81.936H42.3989L44.1813 79.11V79.0457H39.3V77.3116H46.3811ZM42.3829 76.027V77.8415L42.3347 78.5961V84.2482H40.2473V76.027H42.3829Z" fill="black"/>
<path d="M51.0782 77.7033V83.2589H49.8177V77.7033H51.0782ZM53.2258 79.8509V81.1113H47.6701V79.8509H53.2258ZM46.0614 77.912V79.0962L42.5731 84.6077H41.5856V82.9217H42.1877L44.536 79.2006V79.1363H39.6668V77.912H46.0614ZM42.1395 76.3866V78.2733L42.1235 78.8032V84.6077H40.7185V76.3866H42.1395Z" fill="white"/>
<path d="M26.3067 48.3541C26.3956 48.1064 26.6304 47.9412 26.8936 47.9412H37.6274C38.059 47.9412 38.3601 48.3692 38.2143 48.7755L31.4702 67.5643C31.3813 67.812 31.1465 67.9772 30.8833 67.9772H20.1495C19.7179 67.9772 19.4168 67.5492 19.5626 67.1429L26.3067 48.3541Z" fill="black"/>
<path d="M36.6768 45.4289H25.943C25.4766 45.4289 25.0604 45.7218 24.9028 46.1607L18.1588 64.9496C17.9004 65.6696 18.434 66.4281 19.199 66.4281H29.9328C30.3992 66.4281 30.8154 66.1352 30.973 65.6963L37.717 46.9074C37.9754 46.1874 37.4418 45.4289 36.6768 45.4289Z" fill="#FFF533" stroke="white" stroke-width="0.963158"/>
<path d="M19.2435 39.9024C19.3325 39.6547 19.5673 39.4895 19.8304 39.4895H30.5643C30.9959 39.4895 31.297 39.9175 31.1512 40.3237L24.4071 59.1125C24.3182 59.3602 24.0834 59.5255 23.8202 59.5255H13.0864C12.6548 59.5255 12.3537 59.0975 12.4995 58.6912L19.2435 39.9024Z" fill="black"/>
<path d="M30.5767 36.9772H19.8429C19.3765 36.9772 18.9603 37.27 18.8027 37.709L12.0587 56.4978C11.8003 57.2178 12.3339 57.9763 13.0989 57.9763H23.8327C24.2991 57.9763 24.7153 57.6835 24.8729 57.2445L31.6169 38.4557C31.8753 37.7357 31.3417 36.9772 30.5767 36.9772Z" fill="#E10007" stroke="white" stroke-width="0.963158"/>
<path d="M31.4435 26.5225C31.5324 26.2748 31.7672 26.1096 32.0304 26.1096H42.7642C43.1959 26.1096 43.4969 26.5376 43.3511 26.9438L36.6071 45.7327C36.5182 45.9804 36.2834 46.1456 36.0202 46.1456H25.2864C24.8547 46.1456 24.5536 45.7176 24.6995 45.3113L31.4435 26.5225Z" fill="black"/>
<path d="M41.4926 24.2395H30.7588C30.2924 24.2395 29.8762 24.5323 29.7186 24.9713L22.9746 43.7601C22.7162 44.4801 23.2498 45.2386 24.0148 45.2386H34.7486C35.215 45.2386 35.6312 44.9458 35.7887 44.5068L42.5328 25.718C42.7912 24.998 42.2576 24.2395 41.4926 24.2395Z" fill="#0074D3" stroke="white" stroke-width="0.963158"/>
<path d="M35.9382 36.1542C36.0272 35.9065 36.262 35.7413 36.5252 35.7413H47.259C47.6906 35.7413 47.9917 36.1692 47.8459 36.5755L41.1018 55.3643C41.0129 55.612 40.7781 55.7772 40.5149 55.7772H29.7811C29.3495 55.7772 29.0484 55.3493 29.1942 54.943L35.9382 36.1542Z" fill="black"/>
<path d="M46.3084 33.2289H35.5746C35.1082 33.2289 34.692 33.5217 34.5344 33.9607L27.7904 52.7495C27.5319 53.4695 28.0656 54.228 28.8306 54.228H39.5644C40.0308 54.228 40.447 53.9352 40.6045 53.4963L47.3486 34.7074C47.607 33.9874 47.0734 33.2289 46.3084 33.2289Z" fill="#509916" stroke="white" stroke-width="0.963158"/>
</svg>
