<svg width="62" height="93" viewBox="0 0 62 93" fill="none" xmlns="http://www.w3.org/2000/svg">
<rect width="61.18" height="93" rx="4" fill="white"/>
<rect x="4" y="4" width="53" height="85" rx="3.56989" fill="#509916"/>
<path d="M50.1712 12.2457C55.1568 15.1241 57.7467 21.4823 57.61 29.7998C57.4739 38.0786 54.6218 48.0558 49.0349 57.7326C43.448 67.4094 36.2335 74.868 29.1319 79.1253C21.9971 83.4025 15.1958 84.3386 10.2102 81.4601C5.22468 78.5817 2.63473 72.2236 2.77147 63.9061C2.90758 55.6273 5.75963 45.65 11.3465 35.9732C16.9334 26.2964 24.1479 18.8379 31.2495 14.5806C38.3844 10.3034 45.1856 9.36731 50.1712 12.2457Z" fill="#509916" stroke="white" stroke-width="2"/>
<path d="M30.5 64.5152C26.2373 64.5152 22.9561 63.0943 20.6562 60.2525C18.3564 57.4107 17.2065 53.3531 17.2065 48.0797C17.2065 42.8209 18.3564 38.7706 20.6562 35.9288C22.9561 33.0724 26.2373 31.6441 30.5 31.6441C34.7773 31.6441 38.0586 33.0724 40.3438 35.9288C42.6289 38.7706 43.7715 42.8209 43.7715 48.0797C43.7715 53.3385 42.6289 57.3961 40.3438 60.2525C38.0586 63.0943 34.7773 64.5152 30.5 64.5152ZM30.478 57.5719C31.855 57.5719 32.8804 56.7809 33.5542 55.1988C34.2427 53.6168 34.5869 51.2511 34.5869 48.1017C34.5869 44.9376 34.2427 42.5645 33.5542 40.9825C32.8804 39.4005 31.855 38.6095 30.478 38.6095C29.1157 38.6095 28.0903 39.4005 27.4019 40.9825C26.728 42.5645 26.3911 44.9376 26.3911 48.1017C26.3911 51.2511 26.728 53.6168 27.4019 55.1988C28.0903 56.7809 29.1157 57.5719 30.478 57.5719Z" fill="black"/>
<path d="M31.5 62.5205C27.8564 62.5205 25.0404 61.2259 23.0518 58.6367C21.0765 56.0342 20.0889 52.3506 20.0889 47.5859C20.0889 42.8346 21.0765 39.1577 23.0518 36.5552C25.0404 33.9526 27.8564 32.6514 31.5 32.6514C35.1569 32.6514 37.973 33.9526 39.9482 36.5552C41.9235 39.1577 42.9111 42.8346 42.9111 47.5859C42.9111 52.3372 41.9235 56.0142 39.9482 58.6167C37.973 61.2192 35.1569 62.5205 31.5 62.5205ZM31.5 57.7158C33.1683 57.7158 34.4229 56.8617 35.2637 55.1533C36.1178 53.445 36.5449 50.9225 36.5449 47.5859C36.5449 44.2493 36.1178 41.7336 35.2637 40.0386C34.4229 38.3302 33.1683 37.4761 31.5 37.4761C29.8317 37.4761 28.5705 38.3302 27.7163 40.0386C26.8755 41.7336 26.4551 44.2493 26.4551 47.5859C26.4551 50.9225 26.8755 53.445 27.7163 55.1533C28.5705 56.8617 29.8317 57.7158 31.5 57.7158Z" fill="white"/>
<path d="M9.83333 15.4641C8.69661 15.4641 7.82161 15.0852 7.20833 14.3273C6.59505 13.5695 6.28841 12.4875 6.28841 11.0813C6.28841 9.67891 6.59505 8.59883 7.20833 7.84102C7.82161 7.0793 8.69661 6.69844 9.83333 6.69844C10.974 6.69844 11.849 7.0793 12.4583 7.84102C13.0677 8.59883 13.3724 9.67891 13.3724 11.0813C13.3724 12.4836 13.0677 13.5656 12.4583 14.3273C11.849 15.0852 10.974 15.4641 9.83333 15.4641ZM9.82747 13.6125C10.1947 13.6125 10.4681 13.4016 10.6478 12.9797C10.8314 12.5578 10.9232 11.927 10.9232 11.0871C10.9232 10.2434 10.8314 9.61055 10.6478 9.18867C10.4681 8.7668 10.1947 8.55586 9.82747 8.55586C9.46419 8.55586 9.19076 8.7668 9.00716 9.18867C8.82747 9.61055 8.73763 10.2434 8.73763 11.0871C8.73763 11.927 8.82747 12.5578 9.00716 12.9797C9.19076 13.4016 9.46419 13.6125 9.82747 13.6125Z" fill="black"/>
<path d="M10.1668 15.1354C9.21891 15.1354 8.48627 14.7986 7.96891 14.125C7.45502 13.4479 7.19808 12.4896 7.19808 11.25C7.19808 10.0139 7.45502 9.05729 7.96891 8.38021C8.48627 7.70312 9.21891 7.36458 10.1668 7.36458C11.1182 7.36458 11.8509 7.70312 12.3647 8.38021C12.8786 9.05729 13.1356 10.0139 13.1356 11.25C13.1356 12.4861 12.8786 13.4427 12.3647 14.1198C11.8509 14.7969 11.1182 15.1354 10.1668 15.1354ZM10.1668 13.8854C10.6009 13.8854 10.9272 13.6632 11.146 13.2187C11.3682 12.7743 11.4793 12.1181 11.4793 11.25C11.4793 10.3819 11.3682 9.72743 11.146 9.28646C10.9272 8.84201 10.6009 8.61979 10.1668 8.61979C9.7328 8.61979 9.40468 8.84201 9.18245 9.28646C8.9637 9.72743 8.85433 10.3819 8.85433 11.25C8.85433 12.1181 8.9637 12.7743 9.18245 13.2187C9.40468 13.6632 9.7328 13.8854 10.1668 13.8854Z" fill="white"/>
<path d="M51.1667 77.1693C52.3034 77.1693 53.1784 77.5482 53.7917 78.306C54.4049 79.0638 54.7116 80.1458 54.7116 81.5521C54.7116 82.9544 54.4049 84.0345 53.7917 84.7923C53.1784 85.554 52.3034 85.9349 51.1667 85.9349C50.026 85.9349 49.151 85.554 48.5417 84.7923C47.9323 84.0345 47.6276 82.9544 47.6276 81.5521C47.6276 80.1497 47.9323 79.0677 48.5417 78.306C49.151 77.5482 50.026 77.1693 51.1667 77.1693ZM51.1725 79.0208C50.8053 79.0208 50.5319 79.2318 50.3522 79.6537C50.1686 80.0755 50.0768 80.7064 50.0768 81.5462C50.0768 82.39 50.1686 83.0228 50.3522 83.4447C50.5319 83.8665 50.8053 84.0775 51.1725 84.0775C51.5358 84.0775 51.8092 83.8665 51.9928 83.4447C52.1725 83.0228 52.2624 82.39 52.2624 81.5462C52.2624 80.7064 52.1725 80.0755 51.9928 79.6537C51.8092 79.2318 51.5358 79.0208 51.1725 79.0208Z" fill="black"/>
<path d="M50.8332 77.4979C51.7811 77.4979 52.5137 77.8347 53.0311 78.5083C53.545 79.1854 53.8019 80.1437 53.8019 81.3833C53.8019 82.6194 53.545 83.576 53.0311 84.2531C52.5137 84.9302 51.7811 85.2687 50.8332 85.2687C49.8818 85.2687 49.1491 84.9302 48.6353 84.2531C48.1214 83.576 47.8644 82.6194 47.8644 81.3833C47.8644 80.1472 48.1214 79.1906 48.6353 78.5135C49.1491 77.8365 49.8818 77.4979 50.8332 77.4979ZM50.8332 78.7479C50.3991 78.7479 50.0728 78.9701 49.854 79.4146C49.6318 79.859 49.5207 80.5153 49.5207 81.3833C49.5207 82.2514 49.6318 82.9059 49.854 83.3469C50.0728 83.7913 50.3991 84.0135 50.8332 84.0135C51.2672 84.0135 51.5953 83.7913 51.8175 83.3469C52.0363 82.9059 52.1457 82.2514 52.1457 81.3833C52.1457 80.5153 52.0363 79.859 51.8175 79.4146C51.5953 78.9701 51.2672 78.7479 50.8332 78.7479Z" fill="white"/>
</svg>
