<svg width="62" height="93" viewBox="0 0 62 93" fill="none" xmlns="http://www.w3.org/2000/svg">
<rect x="4" y="4" width="53" height="85" rx="3.56989" fill="black"/>
<path d="M50.6712 11.3797C61.5569 17.6645 61.212 38.6413 49.9009 58.2326C38.5899 77.824 20.5959 88.611 9.71024 82.3262C-1.17541 76.0413 -0.83055 55.0646 10.4805 35.4732C21.7916 15.8819 39.7856 5.09487 50.6712 11.3797Z" fill="#FF2424"/>
<path d="M21.8031 61.6225C20.3334 62.2768 18.9803 62.598 17.7438 62.5859C16.5111 62.5641 15.4245 62.2203 14.484 61.5546C13.5473 60.8792 12.7882 59.8882 12.2065 58.5818L8.253 49.7021L12.4377 47.8389L16.3639 56.6574C16.7486 57.5215 17.2591 58.0729 17.8953 58.3115C18.5352 58.5402 19.3077 58.4531 20.2127 58.0502C21.1176 57.6472 21.6898 57.1194 21.9291 56.4666C22.1752 55.8107 22.0741 54.9793 21.6257 53.9722L17.8267 45.4396L22.0114 43.5764L25.9649 52.4561C26.5466 53.7626 26.7716 54.9913 26.64 56.1425C26.5122 57.2837 26.044 58.3197 25.2354 59.2505C24.4238 60.1744 23.2797 60.9651 21.8031 61.6225Z" fill="black"/>
<path d="M21.1415 60.1365C19.9621 60.6616 18.8632 60.9117 17.8447 60.8868C16.8296 60.8532 15.9286 60.555 15.1418 59.9922C14.3582 59.4206 13.7282 58.5995 13.2515 57.529L9.60401 49.3366L12.4074 48.0884L16.0145 56.1901C16.4158 57.0913 16.9687 57.6822 17.6734 57.9627C18.3814 58.2345 19.1861 58.1698 20.0873 57.7685C20.9885 57.3673 21.5692 56.808 21.8296 56.0905C22.096 55.3704 22.0111 54.5204 21.5748 53.5406L18.0323 45.584L20.8357 44.3359L24.4832 52.5283C24.9599 53.5989 25.1454 54.6178 25.0398 55.5853C24.9376 56.5439 24.5564 57.413 23.8961 58.1926C23.2391 58.9634 22.3209 59.6113 21.1415 60.1365Z" fill="#FFF533"/>
<path d="M27.6348 58.4136L21.1667 43.8859L27.1593 41.2178L38.4587 51.7449L37.0026 52.4657L31.1948 39.4211L35.1294 37.6693L41.5975 52.197L35.6351 54.8516L24.1731 44.3123L25.7256 43.5365L31.5694 56.6618L27.6348 58.4136Z" fill="black"/>
<path d="M28.2043 56.4465L22.4549 43.533L26.4275 41.7643L37.3503 50.7304L36.5133 51.1675L31.3508 39.5723L33.9963 38.3944L39.7457 51.3079L35.8717 53.0327L24.7775 44.0677L25.6553 43.6017L30.8498 55.2686L28.2043 56.4465Z" fill="#FFF533"/>
<path d="M48.8819 49.6672C47.3212 50.3621 45.8328 50.6524 44.4166 50.5382C42.9974 50.4171 41.7222 49.9133 40.5911 49.0268C39.46 48.1403 38.5393 46.8994 37.8291 45.3042C37.1188 43.709 36.8143 42.1979 36.9154 40.7711C37.0135 39.3373 37.4924 38.0525 38.352 36.9168C39.2116 35.7811 40.4218 34.8658 41.9825 34.1709C43.5501 33.473 45.04 33.1861 46.4523 33.3103C47.8715 33.4314 49.1467 33.9352 50.2778 34.8217C51.4059 35.7013 52.3251 36.9387 53.0353 38.5339C53.7455 40.1291 54.0516 41.6436 53.9535 43.0774C53.8554 44.5112 53.3766 45.796 52.5169 46.9317C51.6611 48.0574 50.4494 48.9693 48.8819 49.6672ZM47.2677 46.0417C47.9514 45.7374 48.4607 45.3203 48.7958 44.7905C49.1278 44.2537 49.2778 43.6243 49.2458 42.9021C49.2208 42.1768 49.013 41.3756 48.6226 40.4986C48.229 39.6147 47.7727 38.9242 47.2535 38.4272C46.7382 37.9202 46.1715 37.614 45.5536 37.5085C44.9326 37.396 44.2803 37.492 43.5966 37.7964C42.913 38.1008 42.4052 38.5213 42.0732 39.058C41.745 39.5848 41.5935 40.2108 41.6185 40.9361C41.6405 41.6545 41.8482 42.4556 42.2418 43.3395C42.6322 44.2165 43.0886 44.907 43.6108 45.4109C44.1331 45.9148 44.7012 46.2246 45.3153 46.34C45.9333 46.4456 46.584 46.3461 47.2677 46.0417Z" fill="black"/>
<path d="M48.2073 48.1768C46.8508 48.7808 45.5554 49.0265 44.3211 48.9141C43.0841 48.7955 41.9704 48.3425 40.98 47.5552C39.9868 46.7617 39.1759 45.6591 38.5474 44.2473C37.916 42.8293 37.6392 41.4889 37.7168 40.226C37.7945 38.9632 38.2044 37.8355 38.9467 36.843C39.6863 35.8444 40.7375 35.0418 42.1002 34.4351C43.4567 33.8311 44.7535 33.5884 45.9905 33.7069C47.2247 33.8194 48.3371 34.2693 49.3275 35.0566C50.318 35.8439 51.1288 36.9466 51.7602 38.3646C52.3887 39.7764 52.6656 41.1168 52.5907 42.3858C52.5131 43.6487 52.1045 44.7794 51.3649 45.778C50.6226 46.7705 49.5701 47.5701 48.2073 48.1768ZM47.1374 45.7736C47.8985 45.4347 48.47 44.967 48.8516 44.3705C49.2333 43.774 49.4208 43.08 49.4141 42.2886C49.4047 41.4911 49.1923 40.6258 48.7769 39.6928C48.3588 38.7536 47.8579 38.0168 47.2742 37.4823C46.6905 36.9478 46.0494 36.6228 45.3507 36.5073C44.652 36.3917 43.9221 36.5034 43.1609 36.8423C42.4059 37.1785 41.8376 37.6448 41.4559 38.2413C41.0742 38.8379 40.8867 39.5318 40.8934 40.3232C40.9001 41.1146 41.1125 41.9799 41.5306 42.919C41.946 43.8521 42.4469 44.5889 43.0333 45.1295C43.617 45.664 44.2581 45.989 44.9568 46.1046C45.6555 46.2201 46.3824 46.1098 47.1374 45.7736Z" fill="#FFF533"/>
<mask id="path-3-inside-1_2010_2" fill="white">
<rect width="61.18" height="93" rx="4"/>
</mask>
<rect width="61.18" height="93" rx="4" stroke="white" stroke-width="9" stroke-miterlimit="2.9987" mask="url(#path-3-inside-1_2010_2)"/>
</svg>
