<svg width="62" height="93" viewBox="0 0 62 93" fill="none" xmlns="http://www.w3.org/2000/svg">
<rect width="61.18" height="93" rx="4" fill="white"/>
<rect x="4" y="4" width="53" height="85" rx="3.56989" fill="#FFF533"/>
<path d="M50.1712 12.2458C55.1568 15.1242 57.7467 21.4823 57.61 29.7998C57.4739 38.0786 54.6218 48.0559 49.0349 57.7327C43.448 67.4095 36.2335 74.868 29.1319 79.1253C21.9971 83.4025 15.1958 84.3386 10.2102 81.4602C5.22468 78.5818 2.63473 72.2236 2.77147 63.9061C2.90758 55.6273 5.75963 45.6501 11.3465 35.9733C16.9334 26.2965 24.1479 18.8379 31.2495 14.5806C38.3844 10.3034 45.1856 9.36734 50.1712 12.2458Z" fill="#FFF533" stroke="white" stroke-width="2"/>
<path d="M29.9395 63.6152C25.6475 63.6152 22.3369 62.2676 20.0078 59.5723C17.6934 56.8623 16.5361 53.0171 16.5361 48.0366C16.5361 46.0151 16.7559 43.9863 17.1953 41.9502C17.6348 39.9141 18.3672 38.0537 19.3926 36.3691C20.418 34.6699 21.8096 33.3076 23.5674 32.2822C25.3252 31.2568 27.5225 30.7441 30.1592 30.7441C32.4736 30.7441 34.4805 31.1396 36.1797 31.9307C37.8936 32.707 39.2632 33.7251 40.2886 34.9849C41.3286 36.23 41.9951 37.5703 42.2881 39.0059L34.1362 41.1592C34.063 39.9873 33.6821 39.0498 32.9937 38.3467C32.3198 37.6289 31.397 37.27 30.2251 37.27C29.2583 37.27 28.4673 37.5044 27.8521 37.9731C27.2368 38.4272 26.7534 39.0278 26.4019 39.7749C26.0649 40.522 25.8159 41.3423 25.6548 42.2358C25.5083 43.1294 25.4131 44.0156 25.3691 44.8945C25.3398 45.7734 25.3252 46.5645 25.3252 47.2676L24.0728 46.8062C24.8931 45.5024 25.9478 44.4697 27.2368 43.708C28.5259 42.9316 30.2251 42.5435 32.3345 42.5435C34.7222 42.5435 36.6704 43.0122 38.1792 43.9497C39.7026 44.8872 40.8232 46.1177 41.541 47.6411C42.2588 49.1499 42.6177 50.7832 42.6177 52.541C42.6177 54.7969 42.083 56.7524 41.0137 58.4077C39.9443 60.063 38.4575 61.3447 36.5532 62.2529C34.6636 63.1611 32.459 63.6152 29.9395 63.6152ZM29.8735 57.0894C31.0894 57.0894 32.0195 56.7012 32.6641 55.9248C33.3086 55.1484 33.6309 54.1597 33.6309 52.9585C33.6309 51.6987 33.2939 50.71 32.6201 49.9922C31.9609 49.2744 31.0454 48.9155 29.8735 48.9155C28.6724 48.9155 27.7422 49.2964 27.083 50.0581C26.4238 50.8052 26.0942 51.7866 26.0942 53.0024C26.0942 54.2476 26.4312 55.2437 27.105 55.9907C27.7935 56.7231 28.7163 57.0894 29.8735 57.0894Z" fill="black"/>
<path d="M30.9204 61.6205C27.1834 61.6205 24.3206 60.3726 22.332 57.8768C20.3568 55.3677 19.3691 51.871 19.3691 47.3866C19.3691 45.398 19.576 43.4761 19.9897 41.621C20.4168 39.7525 21.0908 38.0775 22.0117 36.5961C22.9326 35.1146 24.1405 33.9401 25.6353 33.0726C27.13 32.1918 28.9585 31.7513 31.1206 31.7513C33.1359 31.7513 34.8843 32.125 36.3657 32.8724C37.8472 33.6065 39.0283 34.5541 39.9092 35.7152C40.79 36.863 41.3306 38.0708 41.5308 39.3387L35.7651 40.8602C35.6984 39.4989 35.258 38.4045 34.4438 37.577C33.6431 36.7496 32.5553 36.3358 31.1807 36.3358C30.0863 36.3358 29.1854 36.5827 28.478 37.0765C27.7707 37.5704 27.2101 38.2243 26.7964 39.0385C26.3826 39.8392 26.0757 40.7201 25.8755 41.681C25.6753 42.6286 25.5485 43.5762 25.4951 44.5238C25.4417 45.4714 25.415 46.3189 25.415 47.0663L24.6343 46.6859C25.3016 45.4447 26.2492 44.4104 27.4771 43.5829C28.7049 42.7421 30.3198 42.3217 32.3218 42.3217C34.2837 42.3217 35.9587 42.7287 37.3467 43.5428C38.748 44.3436 39.8158 45.4514 40.5498 46.8661C41.2972 48.2675 41.6709 49.8757 41.6709 51.6908C41.6709 53.7194 41.2171 55.4745 40.3096 56.9559C39.4154 58.4374 38.1608 59.5852 36.5459 60.3993C34.931 61.2134 33.0558 61.6205 30.9204 61.6205ZM30.8804 57.036C32.3618 57.036 33.5029 56.5689 34.3037 55.6346C35.1045 54.6871 35.5049 53.4325 35.5049 51.871C35.5049 50.2828 35.0978 49.0482 34.2837 48.1674C33.4829 47.2732 32.3685 46.826 30.9404 46.826C29.459 46.826 28.2845 47.2932 27.417 48.2274C26.5628 49.1483 26.1357 50.3895 26.1357 51.951C26.1357 53.4992 26.5628 54.7338 27.417 55.6547C28.2712 56.5756 29.4256 57.036 30.8804 57.036Z" fill="white"/>
<path d="M9.95052 15.4641C8.80599 15.4641 7.92318 15.1047 7.30208 14.3859C6.6849 13.6633 6.3763 12.6379 6.3763 11.3098C6.3763 10.7707 6.4349 10.2297 6.55208 9.68671C6.66927 9.14374 6.86458 8.64764 7.13802 8.19843C7.41146 7.7453 7.78255 7.38202 8.2513 7.10858C8.72005 6.83514 9.30599 6.69843 10.0091 6.69843C10.6263 6.69843 11.1615 6.80389 11.6146 7.01483C12.0716 7.22186 12.4368 7.49335 12.7103 7.82928C12.9876 8.16132 13.1654 8.51874 13.2435 8.90155L11.0697 9.47577C11.0501 9.16327 10.9486 8.91327 10.765 8.72577C10.5853 8.53436 10.3392 8.43866 10.0267 8.43866C9.76888 8.43866 9.55794 8.50116 9.39388 8.62616C9.22982 8.74725 9.10091 8.90741 9.00716 9.10663C8.91732 9.30585 8.85091 9.5246 8.80794 9.76288C8.76888 10.0012 8.74349 10.2375 8.73177 10.4719C8.72396 10.7062 8.72005 10.9172 8.72005 11.1047L8.38607 10.9816C8.60482 10.634 8.88607 10.3586 9.22982 10.1555C9.57357 9.94843 10.0267 9.84491 10.5892 9.84491C11.2259 9.84491 11.7454 9.96991 12.1478 10.2199C12.554 10.4699 12.8529 10.798 13.0443 11.2043C13.2357 11.6066 13.3314 12.0422 13.3314 12.5109C13.3314 13.1125 13.1888 13.634 12.9036 14.0754C12.6185 14.5168 12.222 14.8586 11.7142 15.1008C11.2103 15.343 10.6224 15.4641 9.95052 15.4641ZM9.93294 13.7238C10.2572 13.7238 10.5052 13.6203 10.6771 13.4133C10.849 13.2062 10.9349 12.9426 10.9349 12.6223C10.9349 12.2863 10.8451 12.0226 10.6654 11.8312C10.4896 11.6398 10.2454 11.5441 9.93294 11.5441C9.61263 11.5441 9.36458 11.6457 9.1888 11.8488C9.01302 12.048 8.92513 12.3098 8.92513 12.634C8.92513 12.966 9.01497 13.2316 9.19466 13.4308C9.37826 13.6262 9.62435 13.7238 9.93294 13.7238Z" fill="black"/>
<path d="M6.04232 16.05H13.6243V16.9641H6.04232V16.05Z" fill="black"/>
<path d="M10.2761 15.1354C9.30386 15.1354 8.55907 14.8108 8.04171 14.1615C7.52782 13.5087 7.27087 12.599 7.27087 11.4323C7.27087 10.9149 7.32469 10.4149 7.43233 9.93229C7.54344 9.44618 7.71879 9.01042 7.95837 8.625C8.19796 8.23958 8.51219 7.93403 8.90108 7.70833C9.28997 7.47917 9.76567 7.36458 10.3282 7.36458C10.8525 7.36458 11.3073 7.46181 11.6927 7.65625C12.0782 7.84722 12.3855 8.09375 12.6146 8.39583C12.8438 8.69444 12.9844 9.00868 13.0365 9.33854L11.5365 9.73437C11.5191 9.38021 11.4046 9.09549 11.1927 8.88021C10.9844 8.66493 10.7014 8.55729 10.3438 8.55729C10.0591 8.55729 9.82469 8.62153 9.64067 8.75C9.45664 8.87847 9.3108 9.04861 9.20317 9.26042C9.09553 9.46875 9.01567 9.69792 8.96358 9.94792C8.9115 10.1944 8.87851 10.441 8.86462 10.6875C8.85073 10.934 8.84379 11.1545 8.84379 11.349L8.64067 11.25C8.81428 10.9271 9.0608 10.658 9.38025 10.4427C9.69969 10.224 10.1198 10.1146 10.6407 10.1146C11.1511 10.1146 11.5868 10.2205 11.948 10.4323C12.3125 10.6406 12.5903 10.9288 12.7813 11.2969C12.9757 11.6615 13.073 12.0799 13.073 12.5521C13.073 13.0799 12.9549 13.5365 12.7188 13.9219C12.4862 14.3073 12.1598 14.6059 11.7396 14.8177C11.3195 15.0295 10.8316 15.1354 10.2761 15.1354ZM10.2657 13.9427C10.6511 13.9427 10.948 13.8212 11.1563 13.5781C11.3646 13.3316 11.4688 13.0052 11.4688 12.599C11.4688 12.1858 11.3629 11.8646 11.1511 11.6354C10.9427 11.4028 10.6528 11.2865 10.2813 11.2865C9.89587 11.2865 9.59032 11.408 9.36462 11.651C9.1424 11.8906 9.03129 12.2135 9.03129 12.6198C9.03129 13.0226 9.1424 13.3437 9.36462 13.5833C9.58685 13.8229 9.88719 13.9427 10.2657 13.9427Z" fill="white"/>
<path d="M6.88025 15.6667H13.448V16.4792H6.88025V15.6667Z" fill="white"/>
<path d="M51.0495 77.1692C52.194 77.1692 53.0768 77.5286 53.6979 78.2474C54.3151 78.97 54.6237 79.9954 54.6237 81.3235C54.6237 81.8626 54.5651 82.4036 54.4479 82.9466C54.3307 83.4896 54.1354 83.9857 53.862 84.4349C53.5885 84.888 53.2174 85.2513 52.7487 85.5247C52.2799 85.7982 51.694 85.9349 50.9909 85.9349C50.3737 85.9349 49.8385 85.8294 49.3854 85.6185C48.9284 85.4114 48.5632 85.14 48.2897 84.804C48.0124 84.472 47.8346 84.1146 47.7565 83.7318L49.9303 83.1575C49.9499 83.47 50.0514 83.72 50.235 83.9075C50.4147 84.0989 50.6608 84.1946 50.9733 84.1946C51.2311 84.1946 51.4421 84.1321 51.6061 84.0071C51.7702 83.886 51.8991 83.7259 51.9928 83.5267C52.0827 83.3275 52.1491 83.1087 52.1921 82.8704C52.2311 82.6321 52.2565 82.3958 52.2682 82.1614C52.276 81.9271 52.2799 81.7161 52.2799 81.5286L52.6139 81.6517C52.3952 81.9993 52.1139 82.2747 51.7702 82.4778C51.4264 82.6849 50.9733 82.7884 50.4108 82.7884C49.7741 82.7884 49.2546 82.6634 48.8522 82.4134C48.446 82.1634 48.1471 81.8353 47.9557 81.429C47.7643 81.0267 47.6686 80.5911 47.6686 80.1224C47.6686 79.5208 47.8112 78.9993 48.0964 78.5579C48.3815 78.1165 48.778 77.7747 49.2858 77.5325C49.7897 77.2903 50.3776 77.1692 51.0495 77.1692ZM51.0671 78.9095C50.7428 78.9095 50.4948 79.013 50.3229 79.22C50.151 79.4271 50.0651 79.6907 50.0651 80.011C50.0651 80.347 50.1549 80.6107 50.3346 80.8021C50.5104 80.9935 50.7546 81.0892 51.0671 81.0892C51.3874 81.0892 51.6354 80.9876 51.8112 80.7845C51.987 80.5853 52.0749 80.3235 52.0749 79.9993C52.0749 79.6673 51.985 79.4017 51.8053 79.2025C51.6217 79.0071 51.3757 78.9095 51.0671 78.9095Z" fill="black"/>
<path d="M54.9577 76.5833H47.3757V75.6692H54.9577V76.5833Z" fill="black"/>
<path d="M50.7239 77.4979C51.6961 77.4979 52.4409 77.8225 52.9583 78.4718C53.4722 79.1246 53.7291 80.0343 53.7291 81.201C53.7291 81.7184 53.6753 82.2184 53.5677 82.701C53.4566 83.1871 53.2812 83.6229 53.0416 84.0083C52.802 84.3937 52.4878 84.6993 52.0989 84.925C51.71 85.1541 51.2343 85.2687 50.6718 85.2687C50.1475 85.2687 49.6927 85.1715 49.3073 84.9771C48.9218 84.7861 48.6145 84.5396 48.3854 84.2375C48.1562 83.9389 48.0156 83.6246 47.9635 83.2948L49.4635 82.8989C49.4809 83.2531 49.5954 83.5378 49.8073 83.7531C50.0156 83.9684 50.2986 84.076 50.6562 84.076C50.9409 84.076 51.1753 84.0118 51.3593 83.8833C51.5434 83.7548 51.6892 83.5847 51.7968 83.3729C51.9045 83.1646 51.9843 82.9354 52.0364 82.6854C52.0885 82.4389 52.1215 82.1923 52.1354 81.9458C52.1493 81.6993 52.1562 81.4788 52.1562 81.2843L52.3593 81.3833C52.1857 81.7062 51.9392 81.9753 51.6198 82.1906C51.3003 82.4093 50.8802 82.5187 50.3593 82.5187C49.8489 82.5187 49.4132 82.4128 49.052 82.201C48.6875 81.9927 48.4097 81.7045 48.2187 81.3364C48.0243 80.9718 47.927 80.5534 47.927 80.0812C47.927 79.5534 48.0451 79.0968 48.2812 78.7114C48.5138 78.326 48.8402 78.0274 49.2604 77.8156C49.6805 77.6038 50.1684 77.4979 50.7239 77.4979ZM50.7343 78.6906C50.3489 78.6906 50.052 78.8121 49.8437 79.0552C49.6354 79.3017 49.5312 79.6281 49.5312 80.0343C49.5312 80.4475 49.6371 80.7687 49.8489 80.9979C50.0573 81.2305 50.3472 81.3468 50.7187 81.3468C51.1041 81.3468 51.4097 81.2253 51.6354 80.9823C51.8576 80.7427 51.9687 80.4198 51.9687 80.0135C51.9687 79.6107 51.8576 79.2896 51.6354 79.05C51.4132 78.8104 51.1128 78.6906 50.7343 78.6906Z" fill="white"/>
<path d="M54.1198 76.9666H47.552V76.1541H54.1198V76.9666Z" fill="white"/>
</svg>
