<svg width="61" height="93" viewBox="0 0 61 93" fill="none" xmlns="http://www.w3.org/2000/svg">
<rect width="61" height="93" rx="4" fill="white"/>
<rect x="4" y="4" width="53" height="85" rx="3.56989" fill="#0074D3"/>
<path d="M50.1712 12.2458C55.1568 15.1242 57.7467 21.4823 57.61 29.7998C57.4739 38.0786 54.6218 48.0559 49.0349 57.7327C43.448 67.4095 36.2335 74.868 29.1319 79.1253C21.9971 83.4025 15.1958 84.3386 10.2102 81.4602C5.22468 78.5818 2.63473 72.2236 2.77147 63.9061C2.90758 55.6273 5.75963 45.6501 11.3465 35.9733C16.9334 26.2965 24.1479 18.8379 31.2495 14.5806C38.3844 10.3034 45.1856 9.36734 50.1712 12.2458Z" fill="#0074D3" stroke="white" stroke-width="2"/>
<path d="M29.687 62.6152C27.3726 62.6152 25.3364 62.2417 23.5786 61.4946C21.8354 60.7329 20.4292 59.7588 19.3599 58.5723C18.3052 57.3711 17.6313 56.1113 17.3384 54.793L25.4902 52.6396C25.5635 53.6064 25.9663 54.4268 26.6987 55.1006C27.4458 55.7598 28.4346 56.0894 29.665 56.0894C30.6611 56.0894 31.4741 55.8696 32.104 55.4302C32.7485 54.9907 33.2466 54.4048 33.5981 53.6724C33.9644 52.9399 34.228 52.1343 34.3892 51.2554C34.5503 50.3618 34.6455 49.4683 34.6748 48.5747C34.7188 47.6812 34.7407 46.8535 34.7407 46.0918L36.8721 45.5864C35.8906 47.4761 34.6748 48.897 33.2246 49.8491C31.7744 50.7866 29.98 51.2554 27.8413 51.2554C25.5708 51.2554 23.6592 50.7793 22.1064 49.8271C20.5684 48.875 19.4038 47.6079 18.6128 46.0259C17.8364 44.4292 17.4482 42.6934 17.4482 40.8184C17.4482 38.5479 17.9829 36.585 19.0522 34.9297C20.1216 33.2744 21.6084 32 23.5127 31.1064C25.4316 30.1982 27.6509 29.7441 30.1704 29.7441C32.3091 29.7441 34.2061 30.0811 35.8613 30.7549C37.5166 31.4287 38.9155 32.4248 40.0581 33.7432C41.2007 35.0615 42.0649 36.6875 42.6509 38.6211C43.2368 40.54 43.5298 42.7593 43.5298 45.2788C43.5298 47.271 43.3101 49.2852 42.8706 51.3213C42.4458 53.3574 41.7134 55.2324 40.6733 56.9463C39.6333 58.6455 38.2197 60.0151 36.4326 61.0552C34.6455 62.0952 32.397 62.6152 29.687 62.6152ZM30.4121 44.8833C31.6133 44.8833 32.5435 44.4878 33.2026 43.6968C33.8618 42.9058 34.1914 41.8657 34.1914 40.5767C34.1914 39.2583 33.8545 38.2109 33.1807 37.4346C32.5068 36.6582 31.584 36.27 30.4121 36.27C29.1963 36.27 28.2661 36.6802 27.6216 37.5005C26.9771 38.3208 26.6548 39.3608 26.6548 40.6206C26.6548 41.939 26.9917 42.979 27.6655 43.7407C28.3394 44.5024 29.2549 44.8833 30.4121 44.8833Z" fill="black"/>
<path d="M30.8994 59.6205C28.8574 59.6205 27.0824 59.2601 25.5742 58.5394C24.0661 57.8054 22.8649 56.8778 21.9707 55.7567C21.0898 54.6223 20.5493 53.4545 20.3491 52.2533L26.1147 50.7318C26.1815 51.9997 26.6152 53.0341 27.416 53.8348C28.2301 54.6356 29.3913 55.036 30.8994 55.036C31.9805 55.036 32.868 54.7958 33.562 54.3153C34.2694 53.8215 34.8232 53.1809 35.2236 52.3934C35.6374 51.5927 35.9377 50.7185 36.1245 49.7709C36.3114 48.8099 36.4315 47.8557 36.4849 46.9081C36.5382 45.9605 36.5649 45.093 36.5649 44.3055L37.8062 44.2855C37.0588 45.8204 36.0244 47.0549 34.7031 47.9891C33.3952 48.9234 31.7402 49.3905 29.7383 49.3905C27.8298 49.3905 26.1681 48.9768 24.7534 48.1493C23.3387 47.3218 22.2443 46.1807 21.4702 44.726C20.6961 43.2579 20.3091 41.5896 20.3091 39.7211C20.3091 37.6791 20.7629 35.9107 21.6704 34.4159C22.5913 32.9211 23.8726 31.7733 25.5142 30.9725C27.1558 30.1584 29.0509 29.7513 31.1997 29.7513C33.1483 29.7513 34.8366 30.0917 36.2646 30.7723C37.7061 31.453 38.8939 32.4273 39.8281 33.6952C40.7757 34.9631 41.4764 36.4779 41.9302 38.2396C42.384 39.988 42.6108 41.9432 42.6108 44.1053C42.6108 46.0005 42.4173 47.869 42.0303 49.7108C41.6432 51.5393 40.9959 53.2076 40.0884 54.7157C39.1942 56.2105 37.993 57.405 36.4849 58.2992C34.9901 59.1801 33.1283 59.6205 30.8994 59.6205ZM31.2397 44.8661C32.7078 44.8661 33.869 44.3856 34.7231 43.4247C35.5907 42.4504 36.0244 41.1491 36.0244 39.5209C36.0244 37.9193 35.604 36.6581 34.7632 35.7372C33.9357 34.8029 32.7946 34.3358 31.3398 34.3358C29.8451 34.3358 28.6906 34.823 27.8765 35.7972C27.0623 36.7582 26.6553 38.0394 26.6553 39.641C26.6553 41.2559 27.0623 42.5305 27.8765 43.4647C28.6906 44.399 29.8117 44.8661 31.2397 44.8661Z" fill="white"/>
<path d="M9.61654 15.4641C8.99935 15.4641 8.45638 15.3644 7.98763 15.1652C7.52279 14.9621 7.14779 14.7023 6.86263 14.3859C6.58138 14.0656 6.40169 13.7297 6.32357 13.3781L8.4974 12.8039C8.51693 13.0617 8.62435 13.2805 8.81966 13.4601C9.01888 13.6359 9.28255 13.7238 9.61068 13.7238C9.8763 13.7238 10.0931 13.6652 10.2611 13.548C10.4329 13.4308 10.5658 13.2746 10.6595 13.0793C10.7572 12.884 10.8275 12.6691 10.8704 12.4348C10.9134 12.1965 10.9388 11.9582 10.9466 11.7199C10.9583 11.4816 10.9642 11.2609 10.9642 11.0578L11.5326 10.923C11.2708 11.4269 10.9466 11.8058 10.5599 12.0598C10.1732 12.3098 9.69466 12.4348 9.12435 12.4348C8.51888 12.4348 8.00911 12.3078 7.59505 12.0539C7.1849 11.8 6.87435 11.4621 6.66341 11.0402C6.45638 10.6144 6.35286 10.1516 6.35286 9.65155C6.35286 9.04608 6.49544 8.52264 6.7806 8.08124C7.06576 7.63983 7.46224 7.29999 7.97005 7.06171C8.48177 6.81952 9.07357 6.69843 9.74544 6.69843C10.3158 6.69843 10.8216 6.78827 11.263 6.96796C11.7044 7.14764 12.0775 7.41327 12.3822 7.76483C12.6868 8.11639 12.9173 8.54999 13.0736 9.06561C13.2298 9.57733 13.3079 10.1691 13.3079 10.841C13.3079 11.3723 13.2493 11.9094 13.1322 12.4523C13.0189 12.9953 12.8236 13.4953 12.5462 13.9523C12.2689 14.4055 11.8919 14.7707 11.4154 15.048C10.9388 15.3254 10.3392 15.4641 9.61654 15.4641ZM9.8099 10.7355C10.1302 10.7355 10.3783 10.6301 10.554 10.4191C10.7298 10.2082 10.8177 9.93085 10.8177 9.5871C10.8177 9.23553 10.7279 8.95624 10.5482 8.74921C10.3685 8.54218 10.1224 8.43866 9.8099 8.43866C9.48568 8.43866 9.23763 8.54803 9.06576 8.76678C8.89388 8.98553 8.80794 9.26288 8.80794 9.59882C8.80794 9.95038 8.89779 10.2277 9.07747 10.4308C9.25716 10.634 9.5013 10.7355 9.8099 10.7355Z" fill="black"/>
<path d="M6.02474 16.05H13.6419V16.9641H6.02474V16.05Z" fill="black"/>
<path d="M10.0106 15.1354C9.47933 15.1354 9.01752 15.0417 8.62516 14.8542C8.2328 14.6632 7.9203 14.4219 7.68766 14.1302C7.4585 13.8351 7.31787 13.5312 7.26579 13.2187L8.76579 12.8229C8.78315 13.1528 8.896 13.4219 9.10433 13.6302C9.31613 13.8385 9.61822 13.9427 10.0106 13.9427C10.2918 13.9427 10.5227 13.8802 10.7033 13.7552C10.8873 13.6267 11.0314 13.4601 11.1356 13.2552C11.2432 13.0469 11.3213 12.8194 11.37 12.5729C11.4186 12.3229 11.4498 12.0747 11.4637 11.8281C11.4776 11.5816 11.4845 11.3559 11.4845 11.151L11.8075 11.1458C11.613 11.5451 11.3439 11.8663 11.0002 12.1094C10.6599 12.3524 10.2293 12.474 9.7085 12.474C9.21197 12.474 8.77968 12.3663 8.41162 12.151C8.04357 11.9358 7.75884 11.6389 7.55745 11.2604C7.35607 10.8785 7.25537 10.4444 7.25537 9.95833C7.25537 9.42708 7.37343 8.96701 7.60954 8.57812C7.84912 8.18924 8.18245 7.89062 8.60954 7.68229C9.03662 7.47049 9.52968 7.36458 10.0887 7.36458C10.5956 7.36458 11.0349 7.45312 11.4064 7.63021C11.7814 7.80729 12.0904 8.06076 12.3335 8.39062C12.58 8.72049 12.7623 9.11458 12.8804 9.57292C12.9984 10.0278 13.0575 10.5365 13.0575 11.099C13.0575 11.592 13.0071 12.0781 12.9064 12.5573C12.8057 13.033 12.6373 13.467 12.4012 13.8594C12.1686 14.2483 11.8561 14.559 11.4637 14.7917C11.0748 15.0208 10.5904 15.1354 10.0106 15.1354ZM10.0991 11.2969C10.4811 11.2969 10.7831 11.1719 11.0054 10.9219C11.2311 10.6684 11.3439 10.3299 11.3439 9.90625C11.3439 9.48958 11.2345 9.16146 11.0158 8.92187C10.8005 8.67882 10.5036 8.55729 10.1252 8.55729C9.73627 8.55729 9.43593 8.68403 9.22412 8.9375C9.01232 9.1875 8.90641 9.52083 8.90641 9.9375C8.90641 10.3576 9.01232 10.6892 9.22412 10.9323C9.43593 11.1753 9.72759 11.2969 10.0991 11.2969Z" fill="white"/>
<path d="M6.87516 15.6667H13.4533V16.4792H6.87516V15.6667Z" fill="white"/>
<path d="M51.3835 77.1692C52.0007 77.1692 52.5436 77.2689 53.0124 77.4681C53.4772 77.6712 53.8522 77.931 54.1374 78.2474C54.4186 78.5677 54.5983 78.9036 54.6764 79.2552L52.5026 79.8294C52.4831 79.5716 52.3757 79.3528 52.1803 79.1732C51.9811 78.9974 51.7174 78.9095 51.3893 78.9095C51.1237 78.9095 50.9069 78.9681 50.7389 79.0853C50.5671 79.2025 50.4342 79.3587 50.3405 79.554C50.2428 79.7493 50.1725 79.9642 50.1296 80.1985C50.0866 80.4368 50.0612 80.6751 50.0534 80.9134C50.0417 81.1517 50.0358 81.3724 50.0358 81.5755L49.4674 81.7103C49.7292 81.2064 50.0534 80.8275 50.4401 80.5735C50.8268 80.3235 51.3053 80.1985 51.8757 80.1985C52.4811 80.1985 52.9909 80.3255 53.4049 80.5794C53.8151 80.8333 54.1257 81.1712 54.3366 81.5931C54.5436 82.0189 54.6471 82.4818 54.6471 82.9818C54.6471 83.5872 54.5046 84.1107 54.2194 84.5521C53.9342 84.9935 53.5378 85.3333 53.0299 85.5716C52.5182 85.8138 51.9264 85.9349 51.2546 85.9349C50.6842 85.9349 50.1784 85.845 49.737 85.6653C49.2956 85.4857 48.9225 85.22 48.6178 84.8685C48.3132 84.5169 48.0827 84.0833 47.9264 83.5677C47.7702 83.056 47.6921 82.4642 47.6921 81.7923C47.6921 81.261 47.7507 80.7239 47.8678 80.181C47.9811 79.638 48.1764 79.138 48.4538 78.681C48.7311 78.2278 49.1081 77.8626 49.5846 77.5853C50.0612 77.3079 50.6608 77.1692 51.3835 77.1692ZM51.1901 81.8978C50.8698 81.8978 50.6217 82.0032 50.446 82.2142C50.2702 82.4251 50.1823 82.7025 50.1823 83.0462C50.1823 83.3978 50.2721 83.6771 50.4518 83.8841C50.6315 84.0911 50.8776 84.1946 51.1901 84.1946C51.5143 84.1946 51.7624 84.0853 51.9342 83.8665C52.1061 83.6478 52.1921 83.3704 52.1921 83.0345C52.1921 82.6829 52.1022 82.4056 51.9225 82.2025C51.7428 81.9993 51.4987 81.8978 51.1901 81.8978Z" fill="black"/>
<path d="M54.9753 76.5833H47.3581V75.6692H54.9753V76.5833Z" fill="black"/>
<path d="M50.9894 77.4979C51.5207 77.4979 51.9825 77.5916 52.3748 77.7791C52.7672 77.9701 53.0797 78.2114 53.3123 78.5031C53.5415 78.7982 53.6821 79.1021 53.7342 79.4146L52.2342 79.8104C52.2169 79.4805 52.104 79.2114 51.8957 79.0031C51.6839 78.7948 51.3818 78.6906 50.9894 78.6906C50.7082 78.6906 50.4773 78.7531 50.2967 78.8781C50.1127 79.0066 49.9686 79.1732 49.8644 79.3781C49.7568 79.5864 49.6787 79.8139 49.63 80.0604C49.5814 80.3104 49.5502 80.5586 49.5363 80.8052C49.5224 81.0517 49.5155 81.2774 49.5155 81.4823L49.1925 81.4875C49.387 81.0882 49.6561 80.767 49.9998 80.5239C50.3401 80.2809 50.7707 80.1593 51.2915 80.1593C51.788 80.1593 52.2203 80.267 52.5884 80.4823C52.9564 80.6975 53.2412 80.9944 53.4425 81.3729C53.6439 81.7548 53.7446 82.1889 53.7446 82.675C53.7446 83.2062 53.6266 83.6663 53.3905 84.0552C53.1509 84.4441 52.8175 84.7427 52.3905 84.951C51.9634 85.1628 51.4703 85.2687 50.9113 85.2687C50.4044 85.2687 49.9651 85.1802 49.5936 85.0031C49.2186 84.826 48.9096 84.5725 48.6665 84.2427C48.42 83.9128 48.2377 83.5187 48.1196 83.0604C48.0016 82.6055 47.9425 82.0968 47.9425 81.5343C47.9425 81.0413 47.9929 80.5552 48.0936 80.076C48.1943 79.6003 48.3627 79.1663 48.5988 78.7739C48.8314 78.385 49.1439 78.0743 49.5363 77.8416C49.9252 77.6125 50.4096 77.4979 50.9894 77.4979ZM50.9009 81.3364C50.5189 81.3364 50.2169 81.4614 49.9946 81.7114C49.7689 81.9649 49.6561 82.3034 49.6561 82.7271C49.6561 83.1437 49.7655 83.4718 49.9842 83.7114C50.1995 83.9545 50.4964 84.076 50.8748 84.076C51.2637 84.076 51.5641 83.9493 51.7759 83.6958C51.9877 83.4458 52.0936 83.1125 52.0936 82.6958C52.0936 82.2757 51.9877 81.9441 51.7759 81.701C51.5641 81.458 51.2724 81.3364 50.9009 81.3364Z" fill="white"/>
<path d="M54.1248 76.9666H47.5467V76.1541H54.1248V76.9666Z" fill="white"/>
</svg>
