<svg width="62" height="93" viewBox="0 0 62 93" fill="none" xmlns="http://www.w3.org/2000/svg">
<rect width="61.18" height="93" rx="4" fill="white"/>
<rect x="4" y="4" width="53" height="85" rx="3.56989" fill="#E10007"/>
<path d="M50.1712 12.2457C55.1568 15.1241 57.7467 21.4823 57.61 29.7998C57.4739 38.0786 54.6218 48.0558 49.0349 57.7326C43.448 67.4094 36.2335 74.868 29.1319 79.1253C21.9971 83.4025 15.1958 84.3386 10.2102 81.4601C5.22468 78.5817 2.63473 72.2236 2.77147 63.9061C2.90758 55.6273 5.75963 45.65 11.3465 35.9732C16.9334 26.2964 24.1479 18.8379 31.2495 14.5806C38.3844 10.3034 45.1856 9.36731 50.1712 12.2457Z" fill="#E10007" stroke="white" stroke-width="2"/>
<path d="M17.1953 63V57.7485L28.5771 48.8496C29.6172 48.0293 30.4375 47.2529 31.0381 46.5205C31.6533 45.7734 32.0928 45.019 32.3564 44.2573C32.6348 43.481 32.7739 42.6533 32.7739 41.7744C32.7739 40.6611 32.6055 39.8188 32.2686 39.2476C31.9316 38.6616 31.4922 38.2661 30.9502 38.061C30.4229 37.8413 29.8662 37.7314 29.2803 37.7314C28.1084 37.7314 27.2441 38.0024 26.6875 38.5444C26.1309 39.0864 25.7573 39.731 25.5669 40.478C25.3911 41.2251 25.2812 41.9136 25.2373 42.5435L16.3384 40.1924C16.6313 38.4492 17.3638 36.8672 18.5356 35.4463C19.7075 34.0107 21.2163 32.8682 23.062 32.0186C24.9224 31.1689 27.0024 30.7441 29.3022 30.7441C30.7378 30.7441 32.1953 30.9346 33.6748 31.3154C35.1689 31.6816 36.5459 32.2676 37.8057 33.0732C39.0654 33.8643 40.0835 34.8896 40.8599 36.1494C41.6362 37.4092 42.0244 38.918 42.0244 40.6758C42.0244 43.1221 41.1675 45.4072 39.4536 47.5312C37.7544 49.6553 35.3301 51.6475 32.1807 53.5078L24.9077 57.8145L24.5122 56.0566H41.519V63H17.1953Z" fill="black"/>
<path d="M19.6895 61.1V57.3763L29.9395 49.0682C31.0739 48.134 31.9881 47.2665 32.6821 46.4657C33.3761 45.6649 33.8833 44.8508 34.2036 44.0233C34.5239 43.1958 34.6841 42.2883 34.6841 41.3007C34.6841 40.1529 34.4972 39.232 34.1235 38.538C33.7498 37.844 33.236 37.3435 32.582 37.0365C31.9281 36.7295 31.1807 36.576 30.3398 36.576C29.0986 36.576 28.1377 36.843 27.457 37.3768C26.7897 37.8973 26.3159 38.5647 26.0356 39.3788C25.7554 40.1796 25.5819 41.0004 25.5151 41.8412L19.2891 40.1195C19.4759 38.6648 20.0498 37.3034 21.0107 36.0355C21.985 34.7543 23.2729 33.7199 24.8745 32.9325C26.4761 32.1451 28.2979 31.7513 30.3398 31.7513C31.5544 31.7513 32.7889 31.9182 34.0435 32.2518C35.3114 32.5721 36.4725 33.0927 37.5269 33.8134C38.5946 34.5341 39.4554 35.4616 40.1094 36.5961C40.7633 37.7305 41.0903 39.0985 41.0903 40.7001C41.0903 42.9556 40.383 45.0243 38.9683 46.9061C37.5535 48.7746 35.5516 50.5764 32.9624 52.3114L25.7954 57.3163L24.4741 56.1952H41.0703V61.1H19.6895Z" fill="white"/>
<path d="M6.55208 15.3V13.8996L9.58724 11.5266C9.86458 11.3078 10.0833 11.1008 10.2435 10.9055C10.4076 10.7062 10.5247 10.5051 10.5951 10.3019C10.6693 10.0949 10.7064 9.87421 10.7064 9.63983C10.7064 9.34296 10.6615 9.11835 10.5716 8.966C10.4818 8.80975 10.3646 8.70428 10.2201 8.6496C10.0794 8.591 9.93099 8.56171 9.77474 8.56171C9.46224 8.56171 9.23177 8.63397 9.08333 8.7785C8.9349 8.92303 8.83529 9.09491 8.78451 9.29413C8.73763 9.49335 8.70833 9.67694 8.69661 9.84491L6.32357 9.21796C6.40169 8.75311 6.59701 8.33124 6.90951 7.95233C7.22201 7.56952 7.62435 7.26483 8.11654 7.03827C8.61263 6.81171 9.16732 6.69843 9.7806 6.69843C10.1634 6.69843 10.5521 6.74921 10.9466 6.85077C11.3451 6.94843 11.7122 7.10468 12.0482 7.31952C12.3841 7.53046 12.6556 7.80389 12.8626 8.13983C13.0697 8.47577 13.1732 8.87811 13.1732 9.34686C13.1732 9.99921 12.9447 10.6086 12.4876 11.175C12.0345 11.7414 11.388 12.2726 10.5482 12.7687L8.60872 13.9172L8.50326 13.4484H13.0384V15.3H6.55208Z" fill="black"/>
<path d="M7.35433 15V14.0312L10.021 11.8698C10.3161 11.6267 10.554 11.401 10.7345 11.1927C10.9151 10.9844 11.047 10.7726 11.1304 10.5573C11.2137 10.342 11.2554 10.1059 11.2554 9.84896C11.2554 9.55035 11.2068 9.31076 11.1095 9.13021C11.0123 8.94965 10.8786 8.81944 10.7085 8.73958C10.5384 8.65972 10.3439 8.61979 10.1252 8.61979C9.80225 8.61979 9.55225 8.68924 9.37516 8.82812C9.20155 8.96354 9.07829 9.13715 9.00537 9.34896C8.93245 9.55729 8.88732 9.77083 8.86995 9.98958L7.25016 9.54167C7.29877 9.16319 7.44808 8.80903 7.69808 8.47917C7.95155 8.14583 8.28662 7.87674 8.70329 7.67187C9.11995 7.46701 9.59391 7.36458 10.1252 7.36458C10.4411 7.36458 10.7623 7.40799 11.0887 7.49479C11.4186 7.57812 11.7206 7.71354 11.995 7.90104C12.2727 8.08854 12.4967 8.32986 12.6668 8.625C12.837 8.92014 12.922 9.27604 12.922 9.69271C12.922 10.2795 12.738 10.8177 12.37 11.3073C12.0019 11.7934 11.4811 12.2622 10.8075 12.7135L8.94287 14.0156L8.59912 13.724H12.9168V15H7.35433Z" fill="white"/>
<path d="M54.4479 77.3333V78.7337L51.4128 81.1068C51.1354 81.3255 50.9167 81.5326 50.7565 81.7279C50.5924 81.9271 50.4753 82.1283 50.4049 82.3314C50.3307 82.5384 50.2936 82.7591 50.2936 82.9935C50.2936 83.2904 50.3385 83.515 50.4284 83.6673C50.5182 83.8236 50.6354 83.929 50.7799 83.9837C50.9206 84.0423 51.069 84.0716 51.2253 84.0716C51.5378 84.0716 51.7682 83.9994 51.9167 83.8548C52.0651 83.7103 52.1647 83.5384 52.2155 83.3392C52.2624 83.14 52.2917 82.9564 52.3034 82.7884L54.6764 83.4154C54.5983 83.8802 54.403 84.3021 54.0905 84.681C53.778 85.0638 53.3757 85.3685 52.8835 85.5951C52.3874 85.8216 51.8327 85.9349 51.2194 85.9349C50.8366 85.9349 50.4479 85.8841 50.0534 85.7826C49.6549 85.6849 49.2878 85.5287 48.9518 85.3138C48.6159 85.1029 48.3444 84.8294 48.1374 84.4935C47.9303 84.1576 47.8268 83.7552 47.8268 83.2865C47.8268 82.6341 48.0553 82.0247 48.5124 81.4583C48.9655 80.8919 49.612 80.3607 50.4518 79.8646L52.3913 78.7162L52.4967 79.1849H47.9616V77.3333H54.4479Z" fill="black"/>
<path d="M53.6457 77.6333V78.6021L50.979 80.7635C50.6839 81.0066 50.446 81.2323 50.2655 81.4406C50.0849 81.649 49.953 81.8608 49.8696 82.076C49.7863 82.2913 49.7446 82.5274 49.7446 82.7844C49.7446 83.083 49.7932 83.3226 49.8905 83.5031C49.9877 83.6837 50.1214 83.8139 50.2915 83.8937C50.4616 83.9736 50.6561 84.0135 50.8748 84.0135C51.1978 84.0135 51.4478 83.9441 51.6248 83.8052C51.7984 83.6698 51.9217 83.4962 51.9946 83.2844C52.0675 83.076 52.1127 82.8625 52.13 82.6437L53.7498 83.0917C53.7012 83.4701 53.5519 83.8243 53.3019 84.1542C53.0484 84.4875 52.7134 84.7566 52.2967 84.9615C51.88 85.1663 51.4061 85.2687 50.8748 85.2687C50.5589 85.2687 50.2377 85.2253 49.9113 85.1385C49.5814 85.0552 49.2794 84.9198 49.005 84.7323C48.7273 84.5448 48.5033 84.3035 48.3332 84.0083C48.163 83.7132 48.078 83.3573 48.078 82.9406C48.078 82.3538 48.262 81.8156 48.63 81.326C48.9981 80.8399 49.5189 80.3712 50.1925 79.9198L52.0571 78.6177L52.4009 78.9094H48.0832V77.6333H53.6457Z" fill="white"/>
</svg>
