<svg width="62" height="93" viewBox="0 0 62 93" fill="none" xmlns="http://www.w3.org/2000/svg">
<rect width="61.18" height="93" rx="4" fill="white"/>
<rect x="4" y="4" width="53" height="85" rx="3.56989" fill="#0074D3"/>
<path d="M50.1712 12.2457C55.1568 15.1241 57.7467 21.4823 57.61 29.7998C57.4739 38.0786 54.6218 48.0558 49.0349 57.7326C43.448 67.4094 36.2335 74.868 29.1319 79.1253C21.9971 83.4025 15.1958 84.3386 10.2102 81.4601C5.22468 78.5817 2.63473 72.2236 2.77147 63.9061C2.90758 55.6273 5.75963 45.65 11.3465 35.9732C16.9334 26.2964 24.1479 18.8379 31.2495 14.5806C38.3844 10.3034 45.1856 9.36731 50.1712 12.2457Z" fill="#0074D3" stroke="white" stroke-width="2"/>
<path d="M29.0278 63.9V43.3116C27.6948 44.6886 26.4351 45.7652 25.2485 46.5416C24.062 47.318 22.7437 47.9478 21.2935 48.4312V39.4225C22.3628 39.0416 23.4468 38.5728 24.5454 38.0162C25.6587 37.4449 26.772 36.7052 27.8853 35.797C28.9985 34.8741 30.0898 33.6949 31.1592 32.2594H37.9268V63.9H29.0278Z" fill="black"/>
<path d="M30.8394 62V41.3999C29.7049 42.4943 28.6305 43.3752 27.6162 44.0425C26.6019 44.7098 25.4741 45.2637 24.2329 45.7041V39.6182C25.047 39.2979 25.8745 38.9041 26.7153 38.437C27.5695 37.9565 28.4637 37.3026 29.3979 36.4751C30.3455 35.6476 31.3265 34.5465 32.3408 33.1719H36.9453V62H30.8394Z" fill="white"/>
<path d="M9.44076 15.3V9.80977C9.08529 10.177 8.74935 10.4641 8.43294 10.6711C8.11654 10.8781 7.76497 11.0461 7.37826 11.175V8.77266C7.66341 8.6711 7.95247 8.5461 8.24544 8.39766C8.54232 8.24532 8.83919 8.04805 9.13607 7.80586C9.43294 7.55977 9.72396 7.24532 10.0091 6.8625H11.8138V15.3H9.44076Z" fill="black"/>
<path d="M9.99495 15V9.64062C9.69982 9.92535 9.4203 10.1545 9.15641 10.3281C8.89252 10.5017 8.59912 10.6458 8.2762 10.7604V9.17708C8.48801 9.09375 8.70329 8.99132 8.92204 8.86979C9.14426 8.74479 9.3769 8.57465 9.61995 8.35937C9.86648 8.1441 10.1217 7.85764 10.3856 7.5H11.5835V15H9.99495Z" fill="white"/>
<path d="M51.5592 77.3333V82.8236C51.9147 82.4564 52.2507 82.1693 52.5671 81.9622C52.8835 81.7552 53.235 81.5872 53.6217 81.4583V83.8607C53.3366 83.9622 53.0475 84.0872 52.7546 84.2357C52.4577 84.388 52.1608 84.5853 51.8639 84.8275C51.5671 85.0736 51.276 85.388 50.9909 85.7708H49.1862V77.3333H51.5592Z" fill="black"/>
<path d="M51.005 77.6333V82.9927C51.3002 82.708 51.5797 82.4788 51.8436 82.3052C52.1075 82.1316 52.4009 81.9875 52.7238 81.8729V83.4562C52.512 83.5396 52.2967 83.642 52.078 83.7635C51.8557 83.8885 51.6231 84.0587 51.38 84.274C51.1335 84.4892 50.8783 84.7757 50.6144 85.1333H49.4165V77.6333H51.005Z" fill="white"/>
</svg>
