<svg width="62" height="93" viewBox="0 0 62 93" fill="none" xmlns="http://www.w3.org/2000/svg">
<rect width="61.18" height="93" rx="4" fill="white"/>
<rect x="4" y="4" width="53" height="85" rx="3.56989" fill="#0074D3"/>
<path d="M50.1712 12.2457C55.1568 15.1241 57.7467 21.4823 57.61 29.7998C57.4739 38.0786 54.6218 48.0558 49.0349 57.7326C43.448 67.4094 36.2335 74.868 29.1319 79.1253C21.9971 83.4025 15.1958 84.3386 10.2102 81.4601C5.22468 78.5817 2.63473 72.2236 2.77147 63.9061C2.90758 55.6273 5.75963 45.65 11.3465 35.9732C16.9334 26.2964 24.1479 18.8379 31.2495 14.5806C38.3844 10.3034 45.1856 9.36731 50.1712 12.2457Z" fill="#0074D3" stroke="white" stroke-width="2"/>
<path d="M30.522 64.5152C28.061 64.5152 25.8271 64.1051 23.8203 63.2848C21.8281 62.4644 20.2241 61.2706 19.0083 59.7032C17.8071 58.1358 17.1553 56.2462 17.0527 54.0343L25.688 51.5514C25.688 53.69 26.0981 55.2281 26.9185 56.1656C27.7534 57.1031 28.8667 57.5719 30.2583 57.5719C31.4302 57.5719 32.4043 57.2716 33.1807 56.671C33.957 56.0558 34.3452 55.1476 34.3452 53.9464C34.3452 53.2579 34.1768 52.628 33.8398 52.0567C33.5176 51.4854 32.9683 51.024 32.1919 50.6725C31.4155 50.3209 30.3389 50.1451 28.9619 50.1451H27.5557V44.4981H29.9727C31.1152 44.4981 32.0015 44.2125 32.6313 43.6412C33.2612 43.0699 33.5762 42.3375 33.5762 41.4439C33.5762 40.6676 33.3125 39.9937 32.7852 39.4225C32.2578 38.8512 31.4009 38.5655 30.2144 38.5655C29.189 38.5655 28.3467 38.8219 27.6875 39.3346C27.043 39.8473 26.6768 40.8287 26.5889 42.2789L18.1953 40.1695C18.3271 38.7486 18.9058 37.3863 19.9312 36.0826C20.9712 34.7789 22.4214 33.7169 24.2817 32.8966C26.1567 32.0616 28.3979 31.6441 31.0054 31.6441C33.1147 31.6441 35.041 31.9591 36.7842 32.589C38.5273 33.2042 39.9189 34.149 40.959 35.4234C41.999 36.6978 42.519 38.3092 42.519 40.2574C42.519 41.2975 42.3213 42.3228 41.9258 43.3336C41.5449 44.3297 40.8857 45.1793 39.9482 45.8824C39.0107 46.5709 37.707 46.981 36.0371 47.1129C38.5273 47.4791 40.3877 48.3434 41.6182 49.7057C42.8486 51.0533 43.4639 52.7525 43.4639 54.8033C43.4639 56.4439 43.105 57.8795 42.3872 59.11C41.6841 60.3258 40.7173 61.3365 39.4868 62.1422C38.271 62.9332 36.8867 63.5265 35.334 63.922C33.7959 64.3175 32.1919 64.5152 30.522 64.5152Z" fill="black"/>
<path d="M31.54 62.5205C29.498 62.5205 27.6362 62.1602 25.9546 61.4395C24.2729 60.7188 22.9049 59.6644 21.8506 58.2764C20.8096 56.8883 20.2223 55.2067 20.0889 53.2314L26.0947 51.4697C26.1615 53.5117 26.6619 55.0666 27.5962 56.1343C28.5304 57.1886 29.7917 57.7158 31.3799 57.7158C32.7679 57.7158 33.9224 57.3288 34.8433 56.5547C35.7775 55.7806 36.2446 54.6528 36.2446 53.1714C36.2446 52.4774 36.0845 51.7967 35.7642 51.1294C35.4572 50.4487 34.9167 49.8882 34.1426 49.4478C33.3818 48.994 32.3075 48.7671 30.9194 48.7671H28.457V44.543H31.2998C32.6344 44.543 33.6554 44.2026 34.3628 43.522C35.0835 42.828 35.4438 42.0005 35.4438 41.0396C35.4438 40.0653 35.1035 39.2244 34.4229 38.5171C33.7422 37.8097 32.7279 37.4561 31.3799 37.4561C29.9251 37.4561 28.8107 37.8498 28.0366 38.6372C27.2759 39.4246 26.8421 40.6592 26.7354 42.3408L20.8496 40.7593C20.9564 39.4246 21.4569 38.1367 22.3511 36.8955C23.2453 35.6543 24.4932 34.64 26.0947 33.8525C27.7096 33.0518 29.6182 32.6514 31.8203 32.6514C33.6221 32.6514 35.2637 32.9517 36.7451 33.5522C38.2266 34.1528 39.401 35.027 40.2686 36.1748C41.1494 37.3092 41.5898 38.6906 41.5898 40.3188C41.5898 41.2664 41.403 42.174 41.0293 43.0415C40.6556 43.909 40.055 44.6497 39.2275 45.2637C38.4001 45.8643 37.2856 46.2646 35.8843 46.4648C38.0597 46.8118 39.7147 47.626 40.8491 48.9072C41.9969 50.1885 42.5708 51.7433 42.5708 53.5718C42.5708 55.12 42.2638 56.4613 41.6499 57.5957C41.036 58.7168 40.2018 59.6444 39.1475 60.3784C38.1064 61.0991 36.932 61.6396 35.624 62C34.3161 62.347 32.9548 62.5205 31.54 62.5205Z" fill="white"/>
<path d="M9.83919 15.4641C9.18294 15.4641 8.58724 15.3547 8.05208 15.1359C7.52083 14.9172 7.0931 14.5988 6.76888 14.1808C6.44857 13.7629 6.27474 13.259 6.2474 12.6691L8.55013 12.007C8.55013 12.5773 8.65951 12.9875 8.87826 13.2375C9.10091 13.4875 9.39779 13.6125 9.76888 13.6125C10.0814 13.6125 10.3411 13.5324 10.5482 13.3723C10.7552 13.2082 10.8587 12.966 10.8587 12.6457C10.8587 12.4621 10.8138 12.2941 10.724 12.1418C10.638 11.9894 10.4915 11.8664 10.2845 11.7726C10.0775 11.6789 9.79036 11.632 9.42318 11.632H9.04818V10.1262H9.69271C9.9974 10.1262 10.2337 10.05 10.4017 9.89764C10.5697 9.7453 10.6536 9.54999 10.6536 9.31171C10.6536 9.10468 10.5833 8.92499 10.4427 8.77264C10.3021 8.6203 10.0736 8.54413 9.75716 8.54413C9.48372 8.54413 9.25911 8.61249 9.08333 8.74921C8.91146 8.88593 8.8138 9.14764 8.79036 9.53436L6.55208 8.97186C6.58724 8.59296 6.74154 8.22968 7.01497 7.88202C7.29232 7.53436 7.67904 7.25116 8.17513 7.03241C8.67513 6.80975 9.27279 6.69843 9.9681 6.69843C10.5306 6.69843 11.0443 6.78241 11.5091 6.95038C11.974 7.11444 12.3451 7.36639 12.6224 7.70624C12.8997 8.04608 13.0384 8.47577 13.0384 8.9953C13.0384 9.27264 12.9857 9.54608 12.8802 9.81561C12.7786 10.0812 12.6029 10.3078 12.3529 10.4953C12.1029 10.6789 11.7552 10.7883 11.3099 10.8234C11.974 10.9211 12.4701 11.1516 12.7982 11.5148C13.1263 11.8742 13.2904 12.3273 13.2904 12.8742C13.2904 13.3117 13.1947 13.6945 13.0033 14.0226C12.8158 14.3469 12.5579 14.6164 12.2298 14.8312C11.9056 15.0422 11.5365 15.2004 11.1224 15.3058C10.7122 15.4113 10.2845 15.4641 9.83919 15.4641Z" fill="black"/>
<path d="M10.1772 15.1354C9.646 15.1354 9.16162 15.0417 8.72412 14.8542C8.28662 14.6667 7.93072 14.3924 7.65641 14.0312C7.38558 13.6701 7.2328 13.2326 7.19808 12.7187L8.76058 12.2604C8.77794 12.7917 8.90815 13.1962 9.1512 13.474C9.39426 13.7483 9.72238 13.8854 10.1356 13.8854C10.4967 13.8854 10.797 13.7847 11.0366 13.5833C11.2797 13.3819 11.4012 13.0885 11.4012 12.7031C11.4012 12.5226 11.3595 12.3455 11.2762 12.1719C11.1963 11.9948 11.0557 11.849 10.8543 11.7344C10.6564 11.6163 10.3769 11.5573 10.0158 11.5573H9.37516V10.4583H10.1147C10.462 10.4583 10.7276 10.3698 10.9116 10.1927C11.0991 10.0122 11.1929 9.79687 11.1929 9.54687C11.1929 9.2934 11.1043 9.07465 10.9272 8.89062C10.7502 8.7066 10.4863 8.61458 10.1356 8.61458C9.75711 8.61458 9.46718 8.71701 9.26579 8.92187C9.06787 9.12674 8.95502 9.44792 8.92725 9.88542L7.396 9.47396C7.42377 9.12674 7.55398 8.79167 7.78662 8.46875C8.01926 8.14583 8.34391 7.88194 8.76058 7.67708C9.18072 7.46875 9.67725 7.36458 10.2502 7.36458C10.7189 7.36458 11.146 7.44271 11.5314 7.59896C11.9168 7.75521 12.2224 7.98264 12.4481 8.28125C12.6772 8.57639 12.7918 8.93576 12.7918 9.35937C12.7918 9.6059 12.7432 9.84201 12.646 10.0677C12.5488 10.2934 12.3925 10.4861 12.1772 10.6458C11.962 10.8021 11.672 10.9062 11.3075 10.9583C11.8734 11.0486 12.304 11.2604 12.5991 11.5937C12.8977 11.9271 13.047 12.3316 13.047 12.8073C13.047 13.2101 12.9672 13.559 12.8075 13.8542C12.6477 14.1458 12.4307 14.3872 12.1564 14.5781C11.8856 14.7656 11.58 14.9062 11.2397 15C10.8995 15.0903 10.5453 15.1354 10.1772 15.1354Z" fill="white"/>
<path d="M51.1608 77.1693C51.8171 77.1693 52.4128 77.2787 52.9479 77.4974C53.4792 77.7162 53.9069 78.0345 54.2311 78.4525C54.5514 78.8705 54.7253 79.3744 54.7526 79.9642L52.4499 80.6263C52.4499 80.056 52.3405 79.6458 52.1217 79.3958C51.8991 79.1458 51.6022 79.0208 51.2311 79.0208C50.9186 79.0208 50.6589 79.1009 50.4518 79.2611C50.2448 79.4251 50.1413 79.6673 50.1413 79.9876C50.1413 80.1712 50.1862 80.3392 50.276 80.4915C50.362 80.6439 50.5085 80.7669 50.7155 80.8607C50.9225 80.9544 51.2096 81.0013 51.5768 81.0013H51.9518V82.5072H51.3073C51.0026 82.5072 50.7663 82.5833 50.5983 82.7357C50.4303 82.888 50.3464 83.0833 50.3464 83.3216C50.3464 83.5287 50.4167 83.7083 50.5573 83.8607C50.6979 84.013 50.9264 84.0892 51.2428 84.0892C51.5163 84.0892 51.7409 84.0208 51.9167 83.8841C52.0885 83.7474 52.1862 83.4857 52.2096 83.099L54.4479 83.6615C54.4128 84.0404 54.2585 84.4037 53.985 84.7513C53.7077 85.099 53.321 85.3822 52.8249 85.6009C52.3249 85.8236 51.7272 85.9349 51.0319 85.9349C50.4694 85.9349 49.9557 85.8509 49.4909 85.683C49.026 85.5189 48.6549 85.2669 48.3776 84.9271C48.1003 84.5872 47.9616 84.1576 47.9616 83.638C47.9616 83.3607 48.0143 83.0872 48.1198 82.8177C48.2214 82.5521 48.3971 82.3255 48.6471 82.138C48.8971 81.9544 49.2448 81.8451 49.6901 81.8099C49.026 81.7122 48.5299 81.4818 48.2018 81.1185C47.8737 80.7591 47.7096 80.306 47.7096 79.7591C47.7096 79.3216 47.8053 78.9388 47.9967 78.6107C48.1842 78.2865 48.4421 78.0169 48.7702 77.8021C49.0944 77.5912 49.4635 77.433 49.8776 77.3275C50.2878 77.222 50.7155 77.1693 51.1608 77.1693Z" fill="black"/>
<path d="M50.8228 77.4979C51.354 77.4979 51.8384 77.5917 52.2759 77.7792C52.7134 77.9667 53.0693 78.241 53.3436 78.6021C53.6144 78.9632 53.7672 79.4007 53.8019 79.9146L52.2394 80.3729C52.2221 79.8417 52.0919 79.4372 51.8488 79.1594C51.6057 78.8851 51.2776 78.7479 50.8644 78.7479C50.5033 78.7479 50.203 78.8486 49.9634 79.05C49.7203 79.2514 49.5988 79.5448 49.5988 79.9302C49.5988 80.1108 49.6405 80.2878 49.7238 80.4615C49.8037 80.6385 49.9443 80.7844 50.1457 80.899C50.3436 81.017 50.6231 81.076 50.9842 81.076H51.6248V82.175H50.8853C50.538 82.175 50.2724 82.2635 50.0884 82.4406C49.9009 82.6212 49.8071 82.8365 49.8071 83.0865C49.8071 83.3399 49.8957 83.5587 50.0728 83.7427C50.2498 83.9267 50.5137 84.0187 50.8644 84.0187C51.2429 84.0187 51.5328 83.9163 51.7342 83.7115C51.9321 83.5066 52.045 83.1854 52.0728 82.7479L53.604 83.1594C53.5762 83.5066 53.446 83.8417 53.2134 84.1646C52.9807 84.4875 52.6561 84.7514 52.2394 84.9562C51.8193 85.1646 51.3228 85.2687 50.7498 85.2687C50.2811 85.2687 49.854 85.1906 49.4686 85.0344C49.0832 84.8781 48.7776 84.6507 48.5519 84.3521C48.3228 84.0569 48.2082 83.6976 48.2082 83.274C48.2082 83.0274 48.2568 82.7913 48.354 82.5656C48.4512 82.3399 48.6075 82.1472 48.8228 81.9875C49.038 81.8312 49.328 81.7271 49.6925 81.675C49.1266 81.5847 48.696 81.3729 48.4009 81.0396C48.1023 80.7062 47.953 80.3017 47.953 79.826C47.953 79.4233 48.0328 79.0743 48.1925 78.7792C48.3523 78.4875 48.5693 78.2462 48.8436 78.0552C49.1144 77.8677 49.42 77.7271 49.7603 77.6333C50.1005 77.5431 50.4547 77.4979 50.8228 77.4979Z" fill="white"/>
</svg>
