<svg width="61" height="93" viewBox="0 0 61 93" fill="none" xmlns="http://www.w3.org/2000/svg">
<g clip-path="url(#clip0_2026_2)">
<mask id="mask0_2026_2" style="mask-type:luminance" maskUnits="userSpaceOnUse" x="0" y="0" width="61" height="93">
<path d="M61 0H0V93H61V0Z" fill="white"/>
</mask>
<g mask="url(#mask0_2026_2)">
<path d="M56.6081 0.122375H4.39207C2.03381 0.122375 0.12207 2.03989 0.12207 4.40527V88.5947C0.12207 90.9601 2.03381 92.8776 4.39207 92.8776H56.6081C58.9663 92.8776 60.8781 90.9601 60.8781 88.5947V4.40527C60.8781 2.03989 58.9663 0.122375 56.6081 0.122375Z" fill="#EDF0F7" stroke="#E8EAED" stroke-width="0.244"/>
<path d="M50.7523 4.40521H10.2483C7.01415 4.40521 4.39233 7.03495 4.39233 10.2789V82.721C4.39233 85.9649 7.01415 88.5947 10.2483 88.5947H50.7523C53.9865 88.5947 56.6083 85.9649 56.6083 82.721V10.2789C56.6083 7.03495 53.9865 4.40521 50.7523 4.40521Z" fill="#FFF533"/>
<path d="M48.9918 57.2052C43.4147 66.8941 36.2379 74.3635 29.199 78.6329C22.1178 82.9283 15.4508 83.8453 10.6161 81.0456C5.78136 78.2458 3.23975 71.9962 3.40772 63.6974C3.57469 55.4483 6.43547 45.4797 12.0125 35.7908C17.5894 26.1021 24.7663 18.6327 31.805 14.3632C38.8863 10.0679 45.5534 9.15072 50.388 11.9505C55.2229 14.7503 57.7644 21 57.5965 29.2989C57.4296 37.5477 54.5687 47.5166 48.9918 57.2052Z" stroke="#F7F1F5" stroke-width="2.44"/>
<path d="M24.7662 51.3948L34.0382 43.8079C35.2582 44.7869 37.6982 49.4369 35.5022 52.129C34.5013 53.3561 31.3542 56.1671 29.8902 57.5132C30.6222 58.8592 31.7202 60.0829 32.0862 60.6948L29.8902 62.6527H18.1782L19.3982 50.5382L21.7162 48.5803L24.7662 51.3948Z" fill="black"/>
<path d="M24.4001 52.7408L33.7941 44.7868C35.0141 45.7658 36.8441 49.9263 34.4041 52.0065C32.0342 54.0271 29.4021 56.5342 28.3041 57.3908L30.8661 60.8171H20.1301L21.4721 49.9263L24.4001 52.7408Z" fill="white"/>
<path d="M35.0143 43.4407L25.3763 51.2723C24.1563 50.2934 21.5943 45.0315 24.8883 41.8499C26.027 40.7501 27.7619 38.5629 29.4023 37.4447C28.6703 36.0986 27.9383 34.7526 27.5723 34.1407L29.5243 31.9381L41.6023 31.8157L40.3823 44.542L37.8203 46.1328L35.0143 43.4407Z" fill="black"/>
<path d="M36.4782 40.8711L27.3282 48.825C26.1082 47.8461 23.9122 43.5632 26.3522 41.4829C28.7222 39.4623 31.4762 37.0776 32.5742 36.2211L30.0122 32.7947H40.7482L39.4062 43.6855L36.4782 40.8711Z" fill="white"/>
<path d="M11.2088 16.7236L15.6516 13.0883C16.2362 13.5573 17.4053 15.7855 16.3531 17.0754C15.8734 17.6634 14.3655 19.0104 13.664 19.6554C14.0148 20.3003 14.5409 20.8867 14.7163 21.1799L13.664 22.118H8.052L8.6366 16.3132L9.74729 15.375L11.2088 16.7236Z" fill="black"/>
<path d="M11.0336 17.3686L15.5349 13.5574C16.1195 14.0265 16.9963 16.02 15.8272 17.0168C14.6916 17.985 13.4304 19.1863 12.9043 19.5968L14.1319 21.2385H8.98755L9.63059 16.02L11.0336 17.3686Z" fill="white"/>
<path d="M16.1193 12.9124L11.5011 16.6651C10.9165 16.196 9.6889 13.6747 11.2673 12.1502C11.8129 11.6232 12.6442 10.5751 13.4302 10.0393C13.0795 9.39432 12.7287 8.74934 12.5534 8.45617L13.4887 7.40074L19.2761 7.3421L18.6915 13.4401L17.4639 14.2024L16.1193 12.9124Z" fill="black"/>
<path d="M16.8208 11.6811L12.4365 15.4923C11.8519 15.0232 10.7997 12.971 11.9688 11.9742C13.1044 11.006 14.4241 9.86337 14.9502 9.45293L13.7226 7.81116H18.8669L18.2238 13.0297L16.8208 11.6811Z" fill="white"/>
<path d="M50.5234 76.1234L46.0804 79.7587C45.4958 79.2895 44.3268 77.0614 45.3789 75.7714C45.8587 75.1836 47.3666 73.8366 48.0681 73.1914C47.7174 72.5465 47.1911 71.9602 47.0159 71.667L48.0681 70.7289H53.6801L53.0955 76.5338L51.9848 77.4719L50.5234 76.1234Z" fill="black"/>
<path d="M50.6987 75.4783L46.1974 79.2896C45.6128 78.8207 44.7361 76.827 45.9051 75.8302C47.0407 74.8621 48.3019 73.6606 48.828 73.2502L47.6004 71.6085H52.7449L52.1017 76.827L50.6987 75.4783Z" fill="white"/>
<path d="M45.6127 79.9347L50.2311 76.1819C50.8155 76.651 52.0433 79.1723 50.4649 80.6968C49.9193 81.2237 49.088 82.2719 48.3018 82.8076C48.6527 83.4528 49.0033 84.0977 49.1787 84.3908L48.2435 85.4462L42.4561 85.5049L43.0407 79.4068L44.2682 78.6447L45.6127 79.9347Z" fill="black"/>
<path d="M44.9114 81.166L49.2959 77.3547C49.8805 77.8238 50.9328 79.876 49.7636 80.8728C48.628 81.8409 47.3082 82.9836 46.7822 83.394L48.0097 85.0357H42.8655L43.5084 79.8172L44.9114 81.166Z" fill="white"/>
</g>
</g>
<defs>
<clipPath id="clip0_2026_2">
<rect width="61" height="93" fill="white"/>
</clipPath>
</defs>
</svg>
